<svg xmlns="http://www.w3.org/2000/svg" xmlns:xlink="http://www.w3.org/1999/xlink" width="840" height="581.04"><rect width="840" height="581.04" class="a" rx="5" ry="5"/><svg x="0%" y="0%"><circle cx="20" cy="20" r="6" class="b"/><circle cx="40" cy="20" r="6" class="c"/><circle cx="60" cy="20" r="6" class="d"/></svg><svg xmlns="http://www.w3.org/2000/svg" xmlns:xlink="http://www.w3.org/1999/xlink" width="800" height="521.04" x="15" y="50" viewBox="0 0 80 52.104"><style>@keyframes F{0%{transform:translateX(0)}8%{transform:translateX(-160px)}}.e,.f,.g{font-family:&apos;Courier New&apos; Roboto,Helvetica,Arial,sans-serif,&apos;Apple Color Emoji&apos;,&apos;Segoe UI Emoji&apos;!important}.a{fill:#232323}.b{fill:#ff5f58}.c{fill:#ffbd2e}.d{fill:#18c132}.f{fill:#66c2cd}.g,.h,.i,.j,.k,.l{white-space:pre}.h{fill:#7ee7e9}.i{fill:#0ff}.j{fill:#0bf3ff}.k{fill:#17e7ff}.l{fill:#22dcff}.m{fill:#2ed0ff}.m,.n,.o,.p,.q,.r{white-space:pre}.n{fill:#39c5ff}.o{fill:#45b9ff}.p{fill:#51adff}.q{fill:#5ca2ff}.r{fill:#6896ff}.s{fill:#738bff}.s,.t,.u,.v,.w,.x{white-space:pre}.t{fill:#7f7fff}.u{fill:#8b73ff}.v{fill:#9668ff}.w{fill:#a25cff}.x{fill:#ad51ff}.A,.B,.C,.D,.y,.z{white-space:pre}.y{fill:#b945ff}.z{fill:#c539ff}.A{fill:#d02eff}.B{fill:#dc22ff}.C{fill:#e717ff}.D{fill:#f30bff}.E{fill:transparent}.G{animation-duration:5.437211s;animation-iteration-count:infinite;animation-name:F;animation-timing-function:steps(1,end)}.H{fill:#a0a0a0;white-space:pre}</style><g class="e" font-family="'JetBrainsMono',Monaco, Consolas, Menlo, 'Bitstream Vera Sans Mono', 'Powerline Symbols', monospace" font-size="1.67"><defs><symbol id="1"><rect width="6" height="2.171" x="0" y="0" class="f"/><text x="0" y="1.67" class="g">INFO</text><text x="7.014" y="1.67" class="h">RGB</text><text x="11.022" y="1.67" class="h">colors</text><text x="18.036" y="1.67" class="h">only</text><text x="23.046" y="1.67" class="h">work</text><text x="28.056" y="1.67" class="h">in</text><text x="31.062" y="1.67" class="h">Terminals</text><text x="41.082" y="1.67" class="h">which</text><text x="47.094" y="1.67" class="h">support</text><text x="55.11" y="1.67" class="h">TrueColor.</text></symbol><symbol id="2"><text x="0" y="1.67" class="i">Hello,</text><text x="7.014" y="1.67" class="i">World!</text></symbol><symbol id="3"><text x="0" y="1.67" class="j">Hello,</text><text x="7.014" y="1.67" class="j">World!</text></symbol><symbol id="4"><text x="0" y="1.67" class="k">Hello,</text><text x="7.014" y="1.67" class="k">World!</text></symbol><symbol id="5"><text x="0" y="1.67" class="l">Hello,</text><text x="7.014" y="1.67" class="l">World!</text></symbol><symbol id="6"><text x="0" y="1.67" class="m">Hello,</text><text x="7.014" y="1.67" class="m">World!</text></symbol><symbol id="7"><text x="0" y="1.67" class="n">Hello,</text><text x="7.014" y="1.67" class="n">World!</text></symbol><symbol id="8"><text x="0" y="1.67" class="o">Hello,</text><text x="7.014" y="1.67" class="o">World!</text></symbol><symbol id="9"><text x="0" y="1.67" class="p">Hello,</text><text x="7.014" y="1.67" class="p">World!</text></symbol><symbol id="10"><text x="0" y="1.67" class="q">Hello,</text><text x="7.014" y="1.67" class="q">World!</text></symbol><symbol id="11"><text x="0" y="1.67" class="r">Hello,</text><text x="7.014" y="1.67" class="r">World!</text></symbol><symbol id="12"><text x="0" y="1.67" class="s">Hello,</text><text x="7.014" y="1.67" class="s">World!</text></symbol><symbol id="13"><text x="0" y="1.67" class="t">Hello,</text><text x="7.014" y="1.67" class="t">World!</text></symbol><symbol id="14"><text x="0" y="1.67" class="u">Hello,</text><text x="7.014" y="1.67" class="u">World!</text></symbol><symbol id="15"><text x="0" y="1.67" class="v">Hello,</text><text x="7.014" y="1.67" class="v">World!</text></symbol><symbol id="16"><text x="0" y="1.67" class="w">Hello,</text><text x="7.014" y="1.67" class="w">World!</text></symbol><symbol id="17"><text x="0" y="1.67" class="x">Hello,</text><text x="7.014" y="1.67" class="x">World!</text></symbol><symbol id="18"><text x="0" y="1.67" class="y">Hello,</text><text x="7.014" y="1.67" class="y">World!</text></symbol><symbol id="19"><text x="0" y="1.67" class="z">Hello,</text><text x="7.014" y="1.67" class="z">World!</text></symbol><symbol id="20"><text x="0" y="1.67" class="A">Hello,</text><text x="7.014" y="1.67" class="A">World!</text></symbol><symbol id="21"><text x="0" y="1.67" class="B">Hello,</text><text x="7.014" y="1.67" class="B">World!</text></symbol><symbol id="22"><text x="0" y="1.67" class="C">Hello,</text><text x="7.014" y="1.67" class="C">World!</text></symbol><symbol id="23"><text x="0" y="1.67" class="D">Hello,</text><text x="7.014" y="1.67" class="D">World!</text></symbol><symbol id="a"><rect width="80" height="24" x="0" y="0" class="E"/></symbol></defs><rect width="80" height="52.104" class="a"/><g class="G"><svg width="320" x="0" y="0"><svg x="0"><use xlink:href="#a"/></svg><svg x="80"><use xlink:href="#a"/><use y="0" xlink:href="#1"/><use y="2.171" xlink:href="#2"/><use y="4.342" xlink:href="#3"/><use y="6.513" xlink:href="#4"/><use y="8.684" xlink:href="#5"/><use y="10.855" xlink:href="#6"/><use y="13.026" xlink:href="#7"/><use y="15.197" xlink:href="#8"/></svg><svg x="160"><use xlink:href="#a"/><use y="0" xlink:href="#1"/><use y="2.171" xlink:href="#2"/><use y="4.342" xlink:href="#3"/><use y="6.513" xlink:href="#4"/><use y="8.684" xlink:href="#5"/><use y="10.855" xlink:href="#6"/><use y="13.026" xlink:href="#7"/><use y="15.197" xlink:href="#8"/><use y="17.368" xlink:href="#9"/><use y="19.539" xlink:href="#10"/><use y="21.71" xlink:href="#11"/><use y="23.881" xlink:href="#12"/><use y="26.052" xlink:href="#13"/><use y="28.223" xlink:href="#14"/><use y="30.394" xlink:href="#15"/><use y="32.565" xlink:href="#16"/><use y="34.736" xlink:href="#17"/><use y="36.907" xlink:href="#18"/><use y="39.078" xlink:href="#19"/><use y="41.249" xlink:href="#20"/><use y="43.42" xlink:href="#21"/><use y="45.591" xlink:href="#22"/><use y="47.762" xlink:href="#23"/></svg><svg x="240"><use xlink:href="#a"/><use y="0" xlink:href="#3"/><use y="2.171" xlink:href="#4"/><use y="4.342" xlink:href="#5"/><use y="6.513" xlink:href="#6"/><use y="8.684" xlink:href="#7"/><use y="10.855" xlink:href="#8"/><use y="13.026" xlink:href="#9"/><use y="15.197" xlink:href="#10"/><use y="17.368" xlink:href="#11"/><use y="19.539" xlink:href="#12"/><use y="21.71" xlink:href="#13"/><use y="23.881" xlink:href="#14"/><use y="26.052" xlink:href="#15"/><use y="28.223" xlink:href="#16"/><use y="30.394" xlink:href="#17"/><use y="32.565" xlink:href="#18"/><use y="34.736" xlink:href="#19"/><use y="36.907" xlink:href="#20"/><use y="39.078" xlink:href="#21"/><use y="41.249" xlink:href="#22"/><use y="43.42" xlink:href="#23"/><text x="0" y="49.432" class="H">Restarting</text><text x="11.022" y="49.432" class="H">animation...</text></svg></svg></g></g></svg></svg>