<svg xmlns="http://www.w3.org/2000/svg" xmlns:xlink="http://www.w3.org/1999/xlink" width="840" height="581.04"><rect width="840" height="581.04" class="a" rx="5" ry="5"/><svg x="0%" y="0%"><circle cx="20" cy="20" r="6" class="b"/><circle cx="40" cy="20" r="6" class="c"/><circle cx="60" cy="20" r="6" class="d"/></svg><svg xmlns="http://www.w3.org/2000/svg" xmlns:xlink="http://www.w3.org/1999/xlink" width="800" height="521.04" x="15" y="50" viewBox="0 0 80 52.104"><style>@keyframes i{0%{transform:translateX(0)}8.1%{transform:translateX(-80px)}8.2%{transform:translateX(-160px)}}.e,.f,.g{font-family:&apos;Courier New&apos; Roboto,Helvetica,Arial,sans-serif,&apos;Apple Color Emoji&apos;,&apos;Segoe UI Emoji&apos;!important}.a{fill:#232323}.b{fill:#ff5f58}.c{fill:#ffbd2e}.d{fill:#18c132}.f,.g{fill:#686868;white-space:pre}.g{fill:#a0a0a0}.h{fill:transparent}.j{animation-duration:5.445682s;animation-iteration-count:infinite;animation-name:i;animation-timing-function:steps(1,end)}</style><g class="e" font-family="'JetBrainsMono',Monaco, Consolas, Menlo, 'Bitstream Vera Sans Mono', 'Powerline Symbols', monospace" font-size="1.67"><defs><symbol id="1"><text x="0" y="1.67" class="f">├─┬</text><text x="3.006" y="1.67" class="g">C:</text></symbol><symbol id="2"><text x="0" y="1.67" class="f">│</text><text x="2.004" y="1.67" class="f">├──</text><text x="5.01" y="1.67" class="g">Users</text></symbol><symbol id="3"><text x="0" y="1.67" class="f">│</text><text x="2.004" y="1.67" class="f">├──</text><text x="5.01" y="1.67" class="g">Windows</text></symbol><symbol id="4"><text x="0" y="1.67" class="f">│</text><text x="2.004" y="1.67" class="f">├──</text><text x="5.01" y="1.67" class="g">Programs</text></symbol><symbol id="5"><text x="0" y="1.67" class="f">│</text><text x="2.004" y="1.67" class="f">├──</text><text x="5.01" y="1.67" class="g">Programs(x86)</text></symbol><symbol id="6"><text x="0" y="1.67" class="f">│</text><text x="2.004" y="1.67" class="f">└──</text><text x="5.01" y="1.67" class="g">dev</text></symbol><symbol id="7"><text x="0" y="1.67" class="f">├──</text><text x="3.006" y="1.67" class="g">D:</text></symbol><symbol id="8"><text x="0" y="1.67" class="f">├─┬</text><text x="3.006" y="1.67" class="g">E:</text></symbol><symbol id="9"><text x="0" y="1.67" class="f">│</text><text x="2.004" y="1.67" class="f">├──</text><text x="5.01" y="1.67" class="g">Movies</text></symbol><symbol id="10"><text x="0" y="1.67" class="f">│</text><text x="2.004" y="1.67" class="f">├─┬</text><text x="5.01" y="1.67" class="g">Music</text></symbol><symbol id="11"><text x="0" y="1.67" class="f">│</text><text x="2.004" y="1.67" class="f">│</text><text x="4.008" y="1.67" class="f">└──</text><text x="7.014" y="1.67" class="g">LinkinPark</text></symbol><symbol id="12"><text x="0" y="1.67" class="f">│</text><text x="2.004" y="1.67" class="f">└─┬</text><text x="5.01" y="1.67" class="g">Games</text></symbol><symbol id="13"><text x="0" y="1.67" class="f">│</text><text x="4.008" y="1.67" class="f">└─┬</text><text x="7.014" y="1.67" class="g">Shooter</text></symbol><symbol id="14"><text x="0" y="1.67" class="f">│</text><text x="6.012" y="1.67" class="f">├──</text><text x="9.018" y="1.67" class="g">CallOfDuty</text></symbol><symbol id="15"><text x="0" y="1.67" class="f">│</text><text x="6.012" y="1.67" class="f">├──</text><text x="9.018" y="1.67" class="g">CS:GO</text></symbol><symbol id="16"><text x="0" y="1.67" class="f">│</text><text x="6.012" y="1.67" class="f">└─┬</text><text x="9.018" y="1.67" class="g">Battlefield</text></symbol><symbol id="17"><text x="0" y="1.67" class="f">│</text><text x="8.016" y="1.67" class="f">├──</text><text x="11.022" y="1.67" class="g">Battlefield</text><text x="23.046" y="1.67" class="g">1</text></symbol><symbol id="18"><text x="0" y="1.67" class="f">│</text><text x="8.016" y="1.67" class="f">└──</text><text x="11.022" y="1.67" class="g">Battlefield</text><text x="23.046" y="1.67" class="g">2</text></symbol><symbol id="19"><text x="0" y="1.67" class="f">└─┬</text><text x="3.006" y="1.67" class="g">F:</text></symbol><symbol id="20"><text x="2.004" y="1.67" class="f">└─┬</text><text x="5.01" y="1.67" class="g">dev</text></symbol><symbol id="21"><text x="4.008" y="1.67" class="f">├──</text><text x="7.014" y="1.67" class="g">dops</text></symbol><symbol id="22"><text x="4.008" y="1.67" class="f">└──</text><text x="7.014" y="1.67" class="g">PTerm</text></symbol><symbol id="a"><rect width="80" height="24" x="0" y="0" class="h"/></symbol></defs><rect width="80" height="52.104" class="a"/><g class="j"><svg width="320" x="0" y="0"><svg x="0"><use xlink:href="#a"/></svg><svg x="80"><use xlink:href="#a"/><use y="0" xlink:href="#1"/><use y="2.171" xlink:href="#2"/><use y="4.342" xlink:href="#3"/><use y="6.513" xlink:href="#4"/><use y="8.684" xlink:href="#5"/><use y="10.855" xlink:href="#6"/><use y="13.026" xlink:href="#7"/><use y="15.197" xlink:href="#8"/><use y="17.368" xlink:href="#9"/><use y="19.539" xlink:href="#10"/><use y="21.71" xlink:href="#11"/><use y="23.881" xlink:href="#12"/><use y="26.052" xlink:href="#13"/><use y="28.223" xlink:href="#14"/><use y="30.394" xlink:href="#15"/><text x="0" y="34.235" class="f">│</text><text x="6.012" y="34.235" class="f">└─┬</text></svg><svg x="160"><use xlink:href="#a"/><use y="0" xlink:href="#1"/><use y="2.171" xlink:href="#2"/><use y="4.342" xlink:href="#3"/><use y="6.513" xlink:href="#4"/><use y="8.684" xlink:href="#5"/><use y="10.855" xlink:href="#6"/><use y="13.026" xlink:href="#7"/><use y="15.197" xlink:href="#8"/><use y="17.368" xlink:href="#9"/><use y="19.539" xlink:href="#10"/><use y="21.71" xlink:href="#11"/><use y="23.881" xlink:href="#12"/><use y="26.052" xlink:href="#13"/><use y="28.223" xlink:href="#14"/><use y="30.394" xlink:href="#15"/><use y="32.565" xlink:href="#16"/><use y="34.736" xlink:href="#17"/><use y="36.907" xlink:href="#18"/><use y="39.078" xlink:href="#19"/><use y="41.249" xlink:href="#20"/><use y="43.42" xlink:href="#21"/><use y="45.591" xlink:href="#22"/></svg><svg x="240"><use xlink:href="#a"/><use y="0" xlink:href="#3"/><use y="2.171" xlink:href="#4"/><use y="4.342" xlink:href="#5"/><use y="6.513" xlink:href="#6"/><use y="8.684" xlink:href="#7"/><use y="10.855" xlink:href="#8"/><use y="13.026" xlink:href="#9"/><use y="15.197" xlink:href="#10"/><use y="17.368" xlink:href="#11"/><use y="19.539" xlink:href="#12"/><use y="21.71" xlink:href="#13"/><use y="23.881" xlink:href="#14"/><use y="26.052" xlink:href="#15"/><use y="28.223" xlink:href="#16"/><use y="30.394" xlink:href="#17"/><use y="32.565" xlink:href="#18"/><use y="34.736" xlink:href="#19"/><use y="36.907" xlink:href="#20"/><use y="39.078" xlink:href="#21"/><use y="41.249" xlink:href="#22"/><text x="0" y="49.432" class="g">Restarting</text><text x="11.022" y="49.432" class="g">animation...</text></svg></svg></g></g></svg></svg>