<svg xmlns="http://www.w3.org/2000/svg" xmlns:xlink="http://www.w3.org/1999/xlink" width="840" height="581.04"><rect width="840" height="581.04" class="a" rx="5" ry="5"/><svg x="0%" y="0%"><circle cx="20" cy="20" r="6" class="b"/><circle cx="40" cy="20" r="6" class="c"/><circle cx="60" cy="20" r="6" class="d"/></svg><svg xmlns="http://www.w3.org/2000/svg" xmlns:xlink="http://www.w3.org/1999/xlink" width="800" height="521.04" x="15" y="50" viewBox="0 0 80 52.104"><style>@keyframes m{0%{transform:translateX(0)}8%{transform:translateX(-80px)}}.e,.f,.g{font-family:&apos;Courier New&apos; Roboto,Helvetica,Arial,sans-serif,&apos;Apple Color Emoji&apos;,&apos;Segoe UI Emoji&apos;!important}.a{fill:#232323}.b{fill:#ff5f58}.c{fill:#ffbd2e}.d{fill:#18c132}.f{fill:#e88388}.g,.h,.i{white-space:pre}.h{fill:#f35656}.i{fill:#686868}.j{fill:#66c2cd}.k{fill:#ff0004;white-space:pre}.l{fill:transparent}.n{animation-duration:5.4372s;animation-iteration-count:infinite;animation-name:m;animation-timing-function:steps(1,end)}.o{fill:#a0a0a0;white-space:pre}</style><g class="e" font-family="'JetBrainsMono',Monaco, Consolas, Menlo, 'Bitstream Vera Sans Mono', 'Powerline Symbols', monospace" font-size="1.67"><defs><symbol id="1"><rect width="9" height="2.171" x="0" y="0" class="f"/><text x="0" y="1.67" class="g">ERROR</text><text x="10.02" y="1.67" class="h">This</text><text x="15.03" y="1.67" class="h">is</text><text x="18.036" y="1.67" class="h">the</text><text x="22.044" y="1.67" class="h">default</text><text x="30.06" y="1.67" class="h">Error</text></symbol><symbol id="2"><text x="0" y="1.67" class="i">└</text><text x="2.004" y="1.67" class="i">(/github/workspace/_examples/override-default-printers/main.go:7)</text></symbol><symbol id="3"><rect width="10" height="2.171" x="0" y="0" class="j"/><text x="0" y="1.67" class="k">OVERRIDE</text><text x="11.022" y="1.67" class="h">This</text><text x="16.032" y="1.67" class="h">is</text><text x="19.038" y="1.67" class="h">the</text><text x="23.046" y="1.67" class="h">default</text><text x="31.062" y="1.67" class="h">Error</text><text x="37.074" y="1.67" class="h">after</text><text x="43.086" y="1.67" class="h">the</text><text x="47.094" y="1.67" class="h">prefix</text><text x="54.108" y="1.67" class="h">was</text><text x="58.116" y="1.67" class="h">overridden</text></symbol><symbol id="4"><text x="0" y="1.67" class="i">└</text><text x="2.004" y="1.67" class="i">(/github/workspace/_examples/override-default-printers/main.go:16)</text></symbol><symbol id="a"><rect width="80" height="24" x="0" y="0" class="l"/></symbol></defs><rect width="80" height="52.104" class="a"/><g class="n"><svg width="240" x="0" y="0"><svg x="0"><use xlink:href="#a"/></svg><svg x="80"><use xlink:href="#a"/><use y="0" xlink:href="#1"/><use y="2.171" xlink:href="#2"/><use y="4.342" xlink:href="#3"/><use y="6.513" xlink:href="#4"/></svg><svg x="160"><use xlink:href="#a"/><use y="0" xlink:href="#1"/><use y="2.171" xlink:href="#2"/><use y="4.342" xlink:href="#3"/><use y="6.513" xlink:href="#4"/><text x="0" y="12.525" class="o">Restarting</text><text x="11.022" y="12.525" class="o">animation...</text></svg></svg></g></g></svg></svg>