<svg xmlns="http://www.w3.org/2000/svg" xmlns:xlink="http://www.w3.org/1999/xlink" width="840" height="581.04"><rect width="840" height="581.04" class="a" rx="5" ry="5"/><svg x="0%" y="0%"><circle cx="20" cy="20" r="6" class="b"/><circle cx="40" cy="20" r="6" class="c"/><circle cx="60" cy="20" r="6" class="d"/></svg><svg xmlns="http://www.w3.org/2000/svg" xmlns:xlink="http://www.w3.org/1999/xlink" width="800" height="521.04" x="15" y="50" viewBox="0 0 80 52.104"><style>@keyframes h{0%{transform:translateX(0)}1.15%{transform:translateX(-160px)}3.75%{transform:translateX(-320px)}6.35%{transform:translateX(-400px)}8.95%{transform:translateX(-480px)}11.55%{transform:translateX(-560px)}14.15%{transform:translateX(-640px)}16.75%{transform:translateX(-720px)}19.35%{transform:translateX(-800px)}21.96%{transform:translateX(-960px)}24.56%{transform:translateX(-1120px)}27.16%{transform:translateX(-1280px)}29.76%{transform:translateX(-1440px)}32.36%{transform:translateX(-1600px)}34.97%{transform:translateX(-1760px)}37.57%{transform:translateX(-1920px)}40.17%{transform:translateX(-2000px)}42.77%{transform:translateX(-2080px)}44.08%{transform:translateX(-2160px)}45.38%{transform:translateX(-2240px)}46.68%{transform:translateX(-2320px)}47.98%{transform:translateX(-2400px)}49.28%{transform:translateX(-2480px)}50.58%{transform:translateX(-2560px)}51.88%{transform:translateX(-2640px)}53.18%{transform:translateX(-2720px)}54.48%{transform:translateX(-2800px)}55.78%{transform:translateX(-2880px)}57.08%{transform:translateX(-2960px)}58.38%{transform:translateX(-3040px)}63.59%{transform:translateX(-3200px)}73.99%{transform:translateX(-3360px)}84.4%{transform:translateX(-3520px)}87%{transform:translateX(-3600px)}}.e,.f,.g{font-family:&apos;Courier New&apos; Roboto,Helvetica,Arial,sans-serif,&apos;Apple Color Emoji&apos;,&apos;Segoe UI Emoji&apos;!important}.a{fill:#232323}.b{fill:#ff5f58}.c{fill:#ffbd2e}.d{fill:#18c132}.f{fill:#a0a0a0;white-space:pre}.g{fill:transparent}.i{animation-duration:38.453072s;animation-iteration-count:infinite;animation-name:h;animation-timing-function:steps(1,end)}</style><g class="e" font-family="'JetBrainsMono',Monaco, Consolas, Menlo, 'Bitstream Vera Sans Mono', 'Powerline Symbols', monospace" font-size="1.67"><defs><symbol id="1"><text x="0" y="1.67" class="f">PTerm</text></symbol><symbol id="2"><text x="0" y="1.67" class="f">PTDP</text><text x="5.01" y="1.67" class="f">-</text><text x="7.014" y="1.67" class="f">PTerm</text><text x="13.026" y="1.67" class="f">Demo</text><text x="18.036" y="1.67" class="f">ProgramINFO:</text><text x="31.062" y="1.67" class="f">This</text><text x="36.072" y="1.67" class="f">animation</text><text x="46.092" y="1.67" class="f">was</text><text x="50.1" y="1.67" class="f">generated</text><text x="60.12" y="1.67" class="f">with</text><text x="65.13" y="1.67" class="f">the</text><text x="69.138" y="1.67" class="f">latest</text><text x="76.152" y="1.67" class="f">vers</text></symbol><symbol id="3"><text x="0" y="1.67" class="f">ion</text><text x="4.008" y="1.67" class="f">of</text><text x="7.014" y="1.67" class="f">PTerm!</text></symbol><symbol id="4"><text x="0" y="1.67" class="f">PTerm</text><text x="6.012" y="1.67" class="f">works</text><text x="12.024" y="1.67" class="f">on</text><text x="15.03" y="1.67" class="f">nearly</text><text x="22.044" y="1.67" class="f">every</text><text x="28.056" y="1.67" class="f">terminal</text><text x="37.074" y="1.67" class="f">and</text><text x="41.082" y="1.67" class="f">operating</text><text x="51.102" y="1.67" class="f">system.</text></symbol><symbol id="5"><text x="0" y="1.67" class="f">It&apos;s</text><text x="5.01" y="1.67" class="f">super</text><text x="11.022" y="1.67" class="f">easy</text><text x="16.032" y="1.67" class="f">to</text><text x="19.038" y="1.67" class="f">use!</text></symbol><symbol id="6"><text x="0" y="1.67" class="f">If</text><text x="3.006" y="1.67" class="f">you</text><text x="7.014" y="1.67" class="f">want,</text><text x="13.026" y="1.67" class="f">you</text><text x="17.034" y="1.67" class="f">can</text><text x="21.042" y="1.67" class="f">customize</text><text x="31.062" y="1.67" class="f">everything</text><text x="42.084" y="1.67" class="f">:)</text></symbol><symbol id="7"><text x="0" y="1.67" class="f">You</text><text x="4.008" y="1.67" class="f">can</text><text x="8.016" y="1.67" class="f">see</text><text x="12.024" y="1.67" class="f">the</text><text x="16.032" y="1.67" class="f">code</text><text x="21.042" y="1.67" class="f">of</text><text x="24.048" y="1.67" class="f">this</text><text x="29.058" y="1.67" class="f">demo</text><text x="34.068" y="1.67" class="f">in</text><text x="37.074" y="1.67" class="f">the</text><text x="41.082" y="1.67" class="f">./_examples/demo</text><text x="58.116" y="1.67" class="f">directory.</text></symbol><symbol id="8"><text x="0" y="1.67" class="f">This</text><text x="5.01" y="1.67" class="f">demo</text><text x="10.02" y="1.67" class="f">was</text><text x="14.028" y="1.67" class="f">updated</text><text x="22.044" y="1.67" class="f">at:</text><text x="26.052" y="1.67" class="f">01</text><text x="29.058" y="1.67" class="f">Jun</text><text x="33.066" y="1.67" class="f">2021</text><text x="38.076" y="1.67" class="f">-</text><text x="40.08" y="1.67" class="f">11:06:24</text><text x="49.098" y="1.67" class="f">UTC</text></symbol><symbol id="9"><text x="0" y="1.67" class="f">Waiting</text><text x="8.016" y="1.67" class="f">for</text><text x="12.024" y="1.67" class="f">15</text><text x="15.03" y="1.67" class="f">seconds...</text></symbol><symbol id="10"><text x="0" y="1.67" class="f">Waiting</text><text x="8.016" y="1.67" class="f">for</text><text x="12.024" y="1.67" class="f">14</text><text x="15.03" y="1.67" class="f">seconds...</text></symbol><symbol id="11"><text x="0" y="1.67" class="f">Waiting</text><text x="8.016" y="1.67" class="f">for</text><text x="12.024" y="1.67" class="f">13</text><text x="15.03" y="1.67" class="f">seconds...</text></symbol><symbol id="12"><text x="0" y="1.67" class="f">Waiting</text><text x="8.016" y="1.67" class="f">for</text><text x="12.024" y="1.67" class="f">12</text><text x="15.03" y="1.67" class="f">seconds...</text></symbol><symbol id="13"><text x="0" y="1.67" class="f">Waiting</text><text x="8.016" y="1.67" class="f">for</text><text x="12.024" y="1.67" class="f">11</text><text x="15.03" y="1.67" class="f">seconds...</text></symbol><symbol id="14"><text x="0" y="1.67" class="f">Waiting</text><text x="8.016" y="1.67" class="f">for</text><text x="12.024" y="1.67" class="f">10</text><text x="15.03" y="1.67" class="f">seconds...</text></symbol><symbol id="15"><text x="0" y="1.67" class="f">Waiting</text><text x="8.016" y="1.67" class="f">for</text><text x="12.024" y="1.67" class="f">9</text><text x="14.028" y="1.67" class="f">seconds...</text></symbol><symbol id="16"><text x="0" y="1.67" class="f">Waiting</text><text x="8.016" y="1.67" class="f">for</text><text x="12.024" y="1.67" class="f">8</text><text x="14.028" y="1.67" class="f">seconds...</text></symbol><symbol id="17"><text x="0" y="1.67" class="f">Waiting</text><text x="8.016" y="1.67" class="f">for</text><text x="12.024" y="1.67" class="f">7</text><text x="14.028" y="1.67" class="f">seconds...</text></symbol><symbol id="18"><text x="0" y="1.67" class="f">Waiting</text><text x="8.016" y="1.67" class="f">for</text><text x="12.024" y="1.67" class="f">6</text><text x="14.028" y="1.67" class="f">seconds...</text></symbol><symbol id="19"><text x="0" y="1.67" class="f">Waiting</text><text x="8.016" y="1.67" class="f">for</text><text x="12.024" y="1.67" class="f">5</text><text x="14.028" y="1.67" class="f">seconds...</text></symbol><symbol id="20"><text x="0" y="1.67" class="f">Waiting</text><text x="8.016" y="1.67" class="f">for</text><text x="12.024" y="1.67" class="f">4</text><text x="14.028" y="1.67" class="f">seconds...</text></symbol><symbol id="21"><text x="0" y="1.67" class="f">Waiting</text><text x="8.016" y="1.67" class="f">for</text><text x="12.024" y="1.67" class="f">3</text><text x="14.028" y="1.67" class="f">seconds...</text></symbol><symbol id="22"><text x="0" y="1.67" class="f">Waiting</text><text x="8.016" y="1.67" class="f">for</text><text x="12.024" y="1.67" class="f">2</text><text x="14.028" y="1.67" class="f">seconds...</text></symbol><symbol id="23"><text x="0" y="1.67" class="f">Waiting</text><text x="8.016" y="1.67" class="f">for</text><text x="12.024" y="1.67" class="f">1</text><text x="14.028" y="1.67" class="f">second...</text></symbol><symbol id="24"><text x="0" y="1.67" class="f">Pseudo</text><text x="7.014" y="1.67" class="f">Application</text><text x="19.038" y="1.67" class="f">created</text><text x="27.054" y="1.67" class="f">with</text><text x="32.064" y="1.67" class="f">PTerm</text></symbol><symbol id="25"><text x="0" y="1.67" class="f">#</text><text x="2.004" y="1.67" class="f">Installing</text><text x="13.026" y="1.67" class="f">pseudo</text><text x="20.04" y="1.67" class="f">programs</text></symbol><symbol id="26"><text x="0" y="1.67" class="f">Installing</text><text x="11.022" y="1.67" class="f">stuff</text></symbol><symbol id="27"><text x="0" y="1.67" class="f">SUCCESS:</text><text x="9.018" y="1.67" class="f">Installing</text><text x="20.04" y="1.67" class="f">pseudo-excel</text></symbol><symbol id="28"><text x="0" y="1.67" class="f">SUCCESS:</text><text x="9.018" y="1.67" class="f">Installing</text><text x="20.04" y="1.67" class="f">pseudo-photoshop</text></symbol><symbol id="29"><text x="0" y="1.67" class="f">SUCCESS:</text><text x="9.018" y="1.67" class="f">Installing</text><text x="20.04" y="1.67" class="f">pseudo-chrome</text></symbol><symbol id="30"><text x="0" y="1.67" class="f">SUCCESS:</text><text x="9.018" y="1.67" class="f">Installing</text><text x="20.04" y="1.67" class="f">pseudo-outlook</text></symbol><symbol id="31"><text x="0" y="1.67" class="f">SUCCESS:</text><text x="9.018" y="1.67" class="f">Installing</text><text x="20.04" y="1.67" class="f">pseudo-explorer</text></symbol><symbol id="32"><text x="0" y="1.67" class="f">SUCCESS:</text><text x="9.018" y="1.67" class="f">Installing</text><text x="20.04" y="1.67" class="f">pseudo-dops</text></symbol><symbol id="33"><text x="0" y="1.67" class="f">SUCCESS:</text><text x="9.018" y="1.67" class="f">Installing</text><text x="20.04" y="1.67" class="f">pseudo-git</text></symbol><symbol id="34"><text x="0" y="1.67" class="f">SUCCESS:</text><text x="9.018" y="1.67" class="f">Installing</text><text x="20.04" y="1.67" class="f">pseudo-vsc</text></symbol><symbol id="35"><text x="0" y="1.67" class="f">SUCCESS:</text><text x="9.018" y="1.67" class="f">Installing</text><text x="20.04" y="1.67" class="f">pseudo-intellij</text></symbol><symbol id="36"><text x="0" y="1.67" class="f">WARNING:</text><text x="9.018" y="1.67" class="f">Could</text><text x="15.03" y="1.67" class="f">not</text><text x="19.038" y="1.67" class="f">install</text><text x="27.054" y="1.67" class="f">pseudo-minecraft</text></symbol><symbol id="37"><text x="0" y="1.67" class="f">The</text><text x="4.008" y="1.67" class="f">company</text><text x="12.024" y="1.67" class="f">policy</text><text x="19.038" y="1.67" class="f">forbids</text><text x="27.054" y="1.67" class="f">games.</text></symbol><symbol id="38"><text x="0" y="1.67" class="f">SUCCESS:</text><text x="9.018" y="1.67" class="f">Installing</text><text x="20.04" y="1.67" class="f">pseudo-scoop</text></symbol><symbol id="39"><text x="0" y="1.67" class="f">SUCCESS:</text><text x="9.018" y="1.67" class="f">Installing</text><text x="20.04" y="1.67" class="f">pseudo-chocolatey</text></symbol><symbol id="40"><text x="0" y="1.67" class="f">##</text><text x="3.006" y="1.67" class="f">Program</text><text x="11.022" y="1.67" class="f">Install</text><text x="19.038" y="1.67" class="f">Report</text></symbol><symbol id="41"><text x="0" y="1.67" class="f">Program</text><text x="8.016" y="1.67" class="f">Name</text><text x="18.036" y="1.67" class="f">|</text><text x="20.04" y="1.67" class="f">Status</text><text x="27.054" y="1.67" class="f">|</text><text x="29.058" y="1.67" class="f">Size</text></symbol><symbol id="42"><text x="0" y="1.67" class="f">pseudo-excel</text><text x="18.036" y="1.67" class="f">|</text><text x="20.04" y="1.67" class="f">pass</text><text x="27.054" y="1.67" class="f">|</text><text x="29.058" y="1.67" class="f">149mb</text></symbol><symbol id="43"><text x="0" y="1.67" class="f">pseudo-photoshop</text><text x="18.036" y="1.67" class="f">|</text><text x="20.04" y="1.67" class="f">pass</text><text x="27.054" y="1.67" class="f">|</text><text x="29.058" y="1.67" class="f">86mb</text></symbol><symbol id="44"><text x="0" y="1.67" class="f">pseudo-chrome</text><text x="18.036" y="1.67" class="f">|</text><text x="20.04" y="1.67" class="f">pass</text><text x="27.054" y="1.67" class="f">|</text><text x="29.058" y="1.67" class="f">28mb</text></symbol><symbol id="45"><text x="0" y="1.67" class="f">pseudo-outlook</text><text x="18.036" y="1.67" class="f">|</text><text x="20.04" y="1.67" class="f">pass</text><text x="27.054" y="1.67" class="f">|</text><text x="29.058" y="1.67" class="f">27mb</text></symbol><symbol id="46"><text x="0" y="1.67" class="f">pseudo-explorer</text><text x="18.036" y="1.67" class="f">|</text><text x="20.04" y="1.67" class="f">pass</text><text x="27.054" y="1.67" class="f">|</text><text x="29.058" y="1.67" class="f">104mb</text></symbol><symbol id="47"><text x="0" y="1.67" class="f">pseudo-dops</text><text x="18.036" y="1.67" class="f">|</text><text x="20.04" y="1.67" class="f">pass</text><text x="27.054" y="1.67" class="f">|</text><text x="29.058" y="1.67" class="f">162mb</text></symbol><symbol id="48"><text x="0" y="1.67" class="f">pseudo-git</text><text x="18.036" y="1.67" class="f">|</text><text x="20.04" y="1.67" class="f">pass</text><text x="27.054" y="1.67" class="f">|</text><text x="29.058" y="1.67" class="f">32mb</text></symbol><symbol id="49"><text x="0" y="1.67" class="f">pseudo-vsc</text><text x="18.036" y="1.67" class="f">|</text><text x="20.04" y="1.67" class="f">pass</text><text x="27.054" y="1.67" class="f">|</text><text x="29.058" y="1.67" class="f">152mb</text></symbol><symbol id="50"><text x="0" y="1.67" class="f">pseudo-intellij</text><text x="18.036" y="1.67" class="f">|</text><text x="20.04" y="1.67" class="f">pass</text><text x="27.054" y="1.67" class="f">|</text><text x="29.058" y="1.67" class="f">158mb</text></symbol><symbol id="51"><text x="0" y="1.67" class="f">pseudo-minecraft</text><text x="18.036" y="1.67" class="f">|</text><text x="20.04" y="1.67" class="f">fail</text><text x="27.054" y="1.67" class="f">|</text><text x="29.058" y="1.67" class="f">0mb</text></symbol><symbol id="52"><text x="0" y="1.67" class="f">pseudo-scoop</text><text x="18.036" y="1.67" class="f">|</text><text x="20.04" y="1.67" class="f">pass</text><text x="27.054" y="1.67" class="f">|</text><text x="29.058" y="1.67" class="f">195mb</text></symbol><symbol id="53"><text x="0" y="1.67" class="f">pseudo-chocolatey</text><text x="18.036" y="1.67" class="f">|</text><text x="20.04" y="1.67" class="f">pass</text><text x="27.054" y="1.67" class="f">|</text><text x="29.058" y="1.67" class="f">47mb</text></symbol><symbol id="54"><text x="2.004" y="1.67" class="f">├──Windows</text></symbol><symbol id="55"><text x="2.004" y="1.67" class="f">└─┬Programs</text></symbol><symbol id="56"><text x="4.008" y="1.67" class="f">├──pseudo-excel</text></symbol><symbol id="57"><text x="4.008" y="1.67" class="f">├──pseudo-photoshop</text></symbol><symbol id="58"><text x="4.008" y="1.67" class="f">├─┬pseudo-chrome</text></symbol><symbol id="59"><text x="4.008" y="1.67" class="f">│</text><text x="6.012" y="1.67" class="f">├──pseudo-Tabs</text></symbol><symbol id="60"><text x="4.008" y="1.67" class="f">│</text><text x="6.012" y="1.67" class="f">├─┬pseudo-Extensions</text></symbol><symbol id="61"><text x="4.008" y="1.67" class="f">│</text><text x="6.012" y="1.67" class="f">│</text><text x="8.016" y="1.67" class="f">├──Refined</text><text x="19.038" y="1.67" class="f">GitHub</text></symbol><symbol id="62"><text x="4.008" y="1.67" class="f">│</text><text x="6.012" y="1.67" class="f">│</text><text x="8.016" y="1.67" class="f">└──GitHub</text><text x="18.036" y="1.67" class="f">Dark</text><text x="23.046" y="1.67" class="f">Theme</text></symbol><symbol id="63"><text x="4.008" y="1.67" class="f">│</text><text x="6.012" y="1.67" class="f">└─┬pseudo-Bookmarks</text></symbol><symbol id="64"><text x="4.008" y="1.67" class="f">│</text><text x="8.016" y="1.67" class="f">└──PTerm</text></symbol><symbol id="65"><text x="4.008" y="1.67" class="f">├──pseudo-outlook</text></symbol><symbol id="66"><text x="4.008" y="1.67" class="f">├──pseudo-explorer</text></symbol><symbol id="67"><text x="4.008" y="1.67" class="f">├──pseudo-dops</text></symbol><symbol id="68"><text x="4.008" y="1.67" class="f">├──pseudo-git</text></symbol><symbol id="69"><text x="4.008" y="1.67" class="f">├──pseudo-vsc</text></symbol><symbol id="70"><text x="4.008" y="1.67" class="f">├──pseudo-intellij</text></symbol><symbol id="71"><text x="4.008" y="1.67" class="f">├──pseudo-scoop</text></symbol><symbol id="72"><text x="4.008" y="1.67" class="f">└──pseudo-chocolatey</text></symbol><symbol id="73"><text x="0" y="1.67" class="f">#</text><text x="2.004" y="1.67" class="f">TrueColor</text><text x="12.024" y="1.67" class="f">Support</text></symbol><symbol id="74"><text x="0" y="1.67" class="f">INFO:</text><text x="6.012" y="1.67" class="f">If</text><text x="9.018" y="1.67" class="f">your</text><text x="14.028" y="1.67" class="f">terminal</text><text x="23.046" y="1.67" class="f">has</text><text x="27.054" y="1.67" class="f">TrueColor</text><text x="37.074" y="1.67" class="f">support,</text><text x="46.092" y="1.67" class="f">you</text><text x="50.1" y="1.67" class="f">can</text><text x="54.108" y="1.67" class="f">use</text><text x="58.116" y="1.67" class="f">RGB</text><text x="62.124" y="1.67" class="f">colors!</text></symbol><symbol id="75"><text x="0" y="1.67" class="f">You</text><text x="4.008" y="1.67" class="f">can</text><text x="8.016" y="1.67" class="f">even</text><text x="13.026" y="1.67" class="f">fade</text><text x="18.036" y="1.67" class="f">them</text><text x="23.046" y="1.67" class="f">:)</text></symbol><symbol id="76"><text x="0" y="1.67" class="f">#</text><text x="2.004" y="1.67" class="f">Bullet</text><text x="9.018" y="1.67" class="f">List</text><text x="14.028" y="1.67" class="f">Printer</text></symbol><symbol id="77"><text x="0" y="1.67" class="f">•</text><text x="2.004" y="1.67" class="f">Good</text><text x="7.014" y="1.67" class="f">bye</text></symbol><symbol id="78"><text x="1.002" y="1.67" class="f">•</text><text x="3.006" y="1.67" class="f">Have</text><text x="8.016" y="1.67" class="f">a</text><text x="10.02" y="1.67" class="f">nice</text><text x="15.03" y="1.67" class="f">day!</text></symbol><symbol id="a"><rect width="80" height="24" x="0" y="0" class="g"/></symbol></defs><rect width="80" height="52.104" class="a"/><g class="i"><svg width="3760" x="0" y="0"><svg x="0"><use xlink:href="#a"/></svg><svg x="80"><use xlink:href="#a"/><use y="0" xlink:href="#1"/><text x="0" y="3.841" class="f">PTDP</text><text x="5.01" y="3.841" class="f">-</text><text x="7.014" y="3.841" class="f">PTerm</text><text x="13.026" y="3.841" class="f">Demo</text><text x="18.036" y="3.841" class="f">Program</text></svg><svg x="160"><use xlink:href="#a"/><use y="0" xlink:href="#1"/><use y="2.171" xlink:href="#2"/><use y="4.342" xlink:href="#3"/><use y="6.513" xlink:href="#4"/><use y="8.684" xlink:href="#5"/><use y="10.855" xlink:href="#6"/><use y="13.026" xlink:href="#7"/><use y="17.368" xlink:href="#8"/><use y="21.71" xlink:href="#9"/></svg><svg x="240"><use xlink:href="#a"/><use y="0" xlink:href="#1"/><use y="2.171" xlink:href="#2"/><use y="4.342" xlink:href="#3"/><use y="6.513" xlink:href="#4"/><use y="8.684" xlink:href="#5"/><use y="10.855" xlink:href="#6"/><use y="13.026" xlink:href="#7"/><use y="17.368" xlink:href="#8"/><use y="21.71" xlink:href="#9"/><use y="23.881" xlink:href="#10"/></svg><svg x="320"><use xlink:href="#a"/><use y="0" xlink:href="#1"/><use y="2.171" xlink:href="#2"/><use y="4.342" xlink:href="#3"/><use y="6.513" xlink:href="#4"/><use y="8.684" xlink:href="#5"/><use y="10.855" xlink:href="#6"/><use y="13.026" xlink:href="#7"/><use y="17.368" xlink:href="#8"/><use y="21.71" xlink:href="#9"/><use y="23.881" xlink:href="#10"/></svg><svg x="400"><use xlink:href="#a"/><use y="0" xlink:href="#1"/><use y="2.171" xlink:href="#2"/><use y="4.342" xlink:href="#3"/><use y="6.513" xlink:href="#4"/><use y="8.684" xlink:href="#5"/><use y="10.855" xlink:href="#6"/><use y="13.026" xlink:href="#7"/><use y="17.368" xlink:href="#8"/><use y="21.71" xlink:href="#9"/><use y="23.881" xlink:href="#10"/><use y="26.052" xlink:href="#11"/></svg><svg x="480"><use xlink:href="#a"/><use y="0" xlink:href="#1"/><use y="2.171" xlink:href="#2"/><use y="4.342" xlink:href="#3"/><use y="6.513" xlink:href="#4"/><use y="8.684" xlink:href="#5"/><use y="10.855" xlink:href="#6"/><use y="13.026" xlink:href="#7"/><use y="17.368" xlink:href="#8"/><use y="21.71" xlink:href="#9"/><use y="23.881" xlink:href="#10"/><use y="26.052" xlink:href="#11"/><use y="28.223" xlink:href="#12"/></svg><svg x="560"><use xlink:href="#a"/><use y="0" xlink:href="#1"/><use y="2.171" xlink:href="#2"/><use y="4.342" xlink:href="#3"/><use y="6.513" xlink:href="#4"/><use y="8.684" xlink:href="#5"/><use y="10.855" xlink:href="#6"/><use y="13.026" xlink:href="#7"/><use y="17.368" xlink:href="#8"/><use y="21.71" xlink:href="#9"/><use y="23.881" xlink:href="#10"/><use y="26.052" xlink:href="#11"/><use y="28.223" xlink:href="#12"/><use y="30.394" xlink:href="#13"/></svg><svg x="640"><use xlink:href="#a"/><use y="0" xlink:href="#1"/><use y="2.171" xlink:href="#2"/><use y="4.342" xlink:href="#3"/><use y="6.513" xlink:href="#4"/><use y="8.684" xlink:href="#5"/><use y="10.855" xlink:href="#6"/><use y="13.026" xlink:href="#7"/><use y="17.368" xlink:href="#8"/><use y="21.71" xlink:href="#9"/><use y="23.881" xlink:href="#10"/><use y="26.052" xlink:href="#11"/><use y="28.223" xlink:href="#12"/><use y="30.394" xlink:href="#13"/><use y="32.565" xlink:href="#14"/></svg><svg x="720"><use xlink:href="#a"/><use y="0" xlink:href="#1"/><use y="2.171" xlink:href="#2"/><use y="4.342" xlink:href="#3"/><use y="6.513" xlink:href="#4"/><use y="8.684" xlink:href="#5"/><use y="10.855" xlink:href="#6"/><use y="13.026" xlink:href="#7"/><use y="17.368" xlink:href="#8"/><use y="21.71" xlink:href="#9"/><use y="23.881" xlink:href="#10"/><use y="26.052" xlink:href="#11"/><use y="28.223" xlink:href="#12"/><use y="30.394" xlink:href="#13"/><use y="32.565" xlink:href="#14"/><use y="34.736" xlink:href="#15"/></svg><svg x="800"><use xlink:href="#a"/><use y="0" xlink:href="#1"/><use y="2.171" xlink:href="#2"/><use y="4.342" xlink:href="#3"/><use y="6.513" xlink:href="#4"/><use y="8.684" xlink:href="#5"/><use y="10.855" xlink:href="#6"/><use y="13.026" xlink:href="#7"/><use y="17.368" xlink:href="#8"/><use y="21.71" xlink:href="#9"/><use y="23.881" xlink:href="#10"/><use y="26.052" xlink:href="#11"/><use y="28.223" xlink:href="#12"/><use y="30.394" xlink:href="#13"/><use y="32.565" xlink:href="#14"/><use y="34.736" xlink:href="#15"/><use y="36.907" xlink:href="#16"/></svg><svg x="880"><use xlink:href="#a"/><use y="0" xlink:href="#1"/><use y="2.171" xlink:href="#2"/><use y="4.342" xlink:href="#3"/><use y="6.513" xlink:href="#4"/><use y="8.684" xlink:href="#5"/><use y="10.855" xlink:href="#6"/><use y="13.026" xlink:href="#7"/><use y="17.368" xlink:href="#8"/><use y="21.71" xlink:href="#9"/><use y="23.881" xlink:href="#10"/><use y="26.052" xlink:href="#11"/><use y="28.223" xlink:href="#12"/><use y="30.394" xlink:href="#13"/><use y="32.565" xlink:href="#14"/><use y="34.736" xlink:href="#15"/><use y="36.907" xlink:href="#16"/><use y="39.078" xlink:href="#17"/></svg><svg x="960"><use xlink:href="#a"/><use y="0" xlink:href="#1"/><use y="2.171" xlink:href="#2"/><use y="4.342" xlink:href="#3"/><use y="6.513" xlink:href="#4"/><use y="8.684" xlink:href="#5"/><use y="10.855" xlink:href="#6"/><use y="13.026" xlink:href="#7"/><use y="17.368" xlink:href="#8"/><use y="21.71" xlink:href="#9"/><use y="23.881" xlink:href="#10"/><use y="26.052" xlink:href="#11"/><use y="28.223" xlink:href="#12"/><use y="30.394" xlink:href="#13"/><use y="32.565" xlink:href="#14"/><use y="34.736" xlink:href="#15"/><use y="36.907" xlink:href="#16"/><use y="39.078" xlink:href="#17"/></svg><svg x="1040"><use xlink:href="#a"/><use y="0" xlink:href="#1"/><use y="2.171" xlink:href="#2"/><use y="4.342" xlink:href="#3"/><use y="6.513" xlink:href="#4"/><use y="8.684" xlink:href="#5"/><use y="10.855" xlink:href="#6"/><use y="13.026" xlink:href="#7"/><use y="17.368" xlink:href="#8"/><use y="21.71" xlink:href="#9"/><use y="23.881" xlink:href="#10"/><use y="26.052" xlink:href="#11"/><use y="28.223" xlink:href="#12"/><use y="30.394" xlink:href="#13"/><use y="32.565" xlink:href="#14"/><use y="34.736" xlink:href="#15"/><use y="36.907" xlink:href="#16"/><use y="39.078" xlink:href="#17"/><use y="41.249" xlink:href="#18"/></svg><svg x="1120"><use xlink:href="#a"/><use y="0" xlink:href="#1"/><use y="2.171" xlink:href="#2"/><use y="4.342" xlink:href="#3"/><use y="6.513" xlink:href="#4"/><use y="8.684" xlink:href="#5"/><use y="10.855" xlink:href="#6"/><use y="13.026" xlink:href="#7"/><use y="17.368" xlink:href="#8"/><use y="21.71" xlink:href="#9"/><use y="23.881" xlink:href="#10"/><use y="26.052" xlink:href="#11"/><use y="28.223" xlink:href="#12"/><use y="30.394" xlink:href="#13"/><use y="32.565" xlink:href="#14"/><use y="34.736" xlink:href="#15"/><use y="36.907" xlink:href="#16"/><use y="39.078" xlink:href="#17"/><use y="41.249" xlink:href="#18"/></svg><svg x="1200"><use xlink:href="#a"/><use y="0" xlink:href="#1"/><use y="2.171" xlink:href="#2"/><use y="4.342" xlink:href="#3"/><use y="6.513" xlink:href="#4"/><use y="8.684" xlink:href="#5"/><use y="10.855" xlink:href="#6"/><use y="13.026" xlink:href="#7"/><use y="17.368" xlink:href="#8"/><use y="21.71" xlink:href="#9"/><use y="23.881" xlink:href="#10"/><use y="26.052" xlink:href="#11"/><use y="28.223" xlink:href="#12"/><use y="30.394" xlink:href="#13"/><use y="32.565" xlink:href="#14"/><use y="34.736" xlink:href="#15"/><use y="36.907" xlink:href="#16"/><use y="39.078" xlink:href="#17"/><use y="41.249" xlink:href="#18"/><use y="43.42" xlink:href="#19"/></svg><svg x="1280"><use xlink:href="#a"/><use y="0" xlink:href="#1"/><use y="2.171" xlink:href="#2"/><use y="4.342" xlink:href="#3"/><use y="6.513" xlink:href="#4"/><use y="8.684" xlink:href="#5"/><use y="10.855" xlink:href="#6"/><use y="13.026" xlink:href="#7"/><use y="17.368" xlink:href="#8"/><use y="21.71" xlink:href="#9"/><use y="23.881" xlink:href="#10"/><use y="26.052" xlink:href="#11"/><use y="28.223" xlink:href="#12"/><use y="30.394" xlink:href="#13"/><use y="32.565" xlink:href="#14"/><use y="34.736" xlink:href="#15"/><use y="36.907" xlink:href="#16"/><use y="39.078" xlink:href="#17"/><use y="41.249" xlink:href="#18"/><use y="43.42" xlink:href="#19"/></svg><svg x="1360"><use xlink:href="#a"/><use y="0" xlink:href="#1"/><use y="2.171" xlink:href="#2"/><use y="4.342" xlink:href="#3"/><use y="6.513" xlink:href="#4"/><use y="8.684" xlink:href="#5"/><use y="10.855" xlink:href="#6"/><use y="13.026" xlink:href="#7"/><use y="17.368" xlink:href="#8"/><use y="21.71" xlink:href="#9"/><use y="23.881" xlink:href="#10"/><use y="26.052" xlink:href="#11"/><use y="28.223" xlink:href="#12"/><use y="30.394" xlink:href="#13"/><use y="32.565" xlink:href="#14"/><use y="34.736" xlink:href="#15"/><use y="36.907" xlink:href="#16"/><use y="39.078" xlink:href="#17"/><use y="41.249" xlink:href="#18"/><use y="43.42" xlink:href="#19"/><use y="45.591" xlink:href="#20"/></svg><svg x="1440"><use xlink:href="#a"/><use y="0" xlink:href="#1"/><use y="2.171" xlink:href="#2"/><use y="4.342" xlink:href="#3"/><use y="6.513" xlink:href="#4"/><use y="8.684" xlink:href="#5"/><use y="10.855" xlink:href="#6"/><use y="13.026" xlink:href="#7"/><use y="17.368" xlink:href="#8"/><use y="21.71" xlink:href="#9"/><use y="23.881" xlink:href="#10"/><use y="26.052" xlink:href="#11"/><use y="28.223" xlink:href="#12"/><use y="30.394" xlink:href="#13"/><use y="32.565" xlink:href="#14"/><use y="34.736" xlink:href="#15"/><use y="36.907" xlink:href="#16"/><use y="39.078" xlink:href="#17"/><use y="41.249" xlink:href="#18"/><use y="43.42" xlink:href="#19"/><use y="45.591" xlink:href="#20"/></svg><svg x="1520"><use xlink:href="#a"/><use y="0" xlink:href="#1"/><use y="2.171" xlink:href="#2"/><use y="4.342" xlink:href="#3"/><use y="6.513" xlink:href="#4"/><use y="8.684" xlink:href="#5"/><use y="10.855" xlink:href="#6"/><use y="13.026" xlink:href="#7"/><use y="17.368" xlink:href="#8"/><use y="21.71" xlink:href="#9"/><use y="23.881" xlink:href="#10"/><use y="26.052" xlink:href="#11"/><use y="28.223" xlink:href="#12"/><use y="30.394" xlink:href="#13"/><use y="32.565" xlink:href="#14"/><use y="34.736" xlink:href="#15"/><use y="36.907" xlink:href="#16"/><use y="39.078" xlink:href="#17"/><use y="41.249" xlink:href="#18"/><use y="43.42" xlink:href="#19"/><use y="45.591" xlink:href="#20"/><use y="47.762" xlink:href="#21"/></svg><svg x="1600"><use xlink:href="#a"/><use y="0" xlink:href="#1"/><use y="2.171" xlink:href="#2"/><use y="4.342" xlink:href="#3"/><use y="6.513" xlink:href="#4"/><use y="8.684" xlink:href="#5"/><use y="10.855" xlink:href="#6"/><use y="13.026" xlink:href="#7"/><use y="17.368" xlink:href="#8"/><use y="21.71" xlink:href="#9"/><use y="23.881" xlink:href="#10"/><use y="26.052" xlink:href="#11"/><use y="28.223" xlink:href="#12"/><use y="30.394" xlink:href="#13"/><use y="32.565" xlink:href="#14"/><use y="34.736" xlink:href="#15"/><use y="36.907" xlink:href="#16"/><use y="39.078" xlink:href="#17"/><use y="41.249" xlink:href="#18"/><use y="43.42" xlink:href="#19"/><use y="45.591" xlink:href="#20"/><use y="47.762" xlink:href="#21"/></svg><svg x="1680"><use xlink:href="#a"/><use y="0" xlink:href="#1"/><use y="2.171" xlink:href="#2"/><use y="4.342" xlink:href="#3"/><use y="6.513" xlink:href="#4"/><use y="8.684" xlink:href="#5"/><use y="10.855" xlink:href="#6"/><use y="13.026" xlink:href="#7"/><use y="17.368" xlink:href="#8"/><use y="21.71" xlink:href="#9"/><use y="23.881" xlink:href="#10"/><use y="26.052" xlink:href="#11"/><use y="28.223" xlink:href="#12"/><use y="30.394" xlink:href="#13"/><use y="32.565" xlink:href="#14"/><use y="34.736" xlink:href="#15"/><use y="36.907" xlink:href="#16"/><use y="39.078" xlink:href="#17"/><use y="41.249" xlink:href="#18"/><use y="43.42" xlink:href="#19"/><use y="45.591" xlink:href="#20"/><use y="47.762" xlink:href="#21"/><use y="49.933" xlink:href="#22"/></svg><svg x="1760"><use xlink:href="#a"/><use y="0" xlink:href="#2"/><use y="2.171" xlink:href="#3"/><use y="4.342" xlink:href="#4"/><use y="6.513" xlink:href="#5"/><use y="8.684" xlink:href="#6"/><use y="10.855" xlink:href="#7"/><use y="15.197" xlink:href="#8"/><use y="19.539" xlink:href="#9"/><use y="21.71" xlink:href="#10"/><use y="23.881" xlink:href="#11"/><use y="26.052" xlink:href="#12"/><use y="28.223" xlink:href="#13"/><use y="30.394" xlink:href="#14"/><use y="32.565" xlink:href="#15"/><use y="34.736" xlink:href="#16"/><use y="36.907" xlink:href="#17"/><use y="39.078" xlink:href="#18"/><use y="41.249" xlink:href="#19"/><use y="43.42" xlink:href="#20"/><use y="45.591" xlink:href="#21"/><use y="47.762" xlink:href="#22"/></svg><svg x="1840"><use xlink:href="#a"/><use y="0" xlink:href="#2"/><use y="2.171" xlink:href="#3"/><use y="4.342" xlink:href="#4"/><use y="6.513" xlink:href="#5"/><use y="8.684" xlink:href="#6"/><use y="10.855" xlink:href="#7"/><use y="15.197" xlink:href="#8"/><use y="19.539" xlink:href="#9"/><use y="21.71" xlink:href="#10"/><use y="23.881" xlink:href="#11"/><use y="26.052" xlink:href="#12"/><use y="28.223" xlink:href="#13"/><use y="30.394" xlink:href="#14"/><use y="32.565" xlink:href="#15"/><use y="34.736" xlink:href="#16"/><use y="36.907" xlink:href="#17"/><use y="39.078" xlink:href="#18"/><use y="41.249" xlink:href="#19"/><use y="43.42" xlink:href="#20"/><use y="45.591" xlink:href="#21"/><use y="47.762" xlink:href="#22"/><use y="49.933" xlink:href="#23"/></svg><svg x="1920"><use xlink:href="#a"/><use y="0" xlink:href="#3"/><use y="2.171" xlink:href="#4"/><use y="4.342" xlink:href="#5"/><use y="6.513" xlink:href="#6"/><use y="8.684" xlink:href="#7"/><use y="13.026" xlink:href="#8"/><use y="17.368" xlink:href="#9"/><use y="19.539" xlink:href="#10"/><use y="21.71" xlink:href="#11"/><use y="23.881" xlink:href="#12"/><use y="26.052" xlink:href="#13"/><use y="28.223" xlink:href="#14"/><use y="30.394" xlink:href="#15"/><use y="32.565" xlink:href="#16"/><use y="34.736" xlink:href="#17"/><use y="36.907" xlink:href="#18"/><use y="39.078" xlink:href="#19"/><use y="41.249" xlink:href="#20"/><use y="43.42" xlink:href="#21"/><use y="45.591" xlink:href="#22"/><use y="47.762" xlink:href="#23"/></svg><svg x="2000"><use xlink:href="#a"/><use y="0" xlink:href="#24"/></svg><svg x="2080"><use xlink:href="#a"/><use y="0" xlink:href="#24"/><use y="2.171" xlink:href="#25"/><use y="6.513" xlink:href="#26"/><use y="8.684" xlink:href="#27"/></svg><svg x="2160"><use xlink:href="#a"/><use y="0" xlink:href="#24"/><use y="2.171" xlink:href="#25"/><use y="6.513" xlink:href="#26"/><use y="8.684" xlink:href="#27"/><use y="10.855" xlink:href="#28"/></svg><svg x="2240"><use xlink:href="#a"/><use y="0" xlink:href="#24"/><use y="2.171" xlink:href="#25"/><use y="6.513" xlink:href="#26"/><use y="8.684" xlink:href="#27"/><use y="10.855" xlink:href="#28"/><use y="13.026" xlink:href="#29"/></svg><svg x="2320"><use xlink:href="#a"/><use y="0" xlink:href="#24"/><use y="2.171" xlink:href="#25"/><use y="6.513" xlink:href="#26"/><use y="8.684" xlink:href="#27"/><use y="10.855" xlink:href="#28"/><use y="13.026" xlink:href="#29"/><use y="15.197" xlink:href="#30"/></svg><svg x="2400"><use xlink:href="#a"/><use y="0" xlink:href="#24"/><use y="2.171" xlink:href="#25"/><use y="6.513" xlink:href="#26"/><use y="8.684" xlink:href="#27"/><use y="10.855" xlink:href="#28"/><use y="13.026" xlink:href="#29"/><use y="15.197" xlink:href="#30"/><use y="17.368" xlink:href="#31"/></svg><svg x="2480"><use xlink:href="#a"/><use y="0" xlink:href="#24"/><use y="2.171" xlink:href="#25"/><use y="6.513" xlink:href="#26"/><use y="8.684" xlink:href="#27"/><use y="10.855" xlink:href="#28"/><use y="13.026" xlink:href="#29"/><use y="15.197" xlink:href="#30"/><use y="17.368" xlink:href="#31"/><use y="19.539" xlink:href="#32"/></svg><svg x="2560"><use xlink:href="#a"/><use y="0" xlink:href="#24"/><use y="2.171" xlink:href="#25"/><use y="6.513" xlink:href="#26"/><use y="8.684" xlink:href="#27"/><use y="10.855" xlink:href="#28"/><use y="13.026" xlink:href="#29"/><use y="15.197" xlink:href="#30"/><use y="17.368" xlink:href="#31"/><use y="19.539" xlink:href="#32"/><use y="21.71" xlink:href="#33"/></svg><svg x="2640"><use xlink:href="#a"/><use y="0" xlink:href="#24"/><use y="2.171" xlink:href="#25"/><use y="6.513" xlink:href="#26"/><use y="8.684" xlink:href="#27"/><use y="10.855" xlink:href="#28"/><use y="13.026" xlink:href="#29"/><use y="15.197" xlink:href="#30"/><use y="17.368" xlink:href="#31"/><use y="19.539" xlink:href="#32"/><use y="21.71" xlink:href="#33"/><use y="23.881" xlink:href="#34"/></svg><svg x="2720"><use xlink:href="#a"/><use y="0" xlink:href="#24"/><use y="2.171" xlink:href="#25"/><use y="6.513" xlink:href="#26"/><use y="8.684" xlink:href="#27"/><use y="10.855" xlink:href="#28"/><use y="13.026" xlink:href="#29"/><use y="15.197" xlink:href="#30"/><use y="17.368" xlink:href="#31"/><use y="19.539" xlink:href="#32"/><use y="21.71" xlink:href="#33"/><use y="23.881" xlink:href="#34"/><use y="26.052" xlink:href="#35"/></svg><svg x="2800"><use xlink:href="#a"/><use y="0" xlink:href="#24"/><use y="2.171" xlink:href="#25"/><use y="6.513" xlink:href="#26"/><use y="8.684" xlink:href="#27"/><use y="10.855" xlink:href="#28"/><use y="13.026" xlink:href="#29"/><use y="15.197" xlink:href="#30"/><use y="17.368" xlink:href="#31"/><use y="19.539" xlink:href="#32"/><use y="21.71" xlink:href="#33"/><use y="23.881" xlink:href="#34"/><use y="26.052" xlink:href="#35"/><use y="28.223" xlink:href="#36"/><use y="30.394" xlink:href="#37"/></svg><svg x="2880"><use xlink:href="#a"/><use y="0" xlink:href="#24"/><use y="2.171" xlink:href="#25"/><use y="6.513" xlink:href="#26"/><use y="8.684" xlink:href="#27"/><use y="10.855" xlink:href="#28"/><use y="13.026" xlink:href="#29"/><use y="15.197" xlink:href="#30"/><use y="17.368" xlink:href="#31"/><use y="19.539" xlink:href="#32"/><use y="21.71" xlink:href="#33"/><use y="23.881" xlink:href="#34"/><use y="26.052" xlink:href="#35"/><use y="28.223" xlink:href="#36"/><use y="30.394" xlink:href="#37"/><use y="32.565" xlink:href="#38"/></svg><svg x="2960"><use xlink:href="#a"/><use y="0" xlink:href="#24"/><use y="2.171" xlink:href="#25"/><use y="6.513" xlink:href="#26"/><use y="8.684" xlink:href="#27"/><use y="10.855" xlink:href="#28"/><use y="13.026" xlink:href="#29"/><use y="15.197" xlink:href="#30"/><use y="17.368" xlink:href="#31"/><use y="19.539" xlink:href="#32"/><use y="21.71" xlink:href="#33"/><use y="23.881" xlink:href="#34"/><use y="26.052" xlink:href="#35"/><use y="28.223" xlink:href="#36"/><use y="30.394" xlink:href="#37"/><use y="32.565" xlink:href="#38"/><use y="34.736" xlink:href="#39"/></svg><svg x="3040"><use xlink:href="#a"/><use y="0" xlink:href="#24"/><use y="2.171" xlink:href="#25"/><use y="6.513" xlink:href="#26"/><use y="8.684" xlink:href="#27"/><use y="10.855" xlink:href="#28"/><use y="13.026" xlink:href="#29"/><use y="15.197" xlink:href="#30"/><use y="17.368" xlink:href="#31"/><use y="19.539" xlink:href="#32"/><use y="21.71" xlink:href="#33"/><use y="23.881" xlink:href="#34"/><use y="26.052" xlink:href="#35"/><use y="28.223" xlink:href="#36"/><use y="30.394" xlink:href="#37"/><use y="32.565" xlink:href="#38"/><use y="34.736" xlink:href="#39"/></svg><svg x="3120"><use xlink:href="#a"/><use y="0" xlink:href="#24"/><use y="2.171" xlink:href="#25"/><use y="6.513" xlink:href="#26"/><use y="8.684" xlink:href="#27"/><use y="10.855" xlink:href="#28"/><use y="13.026" xlink:href="#29"/><use y="15.197" xlink:href="#30"/><use y="17.368" xlink:href="#31"/><use y="19.539" xlink:href="#32"/><use y="21.71" xlink:href="#33"/><use y="23.881" xlink:href="#34"/><use y="26.052" xlink:href="#35"/><use y="28.223" xlink:href="#36"/><use y="30.394" xlink:href="#37"/><use y="32.565" xlink:href="#38"/><use y="34.736" xlink:href="#39"/><use y="41.249" xlink:href="#40"/></svg><svg x="3200"><use xlink:href="#a"/><use y="0" xlink:href="#34"/><use y="2.171" xlink:href="#35"/><use y="4.342" xlink:href="#36"/><use y="6.513" xlink:href="#37"/><use y="8.684" xlink:href="#38"/><use y="10.855" xlink:href="#39"/><use y="17.368" xlink:href="#40"/><use y="21.71" xlink:href="#41"/><use y="23.881" xlink:href="#42"/><use y="26.052" xlink:href="#43"/><use y="28.223" xlink:href="#44"/><use y="30.394" xlink:href="#45"/><use y="32.565" xlink:href="#46"/><use y="34.736" xlink:href="#47"/><use y="36.907" xlink:href="#48"/><use y="39.078" xlink:href="#49"/><use y="41.249" xlink:href="#50"/><use y="43.42" xlink:href="#51"/><use y="45.591" xlink:href="#52"/><use y="47.762" xlink:href="#53"/></svg><svg x="3280"><use xlink:href="#a"/><use y="0" xlink:href="#37"/><use y="2.171" xlink:href="#38"/><use y="4.342" xlink:href="#39"/><use y="10.855" xlink:href="#40"/><use y="15.197" xlink:href="#41"/><use y="17.368" xlink:href="#42"/><use y="19.539" xlink:href="#43"/><use y="21.71" xlink:href="#44"/><use y="23.881" xlink:href="#45"/><use y="26.052" xlink:href="#46"/><use y="28.223" xlink:href="#47"/><use y="30.394" xlink:href="#48"/><use y="32.565" xlink:href="#49"/><use y="34.736" xlink:href="#50"/><use y="36.907" xlink:href="#51"/><use y="39.078" xlink:href="#52"/><use y="41.249" xlink:href="#53"/><text x="0" y="47.261" class="f">#</text><text x="2.004" y="47.261" class="f">Tree</text><text x="7.014" y="47.261" class="f">Printer</text></svg><svg x="3360"><use xlink:href="#a"/><text x="0" y="3.841" class="f">└─┬C:</text><text x="2.004" y="6.012" class="f">├──Go</text><use y="6.513" xlink:href="#54"/><use y="8.684" xlink:href="#55"/><use y="10.855" xlink:href="#56"/><use y="13.026" xlink:href="#57"/><use y="15.197" xlink:href="#58"/><use y="17.368" xlink:href="#59"/><use y="19.539" xlink:href="#60"/><use y="21.71" xlink:href="#61"/><use y="23.881" xlink:href="#62"/><use y="26.052" xlink:href="#63"/><use y="28.223" xlink:href="#64"/><use y="30.394" xlink:href="#65"/><use y="32.565" xlink:href="#66"/><use y="34.736" xlink:href="#67"/><use y="36.907" xlink:href="#68"/><use y="39.078" xlink:href="#69"/><use y="41.249" xlink:href="#70"/><use y="43.42" xlink:href="#71"/><use y="45.591" xlink:href="#72"/></svg><svg x="3440"><use xlink:href="#a"/><use y="0" xlink:href="#54"/><use y="2.171" xlink:href="#55"/><use y="4.342" xlink:href="#56"/><use y="6.513" xlink:href="#57"/><use y="8.684" xlink:href="#58"/><use y="10.855" xlink:href="#59"/><use y="13.026" xlink:href="#60"/><use y="15.197" xlink:href="#61"/><use y="17.368" xlink:href="#62"/><use y="19.539" xlink:href="#63"/><use y="21.71" xlink:href="#64"/><use y="23.881" xlink:href="#65"/><use y="26.052" xlink:href="#66"/><use y="28.223" xlink:href="#67"/><use y="30.394" xlink:href="#68"/><use y="32.565" xlink:href="#69"/><use y="34.736" xlink:href="#70"/><use y="36.907" xlink:href="#71"/><use y="39.078" xlink:href="#72"/><use y="45.591" xlink:href="#73"/></svg><svg x="3520"><use xlink:href="#a"/><use y="0" xlink:href="#56"/><use y="2.171" xlink:href="#57"/><use y="4.342" xlink:href="#58"/><use y="6.513" xlink:href="#59"/><use y="8.684" xlink:href="#60"/><use y="10.855" xlink:href="#61"/><use y="13.026" xlink:href="#62"/><use y="15.197" xlink:href="#63"/><use y="17.368" xlink:href="#64"/><use y="19.539" xlink:href="#65"/><use y="21.71" xlink:href="#66"/><use y="23.881" xlink:href="#67"/><use y="26.052" xlink:href="#68"/><use y="28.223" xlink:href="#69"/><use y="30.394" xlink:href="#70"/><use y="32.565" xlink:href="#71"/><use y="34.736" xlink:href="#72"/><use y="41.249" xlink:href="#73"/><use y="45.591" xlink:href="#74"/><use y="47.762" xlink:href="#75"/></svg><svg x="3600"><use xlink:href="#a"/><use y="0" xlink:href="#62"/><use y="2.171" xlink:href="#63"/><use y="4.342" xlink:href="#64"/><use y="6.513" xlink:href="#65"/><use y="8.684" xlink:href="#66"/><use y="10.855" xlink:href="#67"/><use y="13.026" xlink:href="#68"/><use y="15.197" xlink:href="#69"/><use y="17.368" xlink:href="#70"/><use y="19.539" xlink:href="#71"/><use y="21.71" xlink:href="#72"/><use y="28.223" xlink:href="#73"/><use y="32.565" xlink:href="#74"/><use y="34.736" xlink:href="#75"/><use y="39.078" xlink:href="#76"/><use y="43.42" xlink:href="#77"/><use y="45.591" xlink:href="#78"/></svg><svg x="3680"><use xlink:href="#a"/><use y="0" xlink:href="#64"/><use y="2.171" xlink:href="#65"/><use y="4.342" xlink:href="#66"/><use y="6.513" xlink:href="#67"/><use y="8.684" xlink:href="#68"/><use y="10.855" xlink:href="#69"/><use y="13.026" xlink:href="#70"/><use y="15.197" xlink:href="#71"/><use y="17.368" xlink:href="#72"/><use y="23.881" xlink:href="#73"/><use y="28.223" xlink:href="#74"/><use y="30.394" xlink:href="#75"/><use y="34.736" xlink:href="#76"/><use y="39.078" xlink:href="#77"/><use y="41.249" xlink:href="#78"/><text x="0" y="49.432" class="f">Restarting</text><text x="11.022" y="49.432" class="f">animation...</text></svg></svg></g></g></svg></svg>