<svg xmlns="http://www.w3.org/2000/svg" xmlns:xlink="http://www.w3.org/1999/xlink" width="840" height="581.04"><rect width="840" height="581.04" class="a" rx="5" ry="5"/><svg x="0%" y="0%"><circle cx="20" cy="20" r="6" class="b"/><circle cx="40" cy="20" r="6" class="c"/><circle cx="60" cy="20" r="6" class="d"/></svg><svg xmlns="http://www.w3.org/2000/svg" xmlns:xlink="http://www.w3.org/1999/xlink" width="800" height="521.04" x="15" y="50" viewBox="0 0 80 52.104"><style>@keyframes r{0%{transform:translateX(0)}8.1%{transform:translateX(-80px)}}.e,.f,.g{font-family:&apos;Courier New&apos; Roboto,Helvetica,Arial,sans-serif,&apos;Apple Color Emoji&apos;,&apos;Segoe UI Emoji&apos;!important}.a{fill:#232323}.b{fill:#ff5f58}.c{fill:#ffbd2e}.d{fill:#18c132}.f{fill:#6f7783}.g,.h{white-space:pre}.h{fill:#686868}.i{fill:#66c2cd}.j{fill:#7ee7e9;white-space:pre}.k{fill:#a8cc8c}.l{fill:#7cff00;white-space:pre}.m{fill:#dbab79}.n{fill:#fff100;white-space:pre}.o{fill:#e88388}.p{fill:#f35656;white-space:pre}.q{fill:transparent}.s{animation-duration:5.440313s;animation-iteration-count:infinite;animation-name:r;animation-timing-function:steps(1,end)}.t{fill:#a0a0a0;white-space:pre}</style><g class="e" font-family="'JetBrainsMono',Monaco, Consolas, Menlo, 'Bitstream Vera Sans Mono', 'Powerline Symbols', monospace" font-size="1.67"><defs><symbol id="1"><rect width="9" height="2.171" x="0" y="0" class="f"/><text x="0" y="1.67" class="g">DEBUG</text><text x="10.02" y="1.67" class="h">Hello,</text><text x="17.034" y="1.67" class="h">World!</text></symbol><symbol id="2"><rect width="6" height="2.171" x="0" y="0" class="i"/><text x="0" y="1.67" class="g">INFO</text><text x="7.014" y="1.67" class="j">Hello,</text><text x="14.028" y="1.67" class="j">World!</text></symbol><symbol id="3"><rect width="9" height="2.171" x="0" y="0" class="k"/><text x="0" y="1.67" class="g">SUCCESS</text><text x="10.02" y="1.67" class="l">Hello,</text><text x="17.034" y="1.67" class="l">World!</text></symbol><symbol id="4"><rect width="9" height="2.171" x="0" y="0" class="m"/><text x="0" y="1.67" class="g">WARNING</text><text x="10.02" y="1.67" class="n">Hello,</text><text x="17.034" y="1.67" class="n">World!</text></symbol><symbol id="5"><rect width="9" height="2.171" x="0" y="0" class="o"/><text x="0" y="1.67" class="g">ERROR</text><text x="10.02" y="1.67" class="p">Errors</text><text x="17.034" y="1.67" class="p">show</text><text x="22.044" y="1.67" class="p">the</text><text x="26.052" y="1.67" class="p">filename</text><text x="35.07" y="1.67" class="p">and</text><text x="39.078" y="1.67" class="p">linenumber</text><text x="50.1" y="1.67" class="p">inside</text><text x="57.114" y="1.67" class="p">the</text><text x="61.122" y="1.67" class="p">terminal!</text></symbol><symbol id="6"><text x="0" y="1.67" class="h">└</text><text x="2.004" y="1.67" class="h">(/github/workspace/_examples/prefix/main.go:13)</text></symbol><symbol id="7"><rect width="6" height="2.171" x="0" y="0" class="i"/><text x="0" y="1.67" class="g">INFO</text><text x="7.014" y="1.67" class="j">Other</text><text x="13.026" y="1.67" class="j">PrefixPrinters</text><text x="28.056" y="1.67" class="j">can</text><text x="32.064" y="1.67" class="j">do</text><text x="35.07" y="1.67" class="j">that</text><text x="40.08" y="1.67" class="j">too!</text></symbol><symbol id="8"><text x="0" y="1.67" class="h">└</text><text x="2.004" y="1.67" class="h">(/github/workspace/_examples/prefix/main.go:14)</text></symbol><symbol id="9"><rect width="9" height="2.171" x="0" y="0" class="o"/><text x="0" y="1.67" class="g">FATAL</text><text x="10.02" y="1.67" class="p">Hello,</text><text x="17.034" y="1.67" class="p">World!</text></symbol><symbol id="a"><rect width="80" height="24" x="0" y="0" class="q"/></symbol></defs><rect width="80" height="52.104" class="a"/><g class="s"><svg width="240" x="0" y="0"><svg x="0"><use xlink:href="#a"/></svg><svg x="80"><use xlink:href="#a"/><use y="0" xlink:href="#1"/><use y="2.171" xlink:href="#2"/><use y="4.342" xlink:href="#3"/><use y="6.513" xlink:href="#4"/><use y="8.684" xlink:href="#5"/><use y="10.855" xlink:href="#6"/><use y="13.026" xlink:href="#7"/><use y="15.197" xlink:href="#8"/><use y="17.368" xlink:href="#9"/></svg><svg x="160"><use xlink:href="#a"/><use y="0" xlink:href="#1"/><use y="2.171" xlink:href="#2"/><use y="4.342" xlink:href="#3"/><use y="6.513" xlink:href="#4"/><use y="8.684" xlink:href="#5"/><use y="10.855" xlink:href="#6"/><use y="13.026" xlink:href="#7"/><use y="15.197" xlink:href="#8"/><use y="17.368" xlink:href="#9"/><text x="0" y="23.38" class="t">Restarting</text><text x="11.022" y="23.38" class="t">animation...</text></svg></svg></g></g></svg></svg>