<svg xmlns="http://www.w3.org/2000/svg" xmlns:xlink="http://www.w3.org/1999/xlink" width="840" height="581.04"><rect width="840" height="581.04" class="a" rx="5" ry="5"/><svg x="0%" y="0%"><circle cx="20" cy="20" r="6" class="b"/><circle cx="40" cy="20" r="6" class="c"/><circle cx="60" cy="20" r="6" class="d"/></svg><svg xmlns="http://www.w3.org/2000/svg" xmlns:xlink="http://www.w3.org/1999/xlink" width="800" height="521.04" x="15" y="50" viewBox="0 0 80 52.104"><style>@keyframes h{0%{transform:translateX(0)}8.2%{transform:translateX(-240px)}}.e,.f,.g{font-family:&apos;Courier New&apos; Roboto,Helvetica,Arial,sans-serif,&apos;Apple Color Emoji&apos;,&apos;Segoe UI Emoji&apos;!important}.a{fill:#232323}.b{fill:#ff5f58}.c{fill:#ffbd2e}.d{fill:#18c132}.f{fill:#a0a0a0;white-space:pre}.g{fill:transparent}.i{animation-duration:5.449474s;animation-iteration-count:infinite;animation-name:h;animation-timing-function:steps(1,end)}</style><g class="e" font-family="'JetBrainsMono',Monaco, Consolas, Menlo, 'Bitstream Vera Sans Mono', 'Powerline Symbols', monospace" font-size="1.67"><defs><symbol id="1"><text x="20.04" y="1.67" class="f">This</text><text x="25.05" y="1.67" class="f">text</text><text x="30.06" y="1.67" class="f">is</text><text x="33.066" y="1.67" class="f">centered!</text></symbol><symbol id="2"><text x="20.04" y="1.67" class="f">It</text><text x="23.046" y="1.67" class="f">centeres</text><text x="32.064" y="1.67" class="f">the</text><text x="36.072" y="1.67" class="f">whole</text><text x="42.084" y="1.67" class="f">block</text><text x="48.096" y="1.67" class="f">by</text><text x="51.102" y="1.67" class="f">default.</text></symbol><symbol id="3"><text x="20.04" y="1.67" class="f">In</text><text x="23.046" y="1.67" class="f">that</text><text x="28.056" y="1.67" class="f">way</text><text x="32.064" y="1.67" class="f">you</text><text x="36.072" y="1.67" class="f">can</text><text x="40.08" y="1.67" class="f">do</text><text x="43.086" y="1.67" class="f">stuff</text><text x="49.098" y="1.67" class="f">like</text><text x="54.108" y="1.67" class="f">this:</text></symbol><symbol id="4"><text x="18.036" y="1.67" class="f">██████</text><text x="26.052" y="1.67" class="f">████████</text><text x="35.07" y="1.67" class="f">███████</text><text x="43.086" y="1.67" class="f">██████</text><text x="51.102" y="1.67" class="f">███</text><text x="58.116" y="1.67" class="f">███</text></symbol><symbol id="5"><text x="18.036" y="1.67" class="f">██</text><text x="23.046" y="1.67" class="f">██</text><text x="29.058" y="1.67" class="f">██</text><text x="35.07" y="1.67" class="f">██</text><text x="43.086" y="1.67" class="f">██</text><text x="48.096" y="1.67" class="f">██</text><text x="51.102" y="1.67" class="f">████</text><text x="57.114" y="1.67" class="f">████</text></symbol><symbol id="6"><text x="18.036" y="1.67" class="f">██████</text><text x="29.058" y="1.67" class="f">██</text><text x="35.07" y="1.67" class="f">█████</text><text x="43.086" y="1.67" class="f">██████</text><text x="51.102" y="1.67" class="f">██</text><text x="54.108" y="1.67" class="f">████</text><text x="59.118" y="1.67" class="f">██</text></symbol><symbol id="7"><text x="18.036" y="1.67" class="f">██</text><text x="29.058" y="1.67" class="f">██</text><text x="35.07" y="1.67" class="f">██</text><text x="43.086" y="1.67" class="f">██</text><text x="48.096" y="1.67" class="f">██</text><text x="51.102" y="1.67" class="f">██</text><text x="55.11" y="1.67" class="f">██</text><text x="59.118" y="1.67" class="f">██</text></symbol><symbol id="8"><text x="18.036" y="1.67" class="f">██</text><text x="29.058" y="1.67" class="f">██</text><text x="35.07" y="1.67" class="f">███████</text><text x="43.086" y="1.67" class="f">██</text><text x="48.096" y="1.67" class="f">██</text><text x="51.102" y="1.67" class="f">██</text><text x="59.118" y="1.67" class="f">██</text></symbol><symbol id="9"><text x="29.058" y="1.67" class="f">This</text><text x="34.068" y="1.67" class="f">text</text><text x="39.078" y="1.67" class="f">is</text><text x="42.084" y="1.67" class="f">centered!</text></symbol><symbol id="10"><text x="32.064" y="1.67" class="f">But</text><text x="36.072" y="1.67" class="f">each</text><text x="41.082" y="1.67" class="f">line</text><text x="46.092" y="1.67" class="f">is</text></symbol><symbol id="11"><text x="36.072" y="1.67" class="f">centered</text></symbol><symbol id="12"><text x="35.07" y="1.67" class="f">separately</text></symbol><symbol id="a"><rect width="80" height="24" x="0" y="0" class="g"/></symbol></defs><rect width="80" height="52.104" class="a"/><g class="i"><svg width="400" x="0" y="0"><svg x="0"><use xlink:href="#a"/></svg><svg x="80"><use xlink:href="#a"/><use y="0" xlink:href="#1"/><use y="2.171" xlink:href="#2"/><use y="4.342" xlink:href="#3"/></svg><svg x="160"><use xlink:href="#a"/><use y="0" xlink:href="#1"/><use y="2.171" xlink:href="#2"/><use y="4.342" xlink:href="#3"/><use y="8.684" xlink:href="#4"/><use y="10.855" xlink:href="#5"/><use y="13.026" xlink:href="#6"/><use y="15.197" xlink:href="#7"/><use y="17.368" xlink:href="#8"/><use y="23.881" xlink:href="#9"/><use y="26.052" xlink:href="#10"/><use y="28.223" xlink:href="#11"/><use y="30.394" xlink:href="#12"/></svg><svg x="240"><use xlink:href="#a"/><use y="0" xlink:href="#1"/><use y="2.171" xlink:href="#2"/><use y="4.342" xlink:href="#3"/><use y="8.684" xlink:href="#4"/><use y="10.855" xlink:href="#5"/><use y="13.026" xlink:href="#6"/><use y="15.197" xlink:href="#7"/><use y="17.368" xlink:href="#8"/><use y="23.881" xlink:href="#9"/><use y="26.052" xlink:href="#10"/><use y="28.223" xlink:href="#11"/><use y="30.394" xlink:href="#12"/></svg><svg x="320"><use xlink:href="#a"/><use y="0" xlink:href="#1"/><use y="2.171" xlink:href="#2"/><use y="4.342" xlink:href="#3"/><use y="8.684" xlink:href="#4"/><use y="10.855" xlink:href="#5"/><use y="13.026" xlink:href="#6"/><use y="15.197" xlink:href="#7"/><use y="17.368" xlink:href="#8"/><use y="23.881" xlink:href="#9"/><use y="26.052" xlink:href="#10"/><use y="28.223" xlink:href="#11"/><use y="30.394" xlink:href="#12"/><text x="0" y="38.577" class="f">Restarting</text><text x="11.022" y="38.577" class="f">animation...</text></svg></svg></g></g></svg></svg>