<svg xmlns="http://www.w3.org/2000/svg" xmlns:xlink="http://www.w3.org/1999/xlink" width="840" height="581.04"><rect width="840" height="581.04" class="a" rx="5" ry="5"/><svg x="0%" y="0%"><circle cx="20" cy="20" r="6" class="b"/><circle cx="40" cy="20" r="6" class="c"/><circle cx="60" cy="20" r="6" class="d"/></svg><svg xmlns="http://www.w3.org/2000/svg" xmlns:xlink="http://www.w3.org/1999/xlink" width="800" height="521.04" x="15" y="50" viewBox="0 0 80 52.104"><style>@keyframes k{0%{transform:translateX(0)}2.8%{transform:translateX(-160px)}9.8%{transform:translateX(-240px)}16.7%{transform:translateX(-320px)}23.7%{transform:translateX(-400px)}30.6%{transform:translateX(-560px)}37.6%{transform:translateX(-640px)}44.5%{transform:translateX(-720px)}51.4%{transform:translateX(-880px)}58.4%{transform:translateX(-960px)}65.3%{transform:translateX(-1120px)}}.e,.f,.g{font-family:&apos;Courier New&apos; Roboto,Helvetica,Arial,sans-serif,&apos;Apple Color Emoji&apos;,&apos;Segoe UI Emoji&apos;!important}.a{fill:#232323}.b{fill:#ff5f58}.c{fill:#ffbd2e}.d{fill:#18c132}.f{fill:#66c2cd}.g,.h,.i{white-space:pre}.h{fill:#7ee7e9}.i{fill:#a0a0a0}.j{fill:transparent}.l{animation-duration:14.417264s;animation-iteration-count:infinite;animation-name:k;animation-timing-function:steps(1,end)}</style><g class="e" font-family="'JetBrainsMono',Monaco, Consolas, Menlo, 'Bitstream Vera Sans Mono', 'Powerline Symbols', monospace" font-size="1.67"><defs><symbol id="1"><rect width="6" height="2.171" x="0" y="0" class="f"/><text x="0" y="1.67" class="g">INFO</text><text x="7.014" y="1.67" class="h">The</text><text x="11.022" y="1.67" class="h">previous</text><text x="20.04" y="1.67" class="h">text</text><text x="25.05" y="1.67" class="h">will</text><text x="30.06" y="1.67" class="h">stay</text><text x="35.07" y="1.67" class="h">in</text><text x="38.076" y="1.67" class="h">place,</text><text x="45.09" y="1.67" class="h">while</text><text x="51.102" y="1.67" class="h">the</text><text x="55.11" y="1.67" class="h">area</text><text x="60.12" y="1.67" class="h">updates.</text></symbol><symbol id="2"><text x="17.034" y="1.67" class="i">██</text><text x="21.042" y="1.67" class="i">██</text><text x="28.056" y="1.67" class="i">██████</text><text x="36.072" y="1.67" class="i">██</text><text x="41.082" y="1.67" class="i">██</text><text x="47.094" y="1.67" class="i">██</text><text x="52.104" y="1.67" class="i">██</text><text x="55.11" y="1.67" class="i">██████</text></symbol><symbol id="3"><text x="16.032" y="1.67" class="i">███</text><text x="20.04" y="1.67" class="i">███</text><text x="24.048" y="1.67" class="i">██</text><text x="27.054" y="1.67" class="i">██</text><text x="31.062" y="1.67" class="i">████</text><text x="36.072" y="1.67" class="i">██</text><text x="41.082" y="1.67" class="i">██</text><text x="44.088" y="1.67" class="i">██</text><text x="47.094" y="1.67" class="i">██</text><text x="52.104" y="1.67" class="i">██</text><text x="60.12" y="1.67" class="i">██</text></symbol><symbol id="4"><text x="17.034" y="1.67" class="i">██</text><text x="21.042" y="1.67" class="i">██</text><text x="27.054" y="1.67" class="i">██</text><text x="30.06" y="1.67" class="i">██</text><text x="33.066" y="1.67" class="i">██</text><text x="36.072" y="1.67" class="i">███████</text><text x="47.094" y="1.67" class="i">███████</text><text x="56.112" y="1.67" class="i">█████</text></symbol><symbol id="5"><text x="17.034" y="1.67" class="i">██</text><text x="21.042" y="1.67" class="i">██</text><text x="24.048" y="1.67" class="i">██</text><text x="28.056" y="1.67" class="i">██████</text><text x="41.082" y="1.67" class="i">██</text><text x="44.088" y="1.67" class="i">██</text><text x="52.104" y="1.67" class="i">██</text><text x="55.11" y="1.67" class="i">███████</text></symbol><symbol id="6"><text x="17.034" y="1.67" class="i">██</text><text x="21.042" y="1.67" class="i">██</text><text x="27.054" y="1.67" class="i">████</text><text x="33.066" y="1.67" class="i">██</text><text x="41.082" y="1.67" class="i">██</text><text x="52.104" y="1.67" class="i">██</text><text x="60.12" y="1.67" class="i">██</text></symbol><symbol id="7"><text x="17.034" y="1.67" class="i">██</text><text x="21.042" y="1.67" class="i">██</text><text x="28.056" y="1.67" class="i">██████</text><text x="36.072" y="1.67" class="i">██</text><text x="41.082" y="1.67" class="i">██</text><text x="47.094" y="1.67" class="i">██</text><text x="52.104" y="1.67" class="i">██</text><text x="55.11" y="1.67" class="i">██</text><text x="60.12" y="1.67" class="i">██</text></symbol><symbol id="8"><text x="16.032" y="1.67" class="i">███</text><text x="20.04" y="1.67" class="i">███</text><text x="24.048" y="1.67" class="i">██</text><text x="27.054" y="1.67" class="i">██</text><text x="31.062" y="1.67" class="i">████</text><text x="36.072" y="1.67" class="i">██</text><text x="41.082" y="1.67" class="i">██</text><text x="44.088" y="1.67" class="i">██</text><text x="47.094" y="1.67" class="i">██</text><text x="52.104" y="1.67" class="i">██</text><text x="55.11" y="1.67" class="i">██</text><text x="60.12" y="1.67" class="i">██</text></symbol><symbol id="9"><text x="17.034" y="1.67" class="i">██</text><text x="21.042" y="1.67" class="i">██</text><text x="27.054" y="1.67" class="i">██</text><text x="30.06" y="1.67" class="i">██</text><text x="33.066" y="1.67" class="i">██</text><text x="36.072" y="1.67" class="i">███████</text><text x="47.094" y="1.67" class="i">███████</text><text x="55.11" y="1.67" class="i">███████</text></symbol><symbol id="10"><text x="17.034" y="1.67" class="i">██</text><text x="21.042" y="1.67" class="i">██</text><text x="28.056" y="1.67" class="i">██████</text><text x="36.072" y="1.67" class="i">██</text><text x="41.082" y="1.67" class="i">██</text><text x="47.094" y="1.67" class="i">██</text><text x="52.104" y="1.67" class="i">██</text><text x="55.11" y="1.67" class="i">███████</text></symbol><symbol id="11"><text x="16.032" y="1.67" class="i">███</text><text x="20.04" y="1.67" class="i">███</text><text x="24.048" y="1.67" class="i">██</text><text x="27.054" y="1.67" class="i">██</text><text x="31.062" y="1.67" class="i">████</text><text x="36.072" y="1.67" class="i">██</text><text x="41.082" y="1.67" class="i">██</text><text x="44.088" y="1.67" class="i">██</text><text x="47.094" y="1.67" class="i">██</text><text x="52.104" y="1.67" class="i">██</text><text x="55.11" y="1.67" class="i">██</text></symbol><symbol id="12"><text x="17.034" y="1.67" class="i">██</text><text x="21.042" y="1.67" class="i">██</text><text x="28.056" y="1.67" class="i">██████</text><text x="36.072" y="1.67" class="i">██</text><text x="41.082" y="1.67" class="i">██</text><text x="47.094" y="1.67" class="i">██</text><text x="52.104" y="1.67" class="i">██</text><text x="56.112" y="1.67" class="i">█████</text></symbol><symbol id="13"><text x="17.034" y="1.67" class="i">██</text><text x="21.042" y="1.67" class="i">██</text><text x="24.048" y="1.67" class="i">██</text><text x="28.056" y="1.67" class="i">██████</text><text x="41.082" y="1.67" class="i">██</text><text x="44.088" y="1.67" class="i">██</text><text x="52.104" y="1.67" class="i">██</text><text x="56.112" y="1.67" class="i">█████</text></symbol><symbol id="14"><text x="17.034" y="1.67" class="i">██</text><text x="21.042" y="1.67" class="i">██</text><text x="28.056" y="1.67" class="i">██████</text><text x="36.072" y="1.67" class="i">██</text><text x="41.082" y="1.67" class="i">██</text><text x="47.094" y="1.67" class="i">███████</text><text x="56.112" y="1.67" class="i">██████</text></symbol><symbol id="15"><text x="16.032" y="1.67" class="i">███</text><text x="20.04" y="1.67" class="i">███</text><text x="24.048" y="1.67" class="i">██</text><text x="27.054" y="1.67" class="i">██</text><text x="31.062" y="1.67" class="i">████</text><text x="36.072" y="1.67" class="i">██</text><text x="41.082" y="1.67" class="i">██</text><text x="44.088" y="1.67" class="i">██</text><text x="47.094" y="1.67" class="i">██</text><text x="55.11" y="1.67" class="i">██</text><text x="59.118" y="1.67" class="i">████</text></symbol><symbol id="16"><text x="17.034" y="1.67" class="i">██</text><text x="21.042" y="1.67" class="i">██</text><text x="27.054" y="1.67" class="i">██</text><text x="30.06" y="1.67" class="i">██</text><text x="33.066" y="1.67" class="i">██</text><text x="36.072" y="1.67" class="i">███████</text><text x="47.094" y="1.67" class="i">███████</text><text x="55.11" y="1.67" class="i">██</text><text x="58.116" y="1.67" class="i">██</text><text x="61.122" y="1.67" class="i">██</text></symbol><symbol id="17"><text x="17.034" y="1.67" class="i">██</text><text x="21.042" y="1.67" class="i">██</text><text x="27.054" y="1.67" class="i">████</text><text x="33.066" y="1.67" class="i">██</text><text x="41.082" y="1.67" class="i">██</text><text x="52.104" y="1.67" class="i">██</text><text x="55.11" y="1.67" class="i">████</text><text x="61.122" y="1.67" class="i">██</text></symbol><symbol id="18"><text x="17.034" y="1.67" class="i">██</text><text x="21.042" y="1.67" class="i">██</text><text x="24.048" y="1.67" class="i">██</text><text x="28.056" y="1.67" class="i">██████</text><text x="41.082" y="1.67" class="i">██</text><text x="44.088" y="1.67" class="i">██</text><text x="47.094" y="1.67" class="i">███████</text><text x="56.112" y="1.67" class="i">██████</text></symbol><symbol id="a"><rect width="80" height="24" x="0" y="0" class="j"/></symbol></defs><rect width="80" height="52.104" class="a"/><g class="l"><svg width="1280" x="0" y="0"><svg x="0"><use xlink:href="#a"/></svg><svg x="80"><use xlink:href="#a"/><use y="0" xlink:href="#1"/></svg><svg x="160"><use xlink:href="#a"/><use y="0" xlink:href="#1"/><text x="19.038" y="8.183" class="i">██</text><text x="23.046" y="8.183" class="i">██</text><text x="30.06" y="8.183" class="i">██████</text><text x="38.076" y="8.183" class="i">██</text><text x="43.086" y="8.183" class="i">██</text><text x="49.098" y="8.183" class="i">██</text><text x="54.108" y="8.183" class="i">██</text><text x="58.116" y="8.183" class="i">██</text><text x="18.036" y="10.354" class="i">███</text><text x="22.044" y="10.354" class="i">███</text><text x="26.052" y="10.354" class="i">██</text><text x="29.058" y="10.354" class="i">██</text><text x="33.066" y="10.354" class="i">████</text><text x="38.076" y="10.354" class="i">██</text><text x="43.086" y="10.354" class="i">██</text><text x="46.092" y="10.354" class="i">██</text><text x="49.098" y="10.354" class="i">██</text><text x="54.108" y="10.354" class="i">██</text><text x="57.114" y="10.354" class="i">███</text><text x="19.038" y="12.525" class="i">██</text><text x="23.046" y="12.525" class="i">██</text><text x="29.058" y="12.525" class="i">██</text><text x="32.064" y="12.525" class="i">██</text><text x="35.07" y="12.525" class="i">██</text><text x="38.076" y="12.525" class="i">███████</text><text x="49.098" y="12.525" class="i">███████</text><text x="58.116" y="12.525" class="i">██</text><text x="19.038" y="14.696" class="i">██</text><text x="23.046" y="14.696" class="i">██</text><text x="29.058" y="14.696" class="i">████</text><text x="35.07" y="14.696" class="i">██</text><text x="43.086" y="14.696" class="i">██</text><text x="54.108" y="14.696" class="i">██</text><text x="58.116" y="14.696" class="i">██</text><text x="19.038" y="16.867" class="i">██</text><text x="23.046" y="16.867" class="i">██</text><text x="26.052" y="16.867" class="i">██</text><text x="30.06" y="16.867" class="i">██████</text><text x="43.086" y="16.867" class="i">██</text><text x="46.092" y="16.867" class="i">██</text><text x="54.108" y="16.867" class="i">██</text><text x="58.116" y="16.867" class="i">██</text></svg><svg x="240"><use xlink:href="#a"/><use y="0" xlink:href="#1"/><use y="6.513" xlink:href="#2"/><use y="8.684" xlink:href="#3"/><use y="10.855" xlink:href="#4"/><text x="17.034" y="14.696" class="i">██</text><text x="21.042" y="14.696" class="i">██</text><text x="27.054" y="14.696" class="i">████</text><text x="33.066" y="14.696" class="i">██</text><text x="41.082" y="14.696" class="i">██</text><text x="52.104" y="14.696" class="i">██</text><text x="55.11" y="14.696" class="i">██</text><use y="15.197" xlink:href="#5"/></svg><svg x="320"><use xlink:href="#a"/><use y="0" xlink:href="#1"/><use y="6.513" xlink:href="#2"/><use y="8.684" xlink:href="#3"/><use y="10.855" xlink:href="#4"/><use y="13.026" xlink:href="#6"/><text x="17.034" y="16.867" class="i">██</text><text x="21.042" y="16.867" class="i">██</text><text x="24.048" y="16.867" class="i">██</text><text x="28.056" y="16.867" class="i">██████</text><text x="41.082" y="16.867" class="i">██</text><text x="44.088" y="16.867" class="i">██</text><text x="52.104" y="16.867" class="i">██</text><text x="55.11" y="16.867" class="i">██████</text></svg><svg x="400"><use xlink:href="#a"/><use y="0" xlink:href="#1"/><use y="6.513" xlink:href="#7"/><use y="8.684" xlink:href="#8"/><use y="10.855" xlink:href="#9"/><use y="13.026" xlink:href="#6"/><text x="17.034" y="16.867" class="i">██</text><text x="21.042" y="16.867" class="i">██</text><text x="24.048" y="16.867" class="i">██</text><text x="28.056" y="16.867" class="i">██████</text><text x="41.082" y="16.867" class="i">██</text><text x="44.088" y="16.867" class="i">██</text><text x="52.104" y="16.867" class="i">██</text><text x="60.12" y="16.867" class="i">██</text></svg><svg x="480"><use xlink:href="#a"/><use y="0" xlink:href="#1"/><use y="6.513" xlink:href="#7"/><use y="8.684" xlink:href="#8"/><use y="10.855" xlink:href="#9"/></svg><svg x="560"><use xlink:href="#a"/><use y="0" xlink:href="#1"/><use y="6.513" xlink:href="#10"/><use y="8.684" xlink:href="#11"/><use y="10.855" xlink:href="#9"/><use y="13.026" xlink:href="#6"/><use y="15.197" xlink:href="#5"/></svg><svg x="640"><use xlink:href="#a"/><use y="0" xlink:href="#1"/><text x="17.034" y="8.183" class="i">██</text><text x="21.042" y="8.183" class="i">██</text><text x="28.056" y="8.183" class="i">██████</text><text x="36.072" y="8.183" class="i">██</text><text x="41.082" y="8.183" class="i">██</text><text x="47.094" y="8.183" class="i">██</text><text x="52.104" y="8.183" class="i">██</text><text x="56.112" y="8.183" class="i">██████</text><use y="8.684" xlink:href="#11"/><use y="10.855" xlink:href="#9"/><text x="17.034" y="14.696" class="i">██</text><text x="21.042" y="14.696" class="i">██</text><text x="27.054" y="14.696" class="i">████</text><text x="33.066" y="14.696" class="i">██</text><text x="41.082" y="14.696" class="i">██</text><text x="52.104" y="14.696" class="i">██</text><text x="55.11" y="14.696" class="i">██</text><text x="61.122" y="14.696" class="i">██</text><text x="17.034" y="16.867" class="i">██</text><text x="21.042" y="16.867" class="i">██</text><text x="24.048" y="16.867" class="i">██</text><text x="28.056" y="16.867" class="i">██████</text><text x="41.082" y="16.867" class="i">██</text><text x="44.088" y="16.867" class="i">██</text><text x="52.104" y="16.867" class="i">██</text><text x="56.112" y="16.867" class="i">██████</text></svg><svg x="720"><use xlink:href="#a"/><use y="0" xlink:href="#1"/><use y="6.513" xlink:href="#10"/><use y="8.684" xlink:href="#3"/><text x="17.034" y="12.525" class="i">██</text><text x="21.042" y="12.525" class="i">██</text><text x="27.054" y="12.525" class="i">██</text><text x="30.06" y="12.525" class="i">██</text><text x="33.066" y="12.525" class="i">██</text><text x="36.072" y="12.525" class="i">███████</text><text x="47.094" y="12.525" class="i">███████</text><text x="59.118" y="12.525" class="i">██</text><text x="17.034" y="14.696" class="i">██</text><text x="21.042" y="14.696" class="i">██</text><text x="27.054" y="14.696" class="i">████</text><text x="33.066" y="14.696" class="i">██</text><text x="41.082" y="14.696" class="i">██</text><text x="52.104" y="14.696" class="i">██</text><text x="58.116" y="14.696" class="i">██</text><text x="17.034" y="16.867" class="i">██</text><text x="21.042" y="16.867" class="i">██</text><text x="24.048" y="16.867" class="i">██</text><text x="28.056" y="16.867" class="i">██████</text><text x="41.082" y="16.867" class="i">██</text><text x="44.088" y="16.867" class="i">██</text><text x="52.104" y="16.867" class="i">██</text><text x="58.116" y="16.867" class="i">██</text></svg><svg x="800"><use xlink:href="#a"/><use y="0" xlink:href="#1"/></svg><svg x="880"><use xlink:href="#a"/><use y="0" xlink:href="#1"/><use y="6.513" xlink:href="#12"/><use y="8.684" xlink:href="#8"/><use y="10.855" xlink:href="#4"/><text x="17.034" y="14.696" class="i">██</text><text x="21.042" y="14.696" class="i">██</text><text x="27.054" y="14.696" class="i">████</text><text x="33.066" y="14.696" class="i">██</text><text x="41.082" y="14.696" class="i">██</text><text x="52.104" y="14.696" class="i">██</text><text x="55.11" y="14.696" class="i">██</text><text x="60.12" y="14.696" class="i">██</text><use y="15.197" xlink:href="#13"/></svg><svg x="960"><use xlink:href="#a"/><use y="0" xlink:href="#1"/><use y="6.513" xlink:href="#12"/><use y="8.684" xlink:href="#8"/><text x="17.034" y="12.525" class="i">██</text><text x="21.042" y="12.525" class="i">██</text><text x="27.054" y="12.525" class="i">██</text><text x="30.06" y="12.525" class="i">██</text><text x="33.066" y="12.525" class="i">██</text><text x="36.072" y="12.525" class="i">███████</text><text x="47.094" y="12.525" class="i">███████</text><text x="56.112" y="12.525" class="i">██████</text><use y="13.026" xlink:href="#6"/><use y="15.197" xlink:href="#13"/></svg><svg x="1040"><use xlink:href="#a"/><use y="0" xlink:href="#1"/></svg><svg x="1120"><use xlink:href="#a"/><use y="0" xlink:href="#1"/><use y="6.513" xlink:href="#14"/><use y="8.684" xlink:href="#15"/><use y="10.855" xlink:href="#16"/><use y="13.026" xlink:href="#17"/><use y="15.197" xlink:href="#18"/></svg><svg x="1200"><use xlink:href="#a"/><use y="0" xlink:href="#1"/><use y="6.513" xlink:href="#14"/><use y="8.684" xlink:href="#15"/><use y="10.855" xlink:href="#16"/><use y="13.026" xlink:href="#17"/><use y="15.197" xlink:href="#18"/><text x="0" y="25.551" class="i">Restarting</text><text x="11.022" y="25.551" class="i">animation...</text></svg></svg></g></g></svg></svg>