<svg xmlns="http://www.w3.org/2000/svg" xmlns:xlink="http://www.w3.org/1999/xlink" width="840" height="581.04"><rect width="840" height="581.04" class="a" rx="5" ry="5"/><svg x="0%" y="0%"><circle cx="20" cy="20" r="6" class="b"/><circle cx="40" cy="20" r="6" class="c"/><circle cx="60" cy="20" r="6" class="d"/></svg><svg xmlns="http://www.w3.org/2000/svg" xmlns:xlink="http://www.w3.org/1999/xlink" width="800" height="521.04" x="15" y="50" viewBox="0 0 80 52.104"><style>@keyframes x{0%{transform:translateX(0)}2.9%{transform:translateX(-80px)}4.6%{transform:translateX(-160px)}6.4%{transform:translateX(-240px)}8.1%{transform:translateX(-320px)}9.8%{transform:translateX(-400px)}11.6%{transform:translateX(-480px)}13.3%{transform:translateX(-560px)}15%{transform:translateX(-640px)}16.8%{transform:translateX(-720px)}18.5%{transform:translateX(-800px)}20.2%{transform:translateX(-880px)}22%{transform:translateX(-960px)}23.7%{transform:translateX(-1040px)}25.4%{transform:translateX(-1120px)}27.2%{transform:translateX(-1200px)}28.9%{transform:translateX(-1280px)}30.6%{transform:translateX(-1360px)}32.4%{transform:translateX(-1440px)}34.1%{transform:translateX(-1520px)}35.8%{transform:translateX(-1600px)}37.6%{transform:translateX(-1680px)}39.3%{transform:translateX(-1760px)}41.1%{transform:translateX(-1840px)}42.8%{transform:translateX(-1920px)}44.5%{transform:translateX(-2000px)}46.3%{transform:translateX(-2080px)}48%{transform:translateX(-2160px)}49.7%{transform:translateX(-2240px)}51.5%{transform:translateX(-2320px)}53.2%{transform:translateX(-2400px)}54.9%{transform:translateX(-2480px)}56.7%{transform:translateX(-2560px)}58.4%{transform:translateX(-2640px)}60.1%{transform:translateX(-2720px)}61.9%{transform:translateX(-2800px)}63.6%{transform:translateX(-2880px)}65.3%{transform:translateX(-2960px)}}.e,.f,.g{font-family:&apos;Courier New&apos; Roboto,Helvetica,Arial,sans-serif,&apos;Apple Color Emoji&apos;,&apos;Segoe UI Emoji&apos;!important}.a{fill:#232323}.b{fill:#ff5f58}.c{fill:#ffbd2e}.d{fill:#18c132}.f{fill:#66c2cd}.g,.h,.i{white-space:pre}.h{fill:#7ee7e9}.i{fill:#00c6ff}.j{fill:#ea59f6}.j,.k,.l{white-space:pre}.k{fill:#fff100;font-weight:700}.l{fill:#7cff00}.m{fill:#a8cc8c}.n{fill:#fff100;white-space:pre}.o{fill:#dbab79}.p{fill:#f35656;white-space:pre}.q{fill:#e88388}.r{fill:#a0a0a0;white-space:pre}.s{fill:#6f7783}.t{fill:#fff}.t,.u,.v{white-space:pre}.u{fill:#686868}.v{fill:#fff;font-weight:700}.w{fill:transparent}.y{animation-duration:14.423948s;animation-iteration-count:infinite;animation-name:x;animation-timing-function:steps(1,end)}</style><g class="e" font-family="'JetBrainsMono',Monaco, Consolas, Menlo, 'Bitstream Vera Sans Mono', 'Powerline Symbols', monospace" font-size="1.67"><defs><symbol id="1"><rect width="6" height="2.171" x="0" y="0" class="f"/><text x="0" y="1.67" class="g">INFO</text><text x="7.014" y="1.67" class="h">These</text><text x="13.026" y="1.67" class="h">are</text><text x="17.034" y="1.67" class="h">the</text><text x="21.042" y="1.67" class="h">default</text><text x="29.058" y="1.67" class="h">theme</text><text x="35.07" y="1.67" class="h">styles.</text></symbol><symbol id="2"><rect width="6" height="2.171" x="0" y="0" class="f"/><text x="7.014" y="1.67" class="h">You</text><text x="11.022" y="1.67" class="h">can</text><text x="15.03" y="1.67" class="h">modify</text><text x="22.044" y="1.67" class="h">them</text><text x="27.054" y="1.67" class="h">easily</text><text x="34.068" y="1.67" class="h">to</text><text x="37.074" y="1.67" class="h">your</text><text x="42.084" y="1.67" class="h">personal</text><text x="51.102" y="1.67" class="h">preference,</text></symbol><symbol id="3"><rect width="6" height="2.171" x="0" y="0" class="f"/><text x="7.014" y="1.67" class="h">or</text><text x="10.02" y="1.67" class="h">create</text><text x="17.034" y="1.67" class="h">new</text><text x="21.042" y="1.67" class="h">themes</text><text x="28.056" y="1.67" class="h">from</text><text x="33.066" y="1.67" class="h">scratch</text><text x="41.082" y="1.67" class="h">:)</text></symbol><symbol id="4"><text x="0" y="1.67" class="i">PrimaryStyle</text></symbol><symbol id="5"><text x="0" y="1.67" class="j">SecondaryStyle</text></symbol><symbol id="6"><text x="0" y="1.67" class="k">HighlightStyle</text></symbol><symbol id="7"><text x="0" y="1.67" class="h">InfoMessageStyle</text></symbol><symbol id="8"><rect width="15" height="2.171" x="0" y="0" class="f"/><text x="0" y="1.67" class="g">InfoPrefixStyle</text></symbol><symbol id="9"><text x="0" y="1.67" class="l">SuccessMessageStyle</text></symbol><symbol id="10"><rect width="18" height="2.171" x="0" y="0" class="m"/><text x="0" y="1.67" class="g">SuccessPrefixStyle</text></symbol><symbol id="11"><text x="0" y="1.67" class="n">WarningMessageStyle</text></symbol><symbol id="12"><rect width="18" height="2.171" x="0" y="0" class="o"/><text x="0" y="1.67" class="g">WarningPrefixStyle</text></symbol><symbol id="13"><text x="0" y="1.67" class="p">ErrorMessageStyle</text></symbol><symbol id="14"><rect width="16" height="2.171" x="0" y="0" class="q"/><text x="0" y="1.67" class="g">ErrorPrefixStyle</text></symbol><symbol id="15"><text x="0" y="1.67" class="p">FatalMessageStyle</text></symbol><symbol id="16"><rect width="16" height="2.171" x="0" y="0" class="q"/><text x="0" y="1.67" class="g">FatalPrefixStyle</text></symbol><symbol id="17"><text x="0" y="1.67" class="r">DescriptionMessageStyle</text></symbol><symbol id="18"><rect width="22" height="2.171" x="0" y="0" class="s"/><text x="0" y="1.67" class="t">DescriptionPrefixStyle</text></symbol><symbol id="19"><text x="0" y="1.67" class="u">ScopeStyle</text></symbol><symbol id="20"><text x="0" y="1.67" class="i">ProgressbarBarStyle</text></symbol><symbol id="21"><text x="0" y="1.67" class="h">ProgressbarTitleStyle</text></symbol><symbol id="22"><text x="0" y="1.67" class="v">HeaderTextStyle</text></symbol><symbol id="23"><rect width="21" height="2.171" x="0" y="0" class="s"/><text x="0" y="1.67" class="r">HeaderBackgroundStyle</text></symbol><symbol id="24"><text x="0" y="1.67" class="h">SpinnerStyle</text></symbol><symbol id="25"><text x="0" y="1.67" class="t">SpinnerTextStyle</text></symbol><symbol id="26"><text x="0" y="1.67" class="r">TableStyle</text></symbol><symbol id="27"><text x="0" y="1.67" class="h">TableHeaderStyle</text></symbol><symbol id="28"><text x="0" y="1.67" class="u">TableSeparatorStyle</text></symbol><symbol id="29"><text x="0" y="1.67" class="k">SectionStyle</text></symbol><symbol id="30"><text x="0" y="1.67" class="r">BulletListTextStyle</text></symbol><symbol id="31"><text x="0" y="1.67" class="u">BulletListBulletStyle</text></symbol><symbol id="32"><text x="0" y="1.67" class="u">TreeStyle</text></symbol><symbol id="33"><text x="0" y="1.67" class="r">TreeTextStyle</text></symbol><symbol id="34"><text x="0" y="1.67" class="r">LetterStyle</text></symbol><symbol id="35"><text x="0" y="1.67" class="u">DebugMessageStyle</text></symbol><symbol id="36"><rect width="16" height="2.171" x="0" y="0" class="s"/><text x="0" y="1.67" class="g">DebugPrefixStyle</text></symbol><symbol id="37"><text x="0" y="1.67" class="r">BoxStyle</text></symbol><symbol id="38"><text x="0" y="1.67" class="r">BoxTextStyle</text></symbol><symbol id="39"><text x="0" y="1.67" class="h">BarLabelStyle</text></symbol><symbol id="40"><text x="0" y="1.67" class="i">BarStyle</text></symbol><symbol id="a"><rect width="80" height="24" x="0" y="0" class="w"/></symbol></defs><rect width="80" height="52.104" class="a"/><g class="y"><svg width="3120" x="0" y="0"><svg x="0"><use xlink:href="#a"/></svg><svg x="80"><use xlink:href="#a"/><use y="0" xlink:href="#1"/><use y="2.171" xlink:href="#2"/><use y="4.342" xlink:href="#3"/><use y="8.684" xlink:href="#4"/></svg><svg x="160"><use xlink:href="#a"/><use y="0" xlink:href="#1"/><use y="2.171" xlink:href="#2"/><use y="4.342" xlink:href="#3"/><use y="8.684" xlink:href="#4"/><use y="10.855" xlink:href="#5"/></svg><svg x="240"><use xlink:href="#a"/><use y="0" xlink:href="#1"/><use y="2.171" xlink:href="#2"/><use y="4.342" xlink:href="#3"/><use y="8.684" xlink:href="#4"/><use y="10.855" xlink:href="#5"/><use y="13.026" xlink:href="#6"/></svg><svg x="320"><use xlink:href="#a"/><use y="0" xlink:href="#1"/><use y="2.171" xlink:href="#2"/><use y="4.342" xlink:href="#3"/><use y="8.684" xlink:href="#4"/><use y="10.855" xlink:href="#5"/><use y="13.026" xlink:href="#6"/><use y="15.197" xlink:href="#7"/></svg><svg x="400"><use xlink:href="#a"/><use y="0" xlink:href="#1"/><use y="2.171" xlink:href="#2"/><use y="4.342" xlink:href="#3"/><use y="8.684" xlink:href="#4"/><use y="10.855" xlink:href="#5"/><use y="13.026" xlink:href="#6"/><use y="15.197" xlink:href="#7"/><use y="17.368" xlink:href="#8"/></svg><svg x="480"><use xlink:href="#a"/><use y="0" xlink:href="#1"/><use y="2.171" xlink:href="#2"/><use y="4.342" xlink:href="#3"/><use y="8.684" xlink:href="#4"/><use y="10.855" xlink:href="#5"/><use y="13.026" xlink:href="#6"/><use y="15.197" xlink:href="#7"/><use y="17.368" xlink:href="#8"/><use y="19.539" xlink:href="#9"/></svg><svg x="560"><use xlink:href="#a"/><use y="0" xlink:href="#1"/><use y="2.171" xlink:href="#2"/><use y="4.342" xlink:href="#3"/><use y="8.684" xlink:href="#4"/><use y="10.855" xlink:href="#5"/><use y="13.026" xlink:href="#6"/><use y="15.197" xlink:href="#7"/><use y="17.368" xlink:href="#8"/><use y="19.539" xlink:href="#9"/><use y="21.71" xlink:href="#10"/></svg><svg x="640"><use xlink:href="#a"/><use y="0" xlink:href="#1"/><use y="2.171" xlink:href="#2"/><use y="4.342" xlink:href="#3"/><use y="8.684" xlink:href="#4"/><use y="10.855" xlink:href="#5"/><use y="13.026" xlink:href="#6"/><use y="15.197" xlink:href="#7"/><use y="17.368" xlink:href="#8"/><use y="19.539" xlink:href="#9"/><use y="21.71" xlink:href="#10"/><use y="23.881" xlink:href="#11"/></svg><svg x="720"><use xlink:href="#a"/><use y="0" xlink:href="#1"/><use y="2.171" xlink:href="#2"/><use y="4.342" xlink:href="#3"/><use y="8.684" xlink:href="#4"/><use y="10.855" xlink:href="#5"/><use y="13.026" xlink:href="#6"/><use y="15.197" xlink:href="#7"/><use y="17.368" xlink:href="#8"/><use y="19.539" xlink:href="#9"/><use y="21.71" xlink:href="#10"/><use y="23.881" xlink:href="#11"/><use y="26.052" xlink:href="#12"/></svg><svg x="800"><use xlink:href="#a"/><use y="0" xlink:href="#1"/><use y="2.171" xlink:href="#2"/><use y="4.342" xlink:href="#3"/><use y="8.684" xlink:href="#4"/><use y="10.855" xlink:href="#5"/><use y="13.026" xlink:href="#6"/><use y="15.197" xlink:href="#7"/><use y="17.368" xlink:href="#8"/><use y="19.539" xlink:href="#9"/><use y="21.71" xlink:href="#10"/><use y="23.881" xlink:href="#11"/><use y="26.052" xlink:href="#12"/><use y="28.223" xlink:href="#13"/></svg><svg x="880"><use xlink:href="#a"/><use y="0" xlink:href="#1"/><use y="2.171" xlink:href="#2"/><use y="4.342" xlink:href="#3"/><use y="8.684" xlink:href="#4"/><use y="10.855" xlink:href="#5"/><use y="13.026" xlink:href="#6"/><use y="15.197" xlink:href="#7"/><use y="17.368" xlink:href="#8"/><use y="19.539" xlink:href="#9"/><use y="21.71" xlink:href="#10"/><use y="23.881" xlink:href="#11"/><use y="26.052" xlink:href="#12"/><use y="28.223" xlink:href="#13"/><use y="30.394" xlink:href="#14"/></svg><svg x="960"><use xlink:href="#a"/><use y="0" xlink:href="#1"/><use y="2.171" xlink:href="#2"/><use y="4.342" xlink:href="#3"/><use y="8.684" xlink:href="#4"/><use y="10.855" xlink:href="#5"/><use y="13.026" xlink:href="#6"/><use y="15.197" xlink:href="#7"/><use y="17.368" xlink:href="#8"/><use y="19.539" xlink:href="#9"/><use y="21.71" xlink:href="#10"/><use y="23.881" xlink:href="#11"/><use y="26.052" xlink:href="#12"/><use y="28.223" xlink:href="#13"/><use y="30.394" xlink:href="#14"/><use y="32.565" xlink:href="#15"/></svg><svg x="1040"><use xlink:href="#a"/><use y="0" xlink:href="#1"/><use y="2.171" xlink:href="#2"/><use y="4.342" xlink:href="#3"/><use y="8.684" xlink:href="#4"/><use y="10.855" xlink:href="#5"/><use y="13.026" xlink:href="#6"/><use y="15.197" xlink:href="#7"/><use y="17.368" xlink:href="#8"/><use y="19.539" xlink:href="#9"/><use y="21.71" xlink:href="#10"/><use y="23.881" xlink:href="#11"/><use y="26.052" xlink:href="#12"/><use y="28.223" xlink:href="#13"/><use y="30.394" xlink:href="#14"/><use y="32.565" xlink:href="#15"/><use y="34.736" xlink:href="#16"/></svg><svg x="1120"><use xlink:href="#a"/><use y="0" xlink:href="#1"/><use y="2.171" xlink:href="#2"/><use y="4.342" xlink:href="#3"/><use y="8.684" xlink:href="#4"/><use y="10.855" xlink:href="#5"/><use y="13.026" xlink:href="#6"/><use y="15.197" xlink:href="#7"/><use y="17.368" xlink:href="#8"/><use y="19.539" xlink:href="#9"/><use y="21.71" xlink:href="#10"/><use y="23.881" xlink:href="#11"/><use y="26.052" xlink:href="#12"/><use y="28.223" xlink:href="#13"/><use y="30.394" xlink:href="#14"/><use y="32.565" xlink:href="#15"/><use y="34.736" xlink:href="#16"/><use y="36.907" xlink:href="#17"/></svg><svg x="1200"><use xlink:href="#a"/><use y="0" xlink:href="#1"/><use y="2.171" xlink:href="#2"/><use y="4.342" xlink:href="#3"/><use y="8.684" xlink:href="#4"/><use y="10.855" xlink:href="#5"/><use y="13.026" xlink:href="#6"/><use y="15.197" xlink:href="#7"/><use y="17.368" xlink:href="#8"/><use y="19.539" xlink:href="#9"/><use y="21.71" xlink:href="#10"/><use y="23.881" xlink:href="#11"/><use y="26.052" xlink:href="#12"/><use y="28.223" xlink:href="#13"/><use y="30.394" xlink:href="#14"/><use y="32.565" xlink:href="#15"/><use y="34.736" xlink:href="#16"/><use y="36.907" xlink:href="#17"/><use y="39.078" xlink:href="#18"/></svg><svg x="1280"><use xlink:href="#a"/><use y="0" xlink:href="#1"/><use y="2.171" xlink:href="#2"/><use y="4.342" xlink:href="#3"/><use y="8.684" xlink:href="#4"/><use y="10.855" xlink:href="#5"/><use y="13.026" xlink:href="#6"/><use y="15.197" xlink:href="#7"/><use y="17.368" xlink:href="#8"/><use y="19.539" xlink:href="#9"/><use y="21.71" xlink:href="#10"/><use y="23.881" xlink:href="#11"/><use y="26.052" xlink:href="#12"/><use y="28.223" xlink:href="#13"/><use y="30.394" xlink:href="#14"/><use y="32.565" xlink:href="#15"/><use y="34.736" xlink:href="#16"/><use y="36.907" xlink:href="#17"/><use y="39.078" xlink:href="#18"/><use y="41.249" xlink:href="#19"/></svg><svg x="1360"><use xlink:href="#a"/><use y="0" xlink:href="#1"/><use y="2.171" xlink:href="#2"/><use y="4.342" xlink:href="#3"/><use y="8.684" xlink:href="#4"/><use y="10.855" xlink:href="#5"/><use y="13.026" xlink:href="#6"/><use y="15.197" xlink:href="#7"/><use y="17.368" xlink:href="#8"/><use y="19.539" xlink:href="#9"/><use y="21.71" xlink:href="#10"/><use y="23.881" xlink:href="#11"/><use y="26.052" xlink:href="#12"/><use y="28.223" xlink:href="#13"/><use y="30.394" xlink:href="#14"/><use y="32.565" xlink:href="#15"/><use y="34.736" xlink:href="#16"/><use y="36.907" xlink:href="#17"/><use y="39.078" xlink:href="#18"/><use y="41.249" xlink:href="#19"/><use y="43.42" xlink:href="#20"/></svg><svg x="1440"><use xlink:href="#a"/><use y="0" xlink:href="#1"/><use y="2.171" xlink:href="#2"/><use y="4.342" xlink:href="#3"/><use y="8.684" xlink:href="#4"/><use y="10.855" xlink:href="#5"/><use y="13.026" xlink:href="#6"/><use y="15.197" xlink:href="#7"/><use y="17.368" xlink:href="#8"/><use y="19.539" xlink:href="#9"/><use y="21.71" xlink:href="#10"/><use y="23.881" xlink:href="#11"/><use y="26.052" xlink:href="#12"/><use y="28.223" xlink:href="#13"/><use y="30.394" xlink:href="#14"/><use y="32.565" xlink:href="#15"/><use y="34.736" xlink:href="#16"/><use y="36.907" xlink:href="#17"/><use y="39.078" xlink:href="#18"/><use y="41.249" xlink:href="#19"/><use y="43.42" xlink:href="#20"/><use y="45.591" xlink:href="#21"/></svg><svg x="1520"><use xlink:href="#a"/><use y="0" xlink:href="#1"/><use y="2.171" xlink:href="#2"/><use y="4.342" xlink:href="#3"/><use y="8.684" xlink:href="#4"/><use y="10.855" xlink:href="#5"/><use y="13.026" xlink:href="#6"/><use y="15.197" xlink:href="#7"/><use y="17.368" xlink:href="#8"/><use y="19.539" xlink:href="#9"/><use y="21.71" xlink:href="#10"/><use y="23.881" xlink:href="#11"/><use y="26.052" xlink:href="#12"/><use y="28.223" xlink:href="#13"/><use y="30.394" xlink:href="#14"/><use y="32.565" xlink:href="#15"/><use y="34.736" xlink:href="#16"/><use y="36.907" xlink:href="#17"/><use y="39.078" xlink:href="#18"/><use y="41.249" xlink:href="#19"/><use y="43.42" xlink:href="#20"/><use y="45.591" xlink:href="#21"/><use y="47.762" xlink:href="#22"/></svg><svg x="1600"><use xlink:href="#a"/><use y="0" xlink:href="#2"/><use y="2.171" xlink:href="#3"/><use y="6.513" xlink:href="#4"/><use y="8.684" xlink:href="#5"/><use y="10.855" xlink:href="#6"/><use y="13.026" xlink:href="#7"/><use y="15.197" xlink:href="#8"/><use y="17.368" xlink:href="#9"/><use y="19.539" xlink:href="#10"/><use y="21.71" xlink:href="#11"/><use y="23.881" xlink:href="#12"/><use y="26.052" xlink:href="#13"/><use y="28.223" xlink:href="#14"/><use y="30.394" xlink:href="#15"/><use y="32.565" xlink:href="#16"/><use y="34.736" xlink:href="#17"/><use y="36.907" xlink:href="#18"/><use y="39.078" xlink:href="#19"/><use y="41.249" xlink:href="#20"/><use y="43.42" xlink:href="#21"/><use y="45.591" xlink:href="#22"/><use y="47.762" xlink:href="#23"/></svg><svg x="1680"><use xlink:href="#a"/><use y="0" xlink:href="#3"/><use y="4.342" xlink:href="#4"/><use y="6.513" xlink:href="#5"/><use y="8.684" xlink:href="#6"/><use y="10.855" xlink:href="#7"/><use y="13.026" xlink:href="#8"/><use y="15.197" xlink:href="#9"/><use y="17.368" xlink:href="#10"/><use y="19.539" xlink:href="#11"/><use y="21.71" xlink:href="#12"/><use y="23.881" xlink:href="#13"/><use y="26.052" xlink:href="#14"/><use y="28.223" xlink:href="#15"/><use y="30.394" xlink:href="#16"/><use y="32.565" xlink:href="#17"/><use y="34.736" xlink:href="#18"/><use y="36.907" xlink:href="#19"/><use y="39.078" xlink:href="#20"/><use y="41.249" xlink:href="#21"/><use y="43.42" xlink:href="#22"/><use y="45.591" xlink:href="#23"/><use y="47.762" xlink:href="#24"/></svg><svg x="1760"><use xlink:href="#a"/><use y="2.171" xlink:href="#4"/><use y="4.342" xlink:href="#5"/><use y="6.513" xlink:href="#6"/><use y="8.684" xlink:href="#7"/><use y="10.855" xlink:href="#8"/><use y="13.026" xlink:href="#9"/><use y="15.197" xlink:href="#10"/><use y="17.368" xlink:href="#11"/><use y="19.539" xlink:href="#12"/><use y="21.71" xlink:href="#13"/><use y="23.881" xlink:href="#14"/><use y="26.052" xlink:href="#15"/><use y="28.223" xlink:href="#16"/><use y="30.394" xlink:href="#17"/><use y="32.565" xlink:href="#18"/><use y="34.736" xlink:href="#19"/><use y="36.907" xlink:href="#20"/><use y="39.078" xlink:href="#21"/><use y="41.249" xlink:href="#22"/><use y="43.42" xlink:href="#23"/><use y="45.591" xlink:href="#24"/><use y="47.762" xlink:href="#25"/></svg><svg x="1840"><use xlink:href="#a"/><use y="0" xlink:href="#4"/><use y="2.171" xlink:href="#5"/><use y="4.342" xlink:href="#6"/><use y="6.513" xlink:href="#7"/><use y="8.684" xlink:href="#8"/><use y="10.855" xlink:href="#9"/><use y="13.026" xlink:href="#10"/><use y="15.197" xlink:href="#11"/><use y="17.368" xlink:href="#12"/><use y="19.539" xlink:href="#13"/><use y="21.71" xlink:href="#14"/><use y="23.881" xlink:href="#15"/><use y="26.052" xlink:href="#16"/><use y="28.223" xlink:href="#17"/><use y="30.394" xlink:href="#18"/><use y="32.565" xlink:href="#19"/><use y="34.736" xlink:href="#20"/><use y="36.907" xlink:href="#21"/><use y="39.078" xlink:href="#22"/><use y="41.249" xlink:href="#23"/><use y="43.42" xlink:href="#24"/><use y="45.591" xlink:href="#25"/><use y="47.762" xlink:href="#26"/></svg><svg x="1920"><use xlink:href="#a"/><use y="0" xlink:href="#5"/><use y="2.171" xlink:href="#6"/><use y="4.342" xlink:href="#7"/><use y="6.513" xlink:href="#8"/><use y="8.684" xlink:href="#9"/><use y="10.855" xlink:href="#10"/><use y="13.026" xlink:href="#11"/><use y="15.197" xlink:href="#12"/><use y="17.368" xlink:href="#13"/><use y="19.539" xlink:href="#14"/><use y="21.71" xlink:href="#15"/><use y="23.881" xlink:href="#16"/><use y="26.052" xlink:href="#17"/><use y="28.223" xlink:href="#18"/><use y="30.394" xlink:href="#19"/><use y="32.565" xlink:href="#20"/><use y="34.736" xlink:href="#21"/><use y="36.907" xlink:href="#22"/><use y="39.078" xlink:href="#23"/><use y="41.249" xlink:href="#24"/><use y="43.42" xlink:href="#25"/><use y="45.591" xlink:href="#26"/><use y="47.762" xlink:href="#27"/></svg><svg x="2000"><use xlink:href="#a"/><use y="0" xlink:href="#6"/><use y="2.171" xlink:href="#7"/><use y="4.342" xlink:href="#8"/><use y="6.513" xlink:href="#9"/><use y="8.684" xlink:href="#10"/><use y="10.855" xlink:href="#11"/><use y="13.026" xlink:href="#12"/><use y="15.197" xlink:href="#13"/><use y="17.368" xlink:href="#14"/><use y="19.539" xlink:href="#15"/><use y="21.71" xlink:href="#16"/><use y="23.881" xlink:href="#17"/><use y="26.052" xlink:href="#18"/><use y="28.223" xlink:href="#19"/><use y="30.394" xlink:href="#20"/><use y="32.565" xlink:href="#21"/><use y="34.736" xlink:href="#22"/><use y="36.907" xlink:href="#23"/><use y="39.078" xlink:href="#24"/><use y="41.249" xlink:href="#25"/><use y="43.42" xlink:href="#26"/><use y="45.591" xlink:href="#27"/><use y="47.762" xlink:href="#28"/></svg><svg x="2080"><use xlink:href="#a"/><use y="0" xlink:href="#7"/><use y="2.171" xlink:href="#8"/><use y="4.342" xlink:href="#9"/><use y="6.513" xlink:href="#10"/><use y="8.684" xlink:href="#11"/><use y="10.855" xlink:href="#12"/><use y="13.026" xlink:href="#13"/><use y="15.197" xlink:href="#14"/><use y="17.368" xlink:href="#15"/><use y="19.539" xlink:href="#16"/><use y="21.71" xlink:href="#17"/><use y="23.881" xlink:href="#18"/><use y="26.052" xlink:href="#19"/><use y="28.223" xlink:href="#20"/><use y="30.394" xlink:href="#21"/><use y="32.565" xlink:href="#22"/><use y="34.736" xlink:href="#23"/><use y="36.907" xlink:href="#24"/><use y="39.078" xlink:href="#25"/><use y="41.249" xlink:href="#26"/><use y="43.42" xlink:href="#27"/><use y="45.591" xlink:href="#28"/><use y="47.762" xlink:href="#29"/></svg><svg x="2160"><use xlink:href="#a"/><use y="0" xlink:href="#8"/><use y="2.171" xlink:href="#9"/><use y="4.342" xlink:href="#10"/><use y="6.513" xlink:href="#11"/><use y="8.684" xlink:href="#12"/><use y="10.855" xlink:href="#13"/><use y="13.026" xlink:href="#14"/><use y="15.197" xlink:href="#15"/><use y="17.368" xlink:href="#16"/><use y="19.539" xlink:href="#17"/><use y="21.71" xlink:href="#18"/><use y="23.881" xlink:href="#19"/><use y="26.052" xlink:href="#20"/><use y="28.223" xlink:href="#21"/><use y="30.394" xlink:href="#22"/><use y="32.565" xlink:href="#23"/><use y="34.736" xlink:href="#24"/><use y="36.907" xlink:href="#25"/><use y="39.078" xlink:href="#26"/><use y="41.249" xlink:href="#27"/><use y="43.42" xlink:href="#28"/><use y="45.591" xlink:href="#29"/><use y="47.762" xlink:href="#30"/></svg><svg x="2240"><use xlink:href="#a"/><use y="0" xlink:href="#9"/><use y="2.171" xlink:href="#10"/><use y="4.342" xlink:href="#11"/><use y="6.513" xlink:href="#12"/><use y="8.684" xlink:href="#13"/><use y="10.855" xlink:href="#14"/><use y="13.026" xlink:href="#15"/><use y="15.197" xlink:href="#16"/><use y="17.368" xlink:href="#17"/><use y="19.539" xlink:href="#18"/><use y="21.71" xlink:href="#19"/><use y="23.881" xlink:href="#20"/><use y="26.052" xlink:href="#21"/><use y="28.223" xlink:href="#22"/><use y="30.394" xlink:href="#23"/><use y="32.565" xlink:href="#24"/><use y="34.736" xlink:href="#25"/><use y="36.907" xlink:href="#26"/><use y="39.078" xlink:href="#27"/><use y="41.249" xlink:href="#28"/><use y="43.42" xlink:href="#29"/><use y="45.591" xlink:href="#30"/><use y="47.762" xlink:href="#31"/></svg><svg x="2320"><use xlink:href="#a"/><use y="0" xlink:href="#10"/><use y="2.171" xlink:href="#11"/><use y="4.342" xlink:href="#12"/><use y="6.513" xlink:href="#13"/><use y="8.684" xlink:href="#14"/><use y="10.855" xlink:href="#15"/><use y="13.026" xlink:href="#16"/><use y="15.197" xlink:href="#17"/><use y="17.368" xlink:href="#18"/><use y="19.539" xlink:href="#19"/><use y="21.71" xlink:href="#20"/><use y="23.881" xlink:href="#21"/><use y="26.052" xlink:href="#22"/><use y="28.223" xlink:href="#23"/><use y="30.394" xlink:href="#24"/><use y="32.565" xlink:href="#25"/><use y="34.736" xlink:href="#26"/><use y="36.907" xlink:href="#27"/><use y="39.078" xlink:href="#28"/><use y="41.249" xlink:href="#29"/><use y="43.42" xlink:href="#30"/><use y="45.591" xlink:href="#31"/><use y="47.762" xlink:href="#32"/></svg><svg x="2400"><use xlink:href="#a"/><use y="0" xlink:href="#11"/><use y="2.171" xlink:href="#12"/><use y="4.342" xlink:href="#13"/><use y="6.513" xlink:href="#14"/><use y="8.684" xlink:href="#15"/><use y="10.855" xlink:href="#16"/><use y="13.026" xlink:href="#17"/><use y="15.197" xlink:href="#18"/><use y="17.368" xlink:href="#19"/><use y="19.539" xlink:href="#20"/><use y="21.71" xlink:href="#21"/><use y="23.881" xlink:href="#22"/><use y="26.052" xlink:href="#23"/><use y="28.223" xlink:href="#24"/><use y="30.394" xlink:href="#25"/><use y="32.565" xlink:href="#26"/><use y="34.736" xlink:href="#27"/><use y="36.907" xlink:href="#28"/><use y="39.078" xlink:href="#29"/><use y="41.249" xlink:href="#30"/><use y="43.42" xlink:href="#31"/><use y="45.591" xlink:href="#32"/><use y="47.762" xlink:href="#33"/></svg><svg x="2480"><use xlink:href="#a"/><use y="0" xlink:href="#12"/><use y="2.171" xlink:href="#13"/><use y="4.342" xlink:href="#14"/><use y="6.513" xlink:href="#15"/><use y="8.684" xlink:href="#16"/><use y="10.855" xlink:href="#17"/><use y="13.026" xlink:href="#18"/><use y="15.197" xlink:href="#19"/><use y="17.368" xlink:href="#20"/><use y="19.539" xlink:href="#21"/><use y="21.71" xlink:href="#22"/><use y="23.881" xlink:href="#23"/><use y="26.052" xlink:href="#24"/><use y="28.223" xlink:href="#25"/><use y="30.394" xlink:href="#26"/><use y="32.565" xlink:href="#27"/><use y="34.736" xlink:href="#28"/><use y="36.907" xlink:href="#29"/><use y="39.078" xlink:href="#30"/><use y="41.249" xlink:href="#31"/><use y="43.42" xlink:href="#32"/><use y="45.591" xlink:href="#33"/><use y="47.762" xlink:href="#34"/></svg><svg x="2560"><use xlink:href="#a"/><use y="0" xlink:href="#13"/><use y="2.171" xlink:href="#14"/><use y="4.342" xlink:href="#15"/><use y="6.513" xlink:href="#16"/><use y="8.684" xlink:href="#17"/><use y="10.855" xlink:href="#18"/><use y="13.026" xlink:href="#19"/><use y="15.197" xlink:href="#20"/><use y="17.368" xlink:href="#21"/><use y="19.539" xlink:href="#22"/><use y="21.71" xlink:href="#23"/><use y="23.881" xlink:href="#24"/><use y="26.052" xlink:href="#25"/><use y="28.223" xlink:href="#26"/><use y="30.394" xlink:href="#27"/><use y="32.565" xlink:href="#28"/><use y="34.736" xlink:href="#29"/><use y="36.907" xlink:href="#30"/><use y="39.078" xlink:href="#31"/><use y="41.249" xlink:href="#32"/><use y="43.42" xlink:href="#33"/><use y="45.591" xlink:href="#34"/><use y="47.762" xlink:href="#35"/></svg><svg x="2640"><use xlink:href="#a"/><use y="0" xlink:href="#14"/><use y="2.171" xlink:href="#15"/><use y="4.342" xlink:href="#16"/><use y="6.513" xlink:href="#17"/><use y="8.684" xlink:href="#18"/><use y="10.855" xlink:href="#19"/><use y="13.026" xlink:href="#20"/><use y="15.197" xlink:href="#21"/><use y="17.368" xlink:href="#22"/><use y="19.539" xlink:href="#23"/><use y="21.71" xlink:href="#24"/><use y="23.881" xlink:href="#25"/><use y="26.052" xlink:href="#26"/><use y="28.223" xlink:href="#27"/><use y="30.394" xlink:href="#28"/><use y="32.565" xlink:href="#29"/><use y="34.736" xlink:href="#30"/><use y="36.907" xlink:href="#31"/><use y="39.078" xlink:href="#32"/><use y="41.249" xlink:href="#33"/><use y="43.42" xlink:href="#34"/><use y="45.591" xlink:href="#35"/><use y="47.762" xlink:href="#36"/></svg><svg x="2720"><use xlink:href="#a"/><use y="0" xlink:href="#15"/><use y="2.171" xlink:href="#16"/><use y="4.342" xlink:href="#17"/><use y="6.513" xlink:href="#18"/><use y="8.684" xlink:href="#19"/><use y="10.855" xlink:href="#20"/><use y="13.026" xlink:href="#21"/><use y="15.197" xlink:href="#22"/><use y="17.368" xlink:href="#23"/><use y="19.539" xlink:href="#24"/><use y="21.71" xlink:href="#25"/><use y="23.881" xlink:href="#26"/><use y="26.052" xlink:href="#27"/><use y="28.223" xlink:href="#28"/><use y="30.394" xlink:href="#29"/><use y="32.565" xlink:href="#30"/><use y="34.736" xlink:href="#31"/><use y="36.907" xlink:href="#32"/><use y="39.078" xlink:href="#33"/><use y="41.249" xlink:href="#34"/><use y="43.42" xlink:href="#35"/><use y="45.591" xlink:href="#36"/><use y="47.762" xlink:href="#37"/></svg><svg x="2800"><use xlink:href="#a"/><use y="0" xlink:href="#16"/><use y="2.171" xlink:href="#17"/><use y="4.342" xlink:href="#18"/><use y="6.513" xlink:href="#19"/><use y="8.684" xlink:href="#20"/><use y="10.855" xlink:href="#21"/><use y="13.026" xlink:href="#22"/><use y="15.197" xlink:href="#23"/><use y="17.368" xlink:href="#24"/><use y="19.539" xlink:href="#25"/><use y="21.71" xlink:href="#26"/><use y="23.881" xlink:href="#27"/><use y="26.052" xlink:href="#28"/><use y="28.223" xlink:href="#29"/><use y="30.394" xlink:href="#30"/><use y="32.565" xlink:href="#31"/><use y="34.736" xlink:href="#32"/><use y="36.907" xlink:href="#33"/><use y="39.078" xlink:href="#34"/><use y="41.249" xlink:href="#35"/><use y="43.42" xlink:href="#36"/><use y="45.591" xlink:href="#37"/><use y="47.762" xlink:href="#38"/></svg><svg x="2880"><use xlink:href="#a"/><use y="0" xlink:href="#17"/><use y="2.171" xlink:href="#18"/><use y="4.342" xlink:href="#19"/><use y="6.513" xlink:href="#20"/><use y="8.684" xlink:href="#21"/><use y="10.855" xlink:href="#22"/><use y="13.026" xlink:href="#23"/><use y="15.197" xlink:href="#24"/><use y="17.368" xlink:href="#25"/><use y="19.539" xlink:href="#26"/><use y="21.71" xlink:href="#27"/><use y="23.881" xlink:href="#28"/><use y="26.052" xlink:href="#29"/><use y="28.223" xlink:href="#30"/><use y="30.394" xlink:href="#31"/><use y="32.565" xlink:href="#32"/><use y="34.736" xlink:href="#33"/><use y="36.907" xlink:href="#34"/><use y="39.078" xlink:href="#35"/><use y="41.249" xlink:href="#36"/><use y="43.42" xlink:href="#37"/><use y="45.591" xlink:href="#38"/><use y="47.762" xlink:href="#39"/></svg><svg x="2960"><use xlink:href="#a"/><use y="0" xlink:href="#18"/><use y="2.171" xlink:href="#19"/><use y="4.342" xlink:href="#20"/><use y="6.513" xlink:href="#21"/><use y="8.684" xlink:href="#22"/><use y="10.855" xlink:href="#23"/><use y="13.026" xlink:href="#24"/><use y="15.197" xlink:href="#25"/><use y="17.368" xlink:href="#26"/><use y="19.539" xlink:href="#27"/><use y="21.71" xlink:href="#28"/><use y="23.881" xlink:href="#29"/><use y="26.052" xlink:href="#30"/><use y="28.223" xlink:href="#31"/><use y="30.394" xlink:href="#32"/><use y="32.565" xlink:href="#33"/><use y="34.736" xlink:href="#34"/><use y="36.907" xlink:href="#35"/><use y="39.078" xlink:href="#36"/><use y="41.249" xlink:href="#37"/><use y="43.42" xlink:href="#38"/><use y="45.591" xlink:href="#39"/><use y="47.762" xlink:href="#40"/></svg><svg x="3040"><use xlink:href="#a"/><use y="0" xlink:href="#20"/><use y="2.171" xlink:href="#21"/><use y="4.342" xlink:href="#22"/><use y="6.513" xlink:href="#23"/><use y="8.684" xlink:href="#24"/><use y="10.855" xlink:href="#25"/><use y="13.026" xlink:href="#26"/><use y="15.197" xlink:href="#27"/><use y="17.368" xlink:href="#28"/><use y="19.539" xlink:href="#29"/><use y="21.71" xlink:href="#30"/><use y="23.881" xlink:href="#31"/><use y="26.052" xlink:href="#32"/><use y="28.223" xlink:href="#33"/><use y="30.394" xlink:href="#34"/><use y="32.565" xlink:href="#35"/><use y="34.736" xlink:href="#36"/><use y="36.907" xlink:href="#37"/><use y="39.078" xlink:href="#38"/><use y="41.249" xlink:href="#39"/><use y="43.42" xlink:href="#40"/><text x="0" y="49.432" class="r">Restarting</text><text x="11.022" y="49.432" class="r">animation...</text></svg></svg></g></g></svg></svg>