<svg xmlns="http://www.w3.org/2000/svg" xmlns:xlink="http://www.w3.org/1999/xlink" width="840" height="581.04"><rect width="840" height="581.04" class="a" rx="5" ry="5"/><svg x="0%" y="0%"><circle cx="20" cy="20" r="6" class="b"/><circle cx="40" cy="20" r="6" class="c"/><circle cx="60" cy="20" r="6" class="d"/></svg><svg xmlns="http://www.w3.org/2000/svg" xmlns:xlink="http://www.w3.org/1999/xlink" width="800" height="521.04" x="15" y="50" viewBox="0 0 80 52.104"><style>@keyframes q{0%{transform:translateX(0)}2.8%{transform:translateX(-80px)}4.2%{transform:translateX(-160px)}5.6%{transform:translateX(-240px)}7%{transform:translateX(-320px)}8.4%{transform:translateX(-400px)}9.8%{transform:translateX(-480px)}11.1%{transform:translateX(-560px)}12.5%{transform:translateX(-640px)}13.9%{transform:translateX(-720px)}15.3%{transform:translateX(-800px)}16.7%{transform:translateX(-880px)}18.1%{transform:translateX(-960px)}19.5%{transform:translateX(-1040px)}20.9%{transform:translateX(-1120px)}22.2%{transform:translateX(-1200px)}23.6%{transform:translateX(-1280px)}25%{transform:translateX(-1360px)}26.4%{transform:translateX(-1440px)}27.8%{transform:translateX(-1520px)}29.2%{transform:translateX(-1600px)}30.6%{transform:translateX(-1680px)}32%{transform:translateX(-1760px)}33.4%{transform:translateX(-1840px)}34.7%{transform:translateX(-1920px)}36.1%{transform:translateX(-2000px)}37.5%{transform:translateX(-2080px)}38.9%{transform:translateX(-2160px)}40.3%{transform:translateX(-2240px)}41.7%{transform:translateX(-2320px)}43.1%{transform:translateX(-2400px)}44.5%{transform:translateX(-2480px)}45.9%{transform:translateX(-2560px)}47.2%{transform:translateX(-2640px)}48.6%{transform:translateX(-2720px)}50%{transform:translateX(-2800px)}51.4%{transform:translateX(-2960px)}52.8%{transform:translateX(-3040px)}54.2%{transform:translateX(-3120px)}55.6%{transform:translateX(-3200px)}57%{transform:translateX(-3280px)}58.3%{transform:translateX(-3360px)}58.4%{transform:translateX(-3440px)}59.7%{transform:translateX(-3520px)}61.1%{transform:translateX(-3600px)}62.5%{transform:translateX(-3680px)}63.9%{transform:translateX(-3760px)}65.3%{transform:translateX(-3840px)}}.e,.f,.g{font-family:&apos;Courier New&apos; Roboto,Helvetica,Arial,sans-serif,&apos;Apple Color Emoji&apos;,&apos;Segoe UI Emoji&apos;!important}.a{fill:#232323}.b{fill:#ff5f58}.c{fill:#ffbd2e}.d{fill:#18c132}.f,.g{fill:#7ee7e9;white-space:pre}.g{fill:#fff}.h{fill:#a8cc8c}.i,.j{white-space:pre}.j{fill:#7cff00}.k{fill:#dbab79}.l{fill:#fff100;white-space:pre}.m{fill:#e88388}.n,.o{fill:#f35656;white-space:pre}.o{fill:#686868}.p{fill:transparent}.r{animation-duration:14.406132s;animation-iteration-count:infinite;animation-name:q;animation-timing-function:steps(1,end)}.s{fill:#a0a0a0;white-space:pre}</style><g class="e" font-family="'JetBrainsMono',Monaco, Consolas, Menlo, 'Bitstream Vera Sans Mono', 'Powerline Symbols', monospace" font-size="1.67"><defs><symbol id="1"><text x="0" y="1.67" class="f">▀</text><text x="3.006" y="1.67" class="g">Doing</text><text x="9.018" y="1.67" class="g">something</text><text x="19.038" y="1.67" class="g">important...</text><text x="32.064" y="1.67" class="g">(will</text><text x="38.076" y="1.67" class="g">succeed)</text></symbol><symbol id="2"><text x="1.002" y="1.67" class="f">▀</text><text x="3.006" y="1.67" class="g">Doing</text><text x="9.018" y="1.67" class="g">something</text><text x="19.038" y="1.67" class="g">important...</text><text x="32.064" y="1.67" class="g">(will</text><text x="38.076" y="1.67" class="g">succeed)</text></symbol><symbol id="3"><text x="1.002" y="1.67" class="f">▄</text><text x="3.006" y="1.67" class="g">Doing</text><text x="9.018" y="1.67" class="g">something</text><text x="19.038" y="1.67" class="g">important...</text><text x="32.064" y="1.67" class="g">(will</text><text x="38.076" y="1.67" class="g">succeed)</text></symbol><symbol id="4"><text x="0" y="1.67" class="f">▄</text><text x="3.006" y="1.67" class="g">Doing</text><text x="9.018" y="1.67" class="g">something</text><text x="19.038" y="1.67" class="g">important...</text><text x="32.064" y="1.67" class="g">(will</text><text x="38.076" y="1.67" class="g">succeed)</text></symbol><symbol id="5"><rect width="9" height="2.171" x="0" y="0" class="h"/><text x="0" y="1.67" class="i">SUCCESS</text><text x="10.02" y="1.67" class="j">Doing</text><text x="16.032" y="1.67" class="j">something</text><text x="26.052" y="1.67" class="j">important...</text><text x="39.078" y="1.67" class="j">(will</text><text x="45.09" y="1.67" class="j">succeed)</text></symbol><symbol id="6"><text x="0" y="1.67" class="f">▀</text><text x="3.006" y="1.67" class="g">Doing</text><text x="9.018" y="1.67" class="g">something</text><text x="19.038" y="1.67" class="g">important...</text><text x="32.064" y="1.67" class="g">(will</text><text x="38.076" y="1.67" class="g">warn)</text></symbol><symbol id="7"><text x="1.002" y="1.67" class="f">▀</text><text x="3.006" y="1.67" class="g">Doing</text><text x="9.018" y="1.67" class="g">something</text><text x="19.038" y="1.67" class="g">important...</text><text x="32.064" y="1.67" class="g">(will</text><text x="38.076" y="1.67" class="g">warn)</text></symbol><symbol id="8"><text x="1.002" y="1.67" class="f">▄</text><text x="3.006" y="1.67" class="g">Doing</text><text x="9.018" y="1.67" class="g">something</text><text x="19.038" y="1.67" class="g">important...</text><text x="32.064" y="1.67" class="g">(will</text><text x="38.076" y="1.67" class="g">warn)</text></symbol><symbol id="9"><text x="0" y="1.67" class="f">▄</text><text x="3.006" y="1.67" class="g">Doing</text><text x="9.018" y="1.67" class="g">something</text><text x="19.038" y="1.67" class="g">important...</text><text x="32.064" y="1.67" class="g">(will</text><text x="38.076" y="1.67" class="g">warn)</text></symbol><symbol id="10"><rect width="9" height="2.171" x="0" y="0" class="k"/><text x="0" y="1.67" class="i">WARNING</text><text x="10.02" y="1.67" class="l">Doing</text><text x="16.032" y="1.67" class="l">something</text><text x="26.052" y="1.67" class="l">important...</text><text x="39.078" y="1.67" class="l">(will</text><text x="45.09" y="1.67" class="l">warn)</text></symbol><symbol id="11"><text x="0" y="1.67" class="f">▀</text><text x="3.006" y="1.67" class="g">Doing</text><text x="9.018" y="1.67" class="g">something</text><text x="19.038" y="1.67" class="g">important...</text><text x="32.064" y="1.67" class="g">(will</text><text x="38.076" y="1.67" class="g">fail)</text></symbol><symbol id="12"><text x="1.002" y="1.67" class="f">▀</text><text x="3.006" y="1.67" class="g">Doing</text><text x="9.018" y="1.67" class="g">something</text><text x="19.038" y="1.67" class="g">important...</text><text x="32.064" y="1.67" class="g">(will</text><text x="38.076" y="1.67" class="g">fail)</text></symbol><symbol id="13"><text x="1.002" y="1.67" class="f">▄</text><text x="3.006" y="1.67" class="g">Doing</text><text x="9.018" y="1.67" class="g">something</text><text x="19.038" y="1.67" class="g">important...</text><text x="32.064" y="1.67" class="g">(will</text><text x="38.076" y="1.67" class="g">fail)</text></symbol><symbol id="14"><text x="0" y="1.67" class="f">▄</text><text x="3.006" y="1.67" class="g">Doing</text><text x="9.018" y="1.67" class="g">something</text><text x="19.038" y="1.67" class="g">important...</text><text x="32.064" y="1.67" class="g">(will</text><text x="38.076" y="1.67" class="g">fail)</text></symbol><symbol id="15"><rect width="9" height="2.171" x="0" y="0" class="m"/><text x="0" y="1.67" class="i">ERROR</text><text x="10.02" y="1.67" class="n">Doing</text><text x="16.032" y="1.67" class="n">something</text><text x="26.052" y="1.67" class="n">important...</text><text x="39.078" y="1.67" class="n">(will</text><text x="45.09" y="1.67" class="n">fail)</text></symbol><symbol id="16"><text x="0" y="1.67" class="o">└</text><text x="2.004" y="1.67" class="o">(/usr/lib/go/src/runtime/proc.go:204)</text></symbol><symbol id="17"><text x="0" y="1.67" class="f">▀</text><text x="3.006" y="1.67" class="g">Doing</text><text x="9.018" y="1.67" class="g">a</text><text x="11.022" y="1.67" class="g">lot</text><text x="15.03" y="1.67" class="g">of</text><text x="18.036" y="1.67" class="g">stuff...</text></symbol><symbol id="18"><text x="1.002" y="1.67" class="f">▀</text><text x="3.006" y="1.67" class="g">It&apos;s</text><text x="8.016" y="1.67" class="g">really</text><text x="15.03" y="1.67" class="g">muchtuff...</text></symbol><symbol id="19"><text x="1.002" y="1.67" class="f">▄</text><text x="3.006" y="1.67" class="g">We&apos;re</text><text x="9.018" y="1.67" class="g">nearly</text><text x="16.032" y="1.67" class="g">done!</text></symbol><symbol id="20"><rect width="9" height="2.171" x="0" y="0" class="h"/><text x="0" y="1.67" class="i">SUCCESS</text><text x="10.02" y="1.67" class="j">Finally!</text></symbol><symbol id="a"><rect width="80" height="24" x="0" y="0" class="p"/></symbol></defs><rect width="80" height="52.104" class="a"/><g class="r"><svg width="4000" x="0" y="0"><svg x="0"><use xlink:href="#a"/></svg><svg x="80"><use xlink:href="#a"/><use y="0" xlink:href="#1"/></svg><svg x="160"><use xlink:href="#a"/><use y="0" xlink:href="#2"/></svg><svg x="240"><use xlink:href="#a"/><use y="0" xlink:href="#3"/></svg><svg x="320"><use xlink:href="#a"/><use y="0" xlink:href="#4"/></svg><svg x="400"><use xlink:href="#a"/><use y="0" xlink:href="#1"/></svg><svg x="480"><use xlink:href="#a"/><use y="0" xlink:href="#2"/></svg><svg x="560"><use xlink:href="#a"/><use y="0" xlink:href="#3"/></svg><svg x="640"><use xlink:href="#a"/><use y="0" xlink:href="#4"/></svg><svg x="720"><use xlink:href="#a"/><use y="0" xlink:href="#1"/></svg><svg x="800"><use xlink:href="#a"/><use y="0" xlink:href="#2"/></svg><svg x="880"><use xlink:href="#a"/><use y="0" xlink:href="#5"/><use y="2.171" xlink:href="#6"/></svg><svg x="960"><use xlink:href="#a"/><use y="0" xlink:href="#5"/><use y="2.171" xlink:href="#7"/></svg><svg x="1040"><use xlink:href="#a"/><use y="0" xlink:href="#5"/><use y="2.171" xlink:href="#8"/></svg><svg x="1120"><use xlink:href="#a"/><use y="0" xlink:href="#5"/><use y="2.171" xlink:href="#9"/></svg><svg x="1200"><use xlink:href="#a"/><use y="0" xlink:href="#5"/><use y="2.171" xlink:href="#6"/></svg><svg x="1280"><use xlink:href="#a"/><use y="0" xlink:href="#5"/><use y="2.171" xlink:href="#7"/></svg><svg x="1360"><use xlink:href="#a"/><use y="0" xlink:href="#5"/><use y="2.171" xlink:href="#8"/></svg><svg x="1440"><use xlink:href="#a"/><use y="0" xlink:href="#5"/><use y="2.171" xlink:href="#9"/></svg><svg x="1520"><use xlink:href="#a"/><use y="0" xlink:href="#5"/><use y="2.171" xlink:href="#6"/></svg><svg x="1600"><use xlink:href="#a"/><use y="0" xlink:href="#5"/><use y="2.171" xlink:href="#7"/></svg><svg x="1680"><use xlink:href="#a"/><use y="0" xlink:href="#5"/><use y="2.171" xlink:href="#10"/><use y="4.342" xlink:href="#11"/></svg><svg x="1760"><use xlink:href="#a"/><use y="0" xlink:href="#5"/><use y="2.171" xlink:href="#10"/><use y="4.342" xlink:href="#12"/></svg><svg x="1840"><use xlink:href="#a"/><use y="0" xlink:href="#5"/><use y="2.171" xlink:href="#10"/><use y="4.342" xlink:href="#13"/></svg><svg x="1920"><use xlink:href="#a"/><use y="0" xlink:href="#5"/><use y="2.171" xlink:href="#10"/><use y="4.342" xlink:href="#14"/></svg><svg x="2000"><use xlink:href="#a"/><use y="0" xlink:href="#5"/><use y="2.171" xlink:href="#10"/><use y="4.342" xlink:href="#11"/></svg><svg x="2080"><use xlink:href="#a"/><use y="0" xlink:href="#5"/><use y="2.171" xlink:href="#10"/><use y="4.342" xlink:href="#12"/></svg><svg x="2160"><use xlink:href="#a"/><use y="0" xlink:href="#5"/><use y="2.171" xlink:href="#10"/><use y="4.342" xlink:href="#13"/></svg><svg x="2240"><use xlink:href="#a"/><use y="0" xlink:href="#5"/><use y="2.171" xlink:href="#10"/><use y="4.342" xlink:href="#14"/></svg><svg x="2320"><use xlink:href="#a"/><use y="0" xlink:href="#5"/><use y="2.171" xlink:href="#10"/><use y="4.342" xlink:href="#11"/></svg><svg x="2400"><use xlink:href="#a"/><use y="0" xlink:href="#5"/><use y="2.171" xlink:href="#10"/><use y="4.342" xlink:href="#12"/></svg><svg x="2480"><use xlink:href="#a"/><use y="0" xlink:href="#5"/><use y="2.171" xlink:href="#10"/><use y="4.342" xlink:href="#15"/><use y="6.513" xlink:href="#16"/><use y="10.855" xlink:href="#17"/></svg><svg x="2560"><use xlink:href="#a"/><use y="0" xlink:href="#5"/><use y="2.171" xlink:href="#10"/><use y="4.342" xlink:href="#15"/><use y="6.513" xlink:href="#16"/><text x="1.002" y="12.525" class="f">▀</text><text x="3.006" y="12.525" class="g">Doing</text><text x="9.018" y="12.525" class="g">a</text><text x="11.022" y="12.525" class="g">lot</text><text x="15.03" y="12.525" class="g">of</text><text x="18.036" y="12.525" class="g">stuff...</text></svg><svg x="2640"><use xlink:href="#a"/><use y="0" xlink:href="#5"/><use y="2.171" xlink:href="#10"/><use y="4.342" xlink:href="#15"/><use y="6.513" xlink:href="#16"/><text x="1.002" y="12.525" class="f">▄</text><text x="3.006" y="12.525" class="g">Doing</text><text x="9.018" y="12.525" class="g">a</text><text x="11.022" y="12.525" class="g">lot</text><text x="15.03" y="12.525" class="g">of</text><text x="18.036" y="12.525" class="g">stuff...</text></svg><svg x="2720"><use xlink:href="#a"/><use y="0" xlink:href="#5"/><use y="2.171" xlink:href="#10"/><use y="4.342" xlink:href="#15"/><use y="6.513" xlink:href="#16"/><text x="0" y="12.525" class="f">▄</text><text x="3.006" y="12.525" class="g">Doing</text><text x="9.018" y="12.525" class="g">a</text><text x="11.022" y="12.525" class="g">lot</text><text x="15.03" y="12.525" class="g">of</text><text x="18.036" y="12.525" class="g">stuff...</text></svg><svg x="2800"><use xlink:href="#a"/><use y="0" xlink:href="#5"/><use y="2.171" xlink:href="#10"/><use y="4.342" xlink:href="#15"/><use y="6.513" xlink:href="#16"/><use y="10.855" xlink:href="#17"/></svg><svg x="2880"><use xlink:href="#a"/><use y="0" xlink:href="#5"/><use y="2.171" xlink:href="#10"/><use y="4.342" xlink:href="#15"/><use y="6.513" xlink:href="#16"/><use y="10.855" xlink:href="#17"/></svg><svg x="2960"><use xlink:href="#a"/><use y="0" xlink:href="#5"/><use y="2.171" xlink:href="#10"/><use y="4.342" xlink:href="#15"/><use y="6.513" xlink:href="#16"/><use y="10.855" xlink:href="#18"/></svg><svg x="3040"><use xlink:href="#a"/><use y="0" xlink:href="#5"/><use y="2.171" xlink:href="#10"/><use y="4.342" xlink:href="#15"/><use y="6.513" xlink:href="#16"/><text x="1.002" y="12.525" class="f">▄</text><text x="3.006" y="12.525" class="g">It&apos;s</text><text x="8.016" y="12.525" class="g">really</text><text x="15.03" y="12.525" class="g">muchtuff...</text></svg><svg x="3120"><use xlink:href="#a"/><use y="0" xlink:href="#5"/><use y="2.171" xlink:href="#10"/><use y="4.342" xlink:href="#15"/><use y="6.513" xlink:href="#16"/><text x="0" y="12.525" class="f">▄</text><text x="3.006" y="12.525" class="g">It&apos;s</text><text x="8.016" y="12.525" class="g">really</text><text x="15.03" y="12.525" class="g">muchtuff...</text></svg><svg x="3200"><use xlink:href="#a"/><use y="0" xlink:href="#5"/><use y="2.171" xlink:href="#10"/><use y="4.342" xlink:href="#15"/><use y="6.513" xlink:href="#16"/><text x="0" y="12.525" class="f">▀</text><text x="3.006" y="12.525" class="g">It&apos;s</text><text x="8.016" y="12.525" class="g">really</text><text x="15.03" y="12.525" class="g">muchtuff...</text></svg><svg x="3280"><use xlink:href="#a"/><use y="0" xlink:href="#5"/><use y="2.171" xlink:href="#10"/><use y="4.342" xlink:href="#15"/><use y="6.513" xlink:href="#16"/><use y="10.855" xlink:href="#18"/></svg><svg x="3360"><use xlink:href="#a"/><use y="0" xlink:href="#5"/><use y="2.171" xlink:href="#10"/><use y="4.342" xlink:href="#15"/><use y="6.513" xlink:href="#16"/><text x="1.002" y="12.525" class="f">▀</text><text x="3.006" y="12.525" class="g">It&apos;s</text><text x="8.016" y="12.525" class="g">really</text><text x="15.03" y="12.525" class="g">much</text></svg><svg x="3440"><use xlink:href="#a"/><use y="0" xlink:href="#5"/><use y="2.171" xlink:href="#10"/><use y="4.342" xlink:href="#15"/><use y="6.513" xlink:href="#16"/><use y="10.855" xlink:href="#19"/></svg><svg x="3520"><use xlink:href="#a"/><use y="0" xlink:href="#5"/><use y="2.171" xlink:href="#10"/><use y="4.342" xlink:href="#15"/><use y="6.513" xlink:href="#16"/><text x="0" y="12.525" class="f">▄</text><text x="3.006" y="12.525" class="g">We&apos;re</text><text x="9.018" y="12.525" class="g">nearly</text><text x="16.032" y="12.525" class="g">done!</text></svg><svg x="3600"><use xlink:href="#a"/><use y="0" xlink:href="#5"/><use y="2.171" xlink:href="#10"/><use y="4.342" xlink:href="#15"/><use y="6.513" xlink:href="#16"/><text x="0" y="12.525" class="f">▀</text><text x="3.006" y="12.525" class="g">We&apos;re</text><text x="9.018" y="12.525" class="g">nearly</text><text x="16.032" y="12.525" class="g">done!</text></svg><svg x="3680"><use xlink:href="#a"/><use y="0" xlink:href="#5"/><use y="2.171" xlink:href="#10"/><use y="4.342" xlink:href="#15"/><use y="6.513" xlink:href="#16"/><text x="1.002" y="12.525" class="f">▀</text><text x="3.006" y="12.525" class="g">We&apos;re</text><text x="9.018" y="12.525" class="g">nearly</text><text x="16.032" y="12.525" class="g">done!</text></svg><svg x="3760"><use xlink:href="#a"/><use y="0" xlink:href="#5"/><use y="2.171" xlink:href="#10"/><use y="4.342" xlink:href="#15"/><use y="6.513" xlink:href="#16"/><use y="10.855" xlink:href="#19"/></svg><svg x="3840"><use xlink:href="#a"/><use y="0" xlink:href="#5"/><use y="2.171" xlink:href="#10"/><use y="4.342" xlink:href="#15"/><use y="6.513" xlink:href="#16"/><use y="10.855" xlink:href="#20"/></svg><svg x="3920"><use xlink:href="#a"/><use y="0" xlink:href="#5"/><use y="2.171" xlink:href="#10"/><use y="4.342" xlink:href="#15"/><use y="6.513" xlink:href="#16"/><use y="10.855" xlink:href="#20"/><text x="0" y="16.867" class="s">Restarting</text><text x="11.022" y="16.867" class="s">animation...</text></svg></svg></g></g></svg></svg>