<svg xmlns="http://www.w3.org/2000/svg" xmlns:xlink="http://www.w3.org/1999/xlink" width="840" height="581.04"><rect width="840" height="581.04" class="a" rx="5" ry="5"/><svg x="0%" y="0%"><circle cx="20" cy="20" r="6" class="b"/><circle cx="40" cy="20" r="6" class="c"/><circle cx="60" cy="20" r="6" class="d"/></svg><svg xmlns="http://www.w3.org/2000/svg" xmlns:xlink="http://www.w3.org/1999/xlink" width="800" height="521.04" x="15" y="50" viewBox="0 0 80 52.104"><style>@keyframes aA{0%{transform:translateX(0)}7.9%{transform:translateX(-240px)}}.e,.f,.g{font-family:&apos;Courier New&apos; Roboto,Helvetica,Arial,sans-serif,&apos;Apple Color Emoji&apos;,&apos;Segoe UI Emoji&apos;!important}.a{fill:#232323}.b{fill:#ff5f58}.c{fill:#ffbd2e}.d{fill:#18c132}.f{fill:#66c2cd}.g,.h,.i,.j,.k,.l{white-space:pre}.h{fill:#0ff}.i{fill:#04faff}.j{fill:#08f6ff}.k{fill:#11edff}.l{fill:#15e9ff}.m{fill:#1ae4ff}.m,.n,.o,.p,.q,.r{white-space:pre}.n{fill:#1ee0ff}.o{fill:#23dbff}.p{fill:#27d7ff}.q{fill:#30ceff}.r{fill:#34caff}.s{fill:#39c5ff}.s,.t,.u,.v,.w,.x{white-space:pre}.t{fill:#3dc1ff}.u{fill:#46b8ff}.v{fill:#4ab4ff}.w{fill:#4fafff}.x{fill:#53abff}.A,.B,.C,.D,.y,.z{white-space:pre}.y{fill:#5ca2ff}.z{fill:#609eff}.A{fill:#6995ff}.B{fill:#6d91ff}.C{fill:#728cff}.D{fill:#7688ff}.E{fill:#7b83ff}.E,.F,.G,.H,.I,.J{white-space:pre}.F{fill:#7f7fff}.G{fill:#837bff}.H{fill:#8876ff}.I{fill:#8c72ff}.J{fill:#9569ff}.K{fill:#9965ff}.K,.L,.M,.N,.O,.P{white-space:pre}.L{fill:#9e60ff}.M{fill:#a25cff}.N{fill:#a757ff}.O{fill:#af4fff}.P{fill:#b44aff}.Q{fill:#b846ff}.Q,.R,.S,.T,.U,.V{white-space:pre}.R{fill:#bd41ff}.S{fill:#c13dff}.T{fill:#c539ff}.U{fill:#ca34ff}.V{fill:#d32bff}.W{fill:#d727ff}.W,.X,.Y,.Z,.aa{white-space:pre}.X{fill:#db23ff}.Y{fill:#e01eff}.Z{fill:#e41aff}.aa{fill:#e915ff}.ab{fill:#ed11ff}.ab,.ac,.ad,.ae{white-space:pre}.ac{fill:#f10dff}.ad{fill:#f608ff}.ae{fill:#fa04ff}.af{fill:#2ed0ff}.af,.ag,.ah,.ai{white-space:pre}.ag{fill:#8b73ff}.ah{fill:#b945ff}.ai{fill:#e717ff}.aj{fill:#ff00e7}.aj,.ak,.al,.am{white-space:pre}.ak{fill:#ff00b9}.al{fill:#ff008b}.am{fill:#ff005c}.an{fill:#ff002e}.an,.ao,.ap,.aq{white-space:pre}.ao{fill:red}.ap{fill:#d02e00}.aq{fill:#a25c00}.ar{fill:#738b00}.ar,.as,.at,.au{white-space:pre}.as{fill:#45b900}.at{fill:#17e700}.au{fill:#17ff17}.av{fill:#45ff45}.av,.aw,.ax,.ay{white-space:pre}.aw{fill:#73ff73}.ax{fill:#a2ffa2}.ay{fill:#d0ffd0}.az{fill:transparent}.aB{animation-duration:5.430591s;animation-iteration-count:infinite;animation-name:aA;animation-timing-function:steps(1,end)}.aC{fill:#a0a0a0;white-space:pre}</style><g class="e" font-family="'JetBrainsMono',Monaco, Consolas, Menlo, 'Bitstream Vera Sans Mono', 'Powerline Symbols', monospace" font-size="1.67"><defs><symbol id="1"><rect width="6" height="2.171" x="0" y="0" class="f"/><text x="0" y="1.67" class="g">INFO</text><text x="7.014" y="1.67" class="h">R</text><text x="8.016" y="1.67" class="i">G</text><text x="9.018" y="1.67" class="j">B</text><text x="11.022" y="1.67" class="k">c</text><text x="12.024" y="1.67" class="l">o</text><text x="13.026" y="1.67" class="m">l</text><text x="14.028" y="1.67" class="n">o</text><text x="15.03" y="1.67" class="o">r</text><text x="16.032" y="1.67" class="p">s</text><text x="18.036" y="1.67" class="q">o</text><text x="19.038" y="1.67" class="r">n</text><text x="20.04" y="1.67" class="s">l</text><text x="21.042" y="1.67" class="t">y</text><text x="23.046" y="1.67" class="u">w</text><text x="24.048" y="1.67" class="v">o</text><text x="25.05" y="1.67" class="w">r</text><text x="26.052" y="1.67" class="x">k</text><text x="28.056" y="1.67" class="y">i</text><text x="29.058" y="1.67" class="z">n</text><text x="31.062" y="1.67" class="A">T</text><text x="32.064" y="1.67" class="B">e</text><text x="33.066" y="1.67" class="C">r</text><text x="34.068" y="1.67" class="D">m</text><text x="35.07" y="1.67" class="E">i</text><text x="36.072" y="1.67" class="F">n</text><text x="37.074" y="1.67" class="G">a</text><text x="38.076" y="1.67" class="H">l</text><text x="39.078" y="1.67" class="I">s</text><text x="41.082" y="1.67" class="J">w</text><text x="42.084" y="1.67" class="K">h</text><text x="43.086" y="1.67" class="L">i</text><text x="44.088" y="1.67" class="M">c</text><text x="45.09" y="1.67" class="N">h</text><text x="47.094" y="1.67" class="O">s</text><text x="48.096" y="1.67" class="P">u</text><text x="49.098" y="1.67" class="Q">p</text><text x="50.1" y="1.67" class="R">p</text><text x="51.102" y="1.67" class="S">o</text><text x="52.104" y="1.67" class="T">r</text><text x="53.106" y="1.67" class="U">t</text><text x="55.11" y="1.67" class="V">T</text><text x="56.112" y="1.67" class="W">r</text><text x="57.114" y="1.67" class="X">u</text><text x="58.116" y="1.67" class="Y">e</text><text x="59.118" y="1.67" class="Z">C</text><text x="60.12" y="1.67" class="aa">o</text><text x="61.122" y="1.67" class="ab">l</text><text x="62.124" y="1.67" class="ac">o</text><text x="63.126" y="1.67" class="ad">r</text><text x="64.128" y="1.67" class="ae">.</text></symbol><symbol id="2"><text x="0" y="1.67" class="h">Hello,</text><text x="7.014" y="1.67" class="h">World!</text></symbol><symbol id="3"><text x="0" y="1.67" class="af">Hello,</text><text x="7.014" y="1.67" class="af">World!</text></symbol><symbol id="4"><text x="0" y="1.67" class="y">Hello,</text><text x="7.014" y="1.67" class="y">World!</text></symbol><symbol id="5"><text x="0" y="1.67" class="ag">Hello,</text><text x="7.014" y="1.67" class="ag">World!</text></symbol><symbol id="6"><text x="0" y="1.67" class="ah">Hello,</text><text x="7.014" y="1.67" class="ah">World!</text></symbol><symbol id="7"><text x="0" y="1.67" class="ai">Hello,</text><text x="7.014" y="1.67" class="ai">World!</text></symbol><symbol id="8"><text x="0" y="1.67" class="aj">Hello,</text><text x="7.014" y="1.67" class="aj">World!</text></symbol><symbol id="9"><text x="0" y="1.67" class="ak">Hello,</text><text x="7.014" y="1.67" class="ak">World!</text></symbol><symbol id="10"><text x="0" y="1.67" class="al">Hello,</text><text x="7.014" y="1.67" class="al">World!</text></symbol><symbol id="11"><text x="0" y="1.67" class="am">Hello,</text><text x="7.014" y="1.67" class="am">World!</text></symbol><symbol id="12"><text x="0" y="1.67" class="an">Hello,</text><text x="7.014" y="1.67" class="an">World!</text></symbol><symbol id="13"><text x="0" y="1.67" class="ao">Hello,</text><text x="7.014" y="1.67" class="ao">World!</text></symbol><symbol id="14"><text x="0" y="1.67" class="ap">Hello,</text><text x="7.014" y="1.67" class="ap">World!</text></symbol><symbol id="15"><text x="0" y="1.67" class="aq">Hello,</text><text x="7.014" y="1.67" class="aq">World!</text></symbol><symbol id="16"><text x="0" y="1.67" class="ar">Hello,</text><text x="7.014" y="1.67" class="ar">World!</text></symbol><symbol id="17"><text x="0" y="1.67" class="as">Hello,</text><text x="7.014" y="1.67" class="as">World!</text></symbol><symbol id="18"><text x="0" y="1.67" class="at">Hello,</text><text x="7.014" y="1.67" class="at">World!</text></symbol><symbol id="19"><text x="0" y="1.67" class="au">Hello,</text><text x="7.014" y="1.67" class="au">World!</text></symbol><symbol id="20"><text x="0" y="1.67" class="av">Hello,</text><text x="7.014" y="1.67" class="av">World!</text></symbol><symbol id="21"><text x="0" y="1.67" class="aw">Hello,</text><text x="7.014" y="1.67" class="aw">World!</text></symbol><symbol id="22"><text x="0" y="1.67" class="ax">Hello,</text><text x="7.014" y="1.67" class="ax">World!</text></symbol><symbol id="23"><text x="0" y="1.67" class="ay">Hello,</text><text x="7.014" y="1.67" class="ay">World!</text></symbol><symbol id="a"><rect width="80" height="24" x="0" y="0" class="az"/></symbol></defs><rect width="80" height="52.104" class="a"/><g class="aB"><svg width="400" x="0" y="0"><svg x="0"><use xlink:href="#a"/></svg><svg x="80"><use xlink:href="#a"/><rect width="6" height="2.171" x="0" y="0" class="f"/><text x="0" y="1.67" class="g">INFO</text><text x="7.014" y="1.67" class="h">R</text><text x="8.016" y="1.67" class="i">G</text><text x="9.018" y="1.67" class="j">B</text><text x="11.022" y="1.67" class="k">c</text><text x="12.024" y="1.67" class="l">o</text><text x="13.026" y="1.67" class="m">l</text><text x="14.028" y="1.67" class="n">o</text><text x="15.03" y="1.67" class="o">r</text><text x="16.032" y="1.67" class="p">s</text><text x="18.036" y="1.67" class="q">o</text><text x="19.038" y="1.67" class="r">n</text><text x="20.04" y="1.67" class="s">l</text><text x="21.042" y="1.67" class="t">y</text><text x="23.046" y="1.67" class="u">w</text><text x="24.048" y="1.67" class="v">o</text><text x="25.05" y="1.67" class="w">r</text><text x="26.052" y="1.67" class="x">k</text><text x="28.056" y="1.67" class="y">i</text><text x="29.058" y="1.67" class="z">n</text><text x="31.062" y="1.67" class="A">T</text><text x="32.064" y="1.67" class="B">e</text><text x="33.066" y="1.67" class="C">r</text><text x="34.068" y="1.67" class="D">m</text><text x="35.07" y="1.67" class="E">i</text><text x="36.072" y="1.67" class="F">n</text><text x="37.074" y="1.67" class="G">a</text><text x="38.076" y="1.67" class="H">l</text><text x="39.078" y="1.67" class="I">s</text><text x="41.082" y="1.67" class="J">w</text><text x="42.084" y="1.67" class="K">h</text><text x="43.086" y="1.67" class="L">i</text><text x="44.088" y="1.67" class="M">c</text><text x="45.09" y="1.67" class="N">h</text><text x="47.094" y="1.67" class="O">s</text></svg><svg x="160"><use xlink:href="#a"/><use y="0" xlink:href="#1"/><use y="2.171" xlink:href="#2"/><use y="4.342" xlink:href="#3"/><use y="6.513" xlink:href="#4"/><use y="8.684" xlink:href="#5"/><use y="10.855" xlink:href="#6"/><use y="13.026" xlink:href="#7"/><use y="15.197" xlink:href="#8"/><use y="17.368" xlink:href="#9"/><use y="19.539" xlink:href="#10"/><use y="21.71" xlink:href="#11"/><use y="23.881" xlink:href="#12"/><use y="26.052" xlink:href="#13"/><use y="28.223" xlink:href="#14"/><use y="30.394" xlink:href="#15"/><use y="32.565" xlink:href="#16"/><use y="34.736" xlink:href="#17"/><use y="36.907" xlink:href="#18"/></svg><svg x="240"><use xlink:href="#a"/><use y="0" xlink:href="#1"/><use y="2.171" xlink:href="#2"/><use y="4.342" xlink:href="#3"/><use y="6.513" xlink:href="#4"/><use y="8.684" xlink:href="#5"/><use y="10.855" xlink:href="#6"/><use y="13.026" xlink:href="#7"/><use y="15.197" xlink:href="#8"/><use y="17.368" xlink:href="#9"/><use y="19.539" xlink:href="#10"/><use y="21.71" xlink:href="#11"/><use y="23.881" xlink:href="#12"/><use y="26.052" xlink:href="#13"/><use y="28.223" xlink:href="#14"/><use y="30.394" xlink:href="#15"/><use y="32.565" xlink:href="#16"/><use y="34.736" xlink:href="#17"/><use y="36.907" xlink:href="#18"/><use y="39.078" xlink:href="#19"/><use y="41.249" xlink:href="#20"/><use y="43.42" xlink:href="#21"/><use y="45.591" xlink:href="#22"/><use y="47.762" xlink:href="#23"/></svg><svg x="320"><use xlink:href="#a"/><use y="0" xlink:href="#3"/><use y="2.171" xlink:href="#4"/><use y="4.342" xlink:href="#5"/><use y="6.513" xlink:href="#6"/><use y="8.684" xlink:href="#7"/><use y="10.855" xlink:href="#8"/><use y="13.026" xlink:href="#9"/><use y="15.197" xlink:href="#10"/><use y="17.368" xlink:href="#11"/><use y="19.539" xlink:href="#12"/><use y="21.71" xlink:href="#13"/><use y="23.881" xlink:href="#14"/><use y="26.052" xlink:href="#15"/><use y="28.223" xlink:href="#16"/><use y="30.394" xlink:href="#17"/><use y="32.565" xlink:href="#18"/><use y="34.736" xlink:href="#19"/><use y="36.907" xlink:href="#20"/><use y="39.078" xlink:href="#21"/><use y="41.249" xlink:href="#22"/><use y="43.42" xlink:href="#23"/><text x="0" y="49.432" class="aC">Restarting</text><text x="11.022" y="49.432" class="aC">animation...</text></svg></svg></g></g></svg></svg>