<svg xmlns="http://www.w3.org/2000/svg" xmlns:xlink="http://www.w3.org/1999/xlink" width="840" height="581.04"><rect width="840" height="581.04" class="a" rx="5" ry="5"/><svg x="0%" y="0%"><circle cx="20" cy="20" r="6" class="b"/><circle cx="40" cy="20" r="6" class="c"/><circle cx="60" cy="20" r="6" class="d"/></svg><svg xmlns="http://www.w3.org/2000/svg" xmlns:xlink="http://www.w3.org/1999/xlink" width="800" height="521.04" x="15" y="50" viewBox="0 0 80 52.104"><style>@keyframes k{0%{transform:translateX(0)}8%{transform:translateX(-80px)}}.e,.f,.g{font-family:&apos;Courier New&apos; Roboto,Helvetica,Arial,sans-serif,&apos;Apple Color Emoji&apos;,&apos;Segoe UI Emoji&apos;!important}.a{fill:#232323}.b{fill:#ff5f58}.c{fill:#ffbd2e}.d{fill:#18c132}.f{fill:#a0a0a0;white-space:pre}.g{fill:#6f7783}.h,.i{white-space:pre}.h{fill:#fff;font-weight:700}.i{fill:#ff0004}.j{fill:transparent}.l{animation-duration:5.432556s;animation-iteration-count:infinite;animation-name:k;animation-timing-function:steps(1,end)}</style><g class="e" font-family="'JetBrainsMono',Monaco, Consolas, Menlo, 'Bitstream Vera Sans Mono', 'Powerline Symbols', monospace" font-size="1.67"><defs><symbol id="1"><text x="0" y="1.67" class="f">This</text><text x="5.01" y="1.67" class="f">is</text><text x="8.016" y="1.67" class="f">the</text><text x="12.024" y="1.67" class="f">first</text><text x="18.036" y="1.67" class="f">panel</text><rect width="23" height="2.171" x="28.056" y="0" class="g"/><text x="56.112" y="1.67" class="f">This</text></symbol><symbol id="2"><rect width="23" height="2.171" x="28.056" y="0" class="g"/><text x="28.056" y="1.67" class="h">Hello, World!</text><text x="56.112" y="1.67" class="f">panel</text></symbol><symbol id="3"><rect width="23" height="2.171" x="28.056" y="0" class="g"/><text x="56.112" y="1.67" class="f">contains</text></symbol><symbol id="4"><text x="56.112" y="1.67" class="f">multiple</text></symbol><symbol id="5"><text x="56.112" y="1.67" class="f">lines</text></symbol><symbol id="6"><text x="0" y="1.67" class="i">This</text><text x="5.01" y="1.67" class="i">is</text><text x="8.016" y="1.67" class="i">another</text><text x="20.04" y="1.67" class="f">This</text><text x="25.05" y="1.67" class="f">is</text><text x="28.056" y="1.67" class="f">the</text><text x="32.064" y="1.67" class="f">second</text><text x="39.078" y="1.67" class="f">panel</text></symbol><symbol id="7"><text x="0" y="1.67" class="i">panel</text><text x="6.012" y="1.67" class="i">line</text><text x="20.04" y="1.67" class="f">with</text><text x="25.05" y="1.67" class="f">a</text><text x="27.054" y="1.67" class="f">new</text><text x="31.062" y="1.67" class="f">line</text></symbol><symbol id="a"><rect width="80" height="24" x="0" y="0" class="j"/></symbol></defs><rect width="80" height="52.104" class="a"/><g class="l"><svg width="240" x="0" y="0"><svg x="0"><use xlink:href="#a"/></svg><svg x="80"><use xlink:href="#a"/><use y="0" xlink:href="#1"/><use y="2.171" xlink:href="#2"/><use y="4.342" xlink:href="#3"/><use y="6.513" xlink:href="#4"/><use y="8.684" xlink:href="#5"/><use y="10.855" xlink:href="#6"/><use y="13.026" xlink:href="#7"/></svg><svg x="160"><use xlink:href="#a"/><use y="0" xlink:href="#1"/><use y="2.171" xlink:href="#2"/><use y="4.342" xlink:href="#3"/><use y="6.513" xlink:href="#4"/><use y="8.684" xlink:href="#5"/><use y="10.855" xlink:href="#6"/><use y="13.026" xlink:href="#7"/><text x="0" y="21.209" class="f">Restarting</text><text x="11.022" y="21.209" class="f">animation...</text></svg></svg></g></g></svg></svg>