<svg xmlns="http://www.w3.org/2000/svg" xmlns:xlink="http://www.w3.org/1999/xlink" width="840" height="581.04"><rect width="840" height="581.04" class="a" rx="5" ry="5"/><svg x="0%" y="0%"><circle cx="20" cy="20" r="6" class="b"/><circle cx="40" cy="20" r="6" class="c"/><circle cx="60" cy="20" r="6" class="d"/></svg><svg xmlns="http://www.w3.org/2000/svg" xmlns:xlink="http://www.w3.org/1999/xlink" width="800" height="521.04" x="15" y="50" viewBox="0 0 80 52.104"><style>@keyframes v{0%{transform:translateX(0)}8%{transform:translateX(-160px)}}.e,.f,.g{font-family:&apos;Courier New&apos; Roboto,Helvetica,Arial,sans-serif,&apos;Apple Color Emoji&apos;,&apos;Segoe UI Emoji&apos;!important}.a{fill:#232323}.b{fill:#ff5f58}.c{fill:#ffbd2e}.d{fill:#18c132}.f,.g{fill:#ff0004;white-space:pre}.g{fill:#7cff00}.h{fill:#00c6ff}.h,.i,.j,.k,.l,.m,.n{white-space:pre}.j{fill:#fff100}.k{fill:#0047ff}.l{fill:#f0f}.m{fill:#cfcfcf}.n{fill:#f35656}.o{fill:#7ffd7f}.o,.p,.q,.r,.s,.t{white-space:pre}.p{fill:#dcef8b}.q{fill:#98a1fe}.r{fill:#ea59f6}.s{fill:#7ee7e9}.t{fill:#fff}.u{fill:transparent}.w{animation-duration:5.436647s;animation-iteration-count:infinite;animation-name:v;animation-timing-function:steps(1,end)}.x{fill:#a0a0a0;white-space:pre}</style><g class="e" font-family="'JetBrainsMono',Monaco, Consolas, Menlo, 'Bitstream Vera Sans Mono', 'Powerline Symbols', monospace" font-size="1.67"><defs><symbol id="1"><text x="0" y="1.67" class="f">Hello,</text><text x="7.014" y="1.67" class="g">World</text><text x="12.024" y="1.67" class="h">!</text></symbol><symbol id="2"><text x="0" y="1.67" class="f">Even</text><text x="5.01" y="1.67" class="h">nested</text><text x="12.024" y="1.67" class="g">colors</text><text x="19.038" y="1.67" class="f">are</text><text x="23.046" y="1.67" class="f">supported!</text></symbol><symbol id="3"><text x="0" y="1.67" class="i">FgBlack</text></symbol><symbol id="4"><text x="0" y="1.67" class="f">FgRed</text></symbol><symbol id="5"><text x="0" y="1.67" class="g">FgGreen</text></symbol><symbol id="6"><text x="0" y="1.67" class="j">FgYellow</text></symbol><symbol id="7"><text x="0" y="1.67" class="k">FgBlue</text></symbol><symbol id="8"><text x="0" y="1.67" class="l">FgMagenta</text></symbol><symbol id="9"><text x="0" y="1.67" class="h">FgCyan</text></symbol><symbol id="10"><text x="0" y="1.67" class="m">FgWhite</text></symbol><symbol id="11"><text x="0" y="1.67" class="n">FgLightRed</text></symbol><symbol id="12"><text x="0" y="1.67" class="o">FgLightGreen</text></symbol><symbol id="13"><text x="0" y="1.67" class="p">FgLightYellow</text></symbol><symbol id="14"><text x="0" y="1.67" class="q">FgLightBlue</text></symbol><symbol id="15"><text x="0" y="1.67" class="r">FgLightMagenta</text></symbol><symbol id="16"><text x="0" y="1.67" class="s">FgLightCyan</text></symbol><symbol id="17"><text x="0" y="1.67" class="t">FgLightWhite</text></symbol><symbol id="a"><rect width="80" height="24" x="0" y="0" class="u"/></symbol></defs><rect width="80" height="52.104" class="a"/><g class="w"><svg width="320" x="0" y="0"><svg x="0"><use xlink:href="#a"/></svg><svg x="80"><use xlink:href="#a"/><use y="0" xlink:href="#1"/><use y="2.171" xlink:href="#2"/></svg><svg x="160"><use xlink:href="#a"/><use y="0" xlink:href="#1"/><use y="2.171" xlink:href="#2"/><use y="4.342" xlink:href="#3"/><use y="6.513" xlink:href="#4"/><use y="8.684" xlink:href="#5"/><use y="10.855" xlink:href="#6"/><use y="13.026" xlink:href="#7"/><use y="15.197" xlink:href="#8"/><use y="17.368" xlink:href="#9"/><use y="19.539" xlink:href="#10"/><use y="23.881" xlink:href="#11"/><use y="26.052" xlink:href="#12"/><use y="28.223" xlink:href="#13"/><use y="30.394" xlink:href="#14"/><use y="32.565" xlink:href="#15"/><use y="34.736" xlink:href="#16"/><use y="36.907" xlink:href="#17"/></svg><svg x="240"><use xlink:href="#a"/><use y="0" xlink:href="#1"/><use y="2.171" xlink:href="#2"/><use y="4.342" xlink:href="#3"/><use y="6.513" xlink:href="#4"/><use y="8.684" xlink:href="#5"/><use y="10.855" xlink:href="#6"/><use y="13.026" xlink:href="#7"/><use y="15.197" xlink:href="#8"/><use y="17.368" xlink:href="#9"/><use y="19.539" xlink:href="#10"/><use y="23.881" xlink:href="#11"/><use y="26.052" xlink:href="#12"/><use y="28.223" xlink:href="#13"/><use y="30.394" xlink:href="#14"/><use y="32.565" xlink:href="#15"/><use y="34.736" xlink:href="#16"/><use y="36.907" xlink:href="#17"/><text x="0" y="42.919" class="x">Restarting</text><text x="11.022" y="42.919" class="x">animation...</text></svg></svg></g></g></svg></svg>