<svg xmlns="http://www.w3.org/2000/svg" xmlns:xlink="http://www.w3.org/1999/xlink" width="840" height="581.04"><rect width="840" height="581.04" class="a" rx="5" ry="5"/><svg x="0%" y="0%"><circle cx="20" cy="20" r="6" class="b"/><circle cx="40" cy="20" r="6" class="c"/><circle cx="60" cy="20" r="6" class="d"/></svg><svg xmlns="http://www.w3.org/2000/svg" xmlns:xlink="http://www.w3.org/1999/xlink" width="800" height="521.04" x="15" y="50" viewBox="0 0 80 52.104"><style>@keyframes k{0%{transform:translateX(0)}8.1%{transform:translateX(-480px)}8.2%{transform:translateX(-640px)}}.e,.f,.g{font-family:&apos;Courier New&apos; Roboto,Helvetica,Arial,sans-serif,&apos;Apple Color Emoji&apos;,&apos;Segoe UI Emoji&apos;!important}.a{fill:#232323}.b{fill:#ff5f58}.c{fill:#ffbd2e}.d{fill:#18c132}.f{fill:#66c2cd}.g,.h,.i{white-space:pre}.h{fill:#7ee7e9}.i{fill:#a0a0a0}.j{fill:transparent}.l{animation-duration:5.443688s;animation-iteration-count:infinite;animation-name:k;animation-timing-function:steps(1,end)}</style><g class="e" font-family="'JetBrainsMono',Monaco, Consolas, Menlo, 'Bitstream Vera Sans Mono', 'Powerline Symbols', monospace" font-size="1.67"><defs><symbol id="1"><rect width="6" height="2.171" x="0" y="0" class="f"/><text x="0" y="1.67" class="g">INFO</text><text x="7.014" y="1.67" class="h">This</text><text x="12.024" y="1.67" class="h">might</text><text x="18.036" y="1.67" class="h">not</text><text x="22.044" y="1.67" class="h">be</text><text x="25.05" y="1.67" class="h">rendered</text><text x="34.068" y="1.67" class="h">correctly</text><text x="44.088" y="1.67" class="h">on</text><text x="47.094" y="1.67" class="h">GitHub,</text></symbol><symbol id="2"><rect width="6" height="2.171" x="0" y="0" class="f"/><text x="7.014" y="1.67" class="h">but</text><text x="11.022" y="1.67" class="h">it</text><text x="14.028" y="1.67" class="h">will</text><text x="19.038" y="1.67" class="h">work</text><text x="24.048" y="1.67" class="h">in</text><text x="27.054" y="1.67" class="h">a</text><text x="29.058" y="1.67" class="h">real</text><text x="34.068" y="1.67" class="h">terminal.</text></symbol><symbol id="3"><rect width="6" height="2.171" x="0" y="0" class="f"/><text x="7.014" y="1.67" class="h">This</text><text x="12.024" y="1.67" class="h">is</text><text x="15.03" y="1.67" class="h">because</text><text x="23.046" y="1.67" class="h">GitHub</text><text x="30.06" y="1.67" class="h">does</text><text x="35.07" y="1.67" class="h">not</text><text x="39.078" y="1.67" class="h">use</text><text x="43.086" y="1.67" class="h">a</text><text x="45.09" y="1.67" class="h">monospaced</text><text x="56.112" y="1.67" class="h">font</text><text x="61.122" y="1.67" class="h">by</text><text x="64.128" y="1.67" class="h">default</text><text x="72.144" y="1.67" class="h">for</text><text x="76.152" y="1.67" class="h">SVGs</text></symbol><symbol id="4"><text x="0" y="1.67" class="h">.</text></symbol><symbol id="5"><text x="0" y="1.67" class="i">┌────────────────────────────────────────────────────────────────────┐</text></symbol><symbol id="6"><text x="0" y="1.67" class="i">|</text><text x="2.004" y="1.67" class="i">┌──────────────────────────────────┐</text><text x="39.078" y="1.67" class="i">┌───────────────────────────┐</text><text x="69.138" y="1.67" class="i">|</text></symbol><symbol id="7"><text x="0" y="1.67" class="i">|</text><text x="2.004" y="1.67" class="i">|</text><text x="4.008" y="1.67" class="i">Lorem</text><text x="10.02" y="1.67" class="i">ipsum</text><text x="16.032" y="1.67" class="i">dolor</text><text x="22.044" y="1.67" class="i">sit</text><text x="26.052" y="1.67" class="i">amet,</text><text x="37.074" y="1.67" class="i">|</text><text x="39.078" y="1.67" class="i">|</text><text x="41.082" y="1.67" class="i">Ut</text><text x="44.088" y="1.67" class="i">enim</text><text x="49.098" y="1.67" class="i">ad</text><text x="52.104" y="1.67" class="i">minim</text><text x="58.116" y="1.67" class="i">veniam,</text><text x="67.134" y="1.67" class="i">|</text><text x="69.138" y="1.67" class="i">|</text></symbol><symbol id="8"><text x="0" y="1.67" class="i">|</text><text x="2.004" y="1.67" class="i">|</text><text x="4.008" y="1.67" class="i">consectetur</text><text x="16.032" y="1.67" class="i">adipiscing</text><text x="27.054" y="1.67" class="i">elit,</text><text x="37.074" y="1.67" class="i">|</text><text x="39.078" y="1.67" class="i">|</text><text x="41.082" y="1.67" class="i">quis</text><text x="46.092" y="1.67" class="i">nostrud</text><text x="54.108" y="1.67" class="i">exercitation</text><text x="67.134" y="1.67" class="i">|</text><text x="69.138" y="1.67" class="i">|</text></symbol><symbol id="9"><text x="0" y="1.67" class="i">|</text><text x="2.004" y="1.67" class="i">|</text><text x="4.008" y="1.67" class="i">sed</text><text x="8.016" y="1.67" class="i">do</text><text x="11.022" y="1.67" class="i">eiusmod</text><text x="19.038" y="1.67" class="i">tempor</text><text x="26.052" y="1.67" class="i">incididunt</text><text x="37.074" y="1.67" class="i">|</text><text x="39.078" y="1.67" class="i">|</text><text x="41.082" y="1.67" class="i">ullamco</text><text x="49.098" y="1.67" class="i">laboris</text><text x="67.134" y="1.67" class="i">|</text><text x="69.138" y="1.67" class="i">|</text></symbol><symbol id="10"><text x="0" y="1.67" class="i">|</text><text x="2.004" y="1.67" class="i">|</text><text x="4.008" y="1.67" class="i">ut</text><text x="7.014" y="1.67" class="i">labore</text><text x="14.028" y="1.67" class="i">et</text><text x="17.034" y="1.67" class="i">dolore</text><text x="37.074" y="1.67" class="i">|</text><text x="39.078" y="1.67" class="i">|</text><text x="41.082" y="1.67" class="i">nisi</text><text x="46.092" y="1.67" class="i">ut</text><text x="49.098" y="1.67" class="i">aliquip</text><text x="67.134" y="1.67" class="i">|</text><text x="69.138" y="1.67" class="i">|</text></symbol><symbol id="11"><text x="0" y="1.67" class="i">|</text><text x="2.004" y="1.67" class="i">|</text><text x="4.008" y="1.67" class="i">magna</text><text x="10.02" y="1.67" class="i">aliqua.</text><text x="37.074" y="1.67" class="i">|</text><text x="39.078" y="1.67" class="i">|</text><text x="41.082" y="1.67" class="i">ex</text><text x="44.088" y="1.67" class="i">ea</text><text x="47.094" y="1.67" class="i">commodo</text><text x="67.134" y="1.67" class="i">|</text><text x="69.138" y="1.67" class="i">|</text></symbol><symbol id="12"><text x="0" y="1.67" class="i">|</text><text x="2.004" y="1.67" class="i">└──────────────────────────────────┘</text><text x="39.078" y="1.67" class="i">|</text><text x="41.082" y="1.67" class="i">consequat.</text><text x="67.134" y="1.67" class="i">|</text><text x="69.138" y="1.67" class="i">|</text></symbol><symbol id="13"><text x="0" y="1.67" class="i">|</text><text x="39.078" y="1.67" class="i">└───────────────────────────┘</text><text x="69.138" y="1.67" class="i">|</text></symbol><symbol id="14"><text x="0" y="1.67" class="i">|</text><text x="2.004" y="1.67" class="i">┌────────────────────────────────┐</text><text x="69.138" y="1.67" class="i">|</text></symbol><symbol id="15"><text x="0" y="1.67" class="i">|</text><text x="2.004" y="1.67" class="i">|</text><text x="4.008" y="1.67" class="i">Duis</text><text x="9.018" y="1.67" class="i">aute</text><text x="14.028" y="1.67" class="i">irure</text><text x="35.07" y="1.67" class="i">|</text><text x="69.138" y="1.67" class="i">|</text></symbol><symbol id="16"><text x="0" y="1.67" class="i">|</text><text x="2.004" y="1.67" class="i">|</text><text x="4.008" y="1.67" class="i">dolor</text><text x="10.02" y="1.67" class="i">in</text><text x="13.026" y="1.67" class="i">reprehenderit</text><text x="35.07" y="1.67" class="i">|</text><text x="69.138" y="1.67" class="i">|</text></symbol><symbol id="17"><text x="0" y="1.67" class="i">|</text><text x="2.004" y="1.67" class="i">|</text><text x="4.008" y="1.67" class="i">in</text><text x="7.014" y="1.67" class="i">voluptate</text><text x="17.034" y="1.67" class="i">velit</text><text x="23.046" y="1.67" class="i">esse</text><text x="28.056" y="1.67" class="i">cillum</text><text x="35.07" y="1.67" class="i">|</text><text x="69.138" y="1.67" class="i">|</text></symbol><symbol id="18"><text x="0" y="1.67" class="i">|</text><text x="2.004" y="1.67" class="i">|</text><text x="4.008" y="1.67" class="i">dolore</text><text x="11.022" y="1.67" class="i">eu</text><text x="14.028" y="1.67" class="i">fugiat</text><text x="35.07" y="1.67" class="i">|</text><text x="69.138" y="1.67" class="i">|</text></symbol><symbol id="19"><text x="0" y="1.67" class="i">|</text><text x="2.004" y="1.67" class="i">|</text><text x="4.008" y="1.67" class="i">nulla</text><text x="10.02" y="1.67" class="i">pariatur.</text><text x="35.07" y="1.67" class="i">|</text><text x="69.138" y="1.67" class="i">|</text></symbol><symbol id="20"><text x="0" y="1.67" class="i">|</text><text x="2.004" y="1.67" class="i">└────────────────────────────────┘</text><text x="69.138" y="1.67" class="i">|</text></symbol><symbol id="21"><text x="0" y="1.67" class="i">|</text><text x="69.138" y="1.67" class="i">|</text></symbol><symbol id="22"><text x="0" y="1.67" class="i">└────────────────────────────────────────────────────────────────────┘</text></symbol><symbol id="a"><rect width="80" height="24" x="0" y="0" class="j"/></symbol></defs><rect width="80" height="52.104" class="a"/><g class="l"><svg width="800" x="0" y="0"><svg x="0"><use xlink:href="#a"/></svg><svg x="80"><use xlink:href="#a"/><use y="0" xlink:href="#1"/><use y="2.171" xlink:href="#2"/><use y="4.342" xlink:href="#3"/><use y="6.513" xlink:href="#4"/></svg><svg x="160"><use xlink:href="#a"/><use y="0" xlink:href="#1"/><use y="2.171" xlink:href="#2"/><use y="4.342" xlink:href="#3"/><use y="6.513" xlink:href="#4"/><use y="8.684" xlink:href="#5"/><text x="0" y="12.525" class="i">|</text><text x="2.004" y="12.525" class="i">┌────────────</text></svg><svg x="240"><use xlink:href="#a"/><use y="0" xlink:href="#1"/><use y="2.171" xlink:href="#2"/><use y="4.342" xlink:href="#3"/><use y="6.513" xlink:href="#4"/><use y="8.684" xlink:href="#5"/><use y="10.855" xlink:href="#6"/><use y="13.026" xlink:href="#7"/><text x="0" y="16.867" class="i">|</text><text x="2.004" y="16.867" class="i">|</text><text x="4.008" y="16.867" class="i">consectetur</text><text x="16.032" y="16.867" class="i">adipiscing</text><text x="27.054" y="16.867" class="i">elit,</text><text x="37.074" y="16.867" class="i">|</text><text x="39.078" y="16.867" class="i">|</text><text x="41.082" y="16.867" class="i">quis</text><text x="46.092" y="16.867" class="i">nostrud</text><text x="54.108" y="16.867" class="i">exerc</text></svg><svg x="320"><use xlink:href="#a"/><use y="0" xlink:href="#1"/><use y="2.171" xlink:href="#2"/><use y="4.342" xlink:href="#3"/><use y="6.513" xlink:href="#4"/><use y="8.684" xlink:href="#5"/><use y="10.855" xlink:href="#6"/><use y="13.026" xlink:href="#7"/><use y="15.197" xlink:href="#8"/><use y="17.368" xlink:href="#9"/><use y="19.539" xlink:href="#10"/><use y="21.71" xlink:href="#11"/><text x="0" y="25.551" class="i">|</text><text x="2.004" y="25.551" class="i">└───────────────────────────────</text></svg><svg x="400"><use xlink:href="#a"/><use y="0" xlink:href="#1"/><use y="2.171" xlink:href="#2"/><use y="4.342" xlink:href="#3"/><use y="6.513" xlink:href="#4"/><use y="8.684" xlink:href="#5"/><use y="10.855" xlink:href="#6"/><use y="13.026" xlink:href="#7"/><use y="15.197" xlink:href="#8"/><use y="17.368" xlink:href="#9"/><use y="19.539" xlink:href="#10"/><use y="21.71" xlink:href="#11"/><use y="23.881" xlink:href="#12"/><use y="26.052" xlink:href="#13"/><text x="0" y="29.893" class="i">|</text><text x="2.004" y="29.893" class="i">┌────────────────────────────────</text></svg><svg x="480"><use xlink:href="#a"/><use y="0" xlink:href="#1"/><use y="2.171" xlink:href="#2"/><use y="4.342" xlink:href="#3"/><use y="6.513" xlink:href="#4"/><use y="8.684" xlink:href="#5"/><use y="10.855" xlink:href="#6"/><use y="13.026" xlink:href="#7"/><use y="15.197" xlink:href="#8"/><use y="17.368" xlink:href="#9"/><use y="19.539" xlink:href="#10"/><use y="21.71" xlink:href="#11"/><use y="23.881" xlink:href="#12"/><use y="26.052" xlink:href="#13"/><use y="28.223" xlink:href="#14"/><use y="30.394" xlink:href="#15"/><use y="32.565" xlink:href="#16"/><use y="34.736" xlink:href="#17"/><use y="36.907" xlink:href="#18"/><use y="39.078" xlink:href="#19"/><text x="0" y="42.919" class="i">|</text><text x="2.004" y="42.919" class="i">└─────────────────</text></svg><svg x="560"><use xlink:href="#a"/><use y="0" xlink:href="#1"/><use y="2.171" xlink:href="#2"/><use y="4.342" xlink:href="#3"/><use y="6.513" xlink:href="#4"/><use y="8.684" xlink:href="#5"/><use y="10.855" xlink:href="#6"/><use y="13.026" xlink:href="#7"/><use y="15.197" xlink:href="#8"/><use y="17.368" xlink:href="#9"/><use y="19.539" xlink:href="#10"/><use y="21.71" xlink:href="#11"/><use y="23.881" xlink:href="#12"/><use y="26.052" xlink:href="#13"/><use y="28.223" xlink:href="#14"/><use y="30.394" xlink:href="#15"/><use y="32.565" xlink:href="#16"/><use y="34.736" xlink:href="#17"/><use y="36.907" xlink:href="#18"/><use y="39.078" xlink:href="#19"/><use y="41.249" xlink:href="#20"/><use y="43.42" xlink:href="#21"/><text x="0" y="47.261" class="i">└───────────────────────────────────────────────────────</text></svg><svg x="640"><use xlink:href="#a"/><use y="0" xlink:href="#1"/><use y="2.171" xlink:href="#2"/><use y="4.342" xlink:href="#3"/><use y="6.513" xlink:href="#4"/><use y="8.684" xlink:href="#5"/><use y="10.855" xlink:href="#6"/><use y="13.026" xlink:href="#7"/><use y="15.197" xlink:href="#8"/><use y="17.368" xlink:href="#9"/><use y="19.539" xlink:href="#10"/><use y="21.71" xlink:href="#11"/><use y="23.881" xlink:href="#12"/><use y="26.052" xlink:href="#13"/><use y="28.223" xlink:href="#14"/><use y="30.394" xlink:href="#15"/><use y="32.565" xlink:href="#16"/><use y="34.736" xlink:href="#17"/><use y="36.907" xlink:href="#18"/><use y="39.078" xlink:href="#19"/><use y="41.249" xlink:href="#20"/><use y="43.42" xlink:href="#21"/><use y="45.591" xlink:href="#22"/></svg><svg x="720"><use xlink:href="#a"/><use y="0" xlink:href="#2"/><use y="2.171" xlink:href="#3"/><use y="4.342" xlink:href="#4"/><use y="6.513" xlink:href="#5"/><use y="8.684" xlink:href="#6"/><use y="10.855" xlink:href="#7"/><use y="13.026" xlink:href="#8"/><use y="15.197" xlink:href="#9"/><use y="17.368" xlink:href="#10"/><use y="19.539" xlink:href="#11"/><use y="21.71" xlink:href="#12"/><use y="23.881" xlink:href="#13"/><use y="26.052" xlink:href="#14"/><use y="28.223" xlink:href="#15"/><use y="30.394" xlink:href="#16"/><use y="32.565" xlink:href="#17"/><use y="34.736" xlink:href="#18"/><use y="36.907" xlink:href="#19"/><use y="39.078" xlink:href="#20"/><use y="41.249" xlink:href="#21"/><use y="43.42" xlink:href="#22"/><text x="0" y="49.432" class="i">Restarting</text><text x="11.022" y="49.432" class="i">animation...</text></svg></svg></g></g></svg></svg>