<svg xmlns="http://www.w3.org/2000/svg" xmlns:xlink="http://www.w3.org/1999/xlink" width="840" height="581.04"><rect width="840" height="581.04" class="a" rx="5" ry="5"/><svg x="0%" y="0%"><circle cx="20" cy="20" r="6" class="b"/><circle cx="40" cy="20" r="6" class="c"/><circle cx="60" cy="20" r="6" class="d"/></svg><svg xmlns="http://www.w3.org/2000/svg" xmlns:xlink="http://www.w3.org/1999/xlink" width="800" height="521.04" x="15" y="50" viewBox="0 0 80 52.104"><style>@keyframes p{0%{transform:translateX(0)}4.5%{transform:translateX(-160px)}8.3%{transform:translateX(-320px)}12.1%{transform:translateX(-400px)}15.9%{transform:translateX(-480px)}19.6%{transform:translateX(-560px)}23.5%{transform:translateX(-640px)}27.3%{transform:translateX(-720px)}31%{transform:translateX(-800px)}34.8%{transform:translateX(-880px)}38.6%{transform:translateX(-960px)}42.4%{transform:translateX(-1120px)}46.1%{transform:translateX(-1280px)}}.e,.f,.g{font-family:&apos;Courier New&apos; Roboto,Helvetica,Arial,sans-serif,&apos;Apple Color Emoji&apos;,&apos;Segoe UI Emoji&apos;!important}.a{fill:#232323}.b{fill:#ff5f58}.c{fill:#ffbd2e}.d{fill:#18c132}.f{fill:#a8cc8c}.g,.h{white-space:pre}.h{fill:#7cff00}.i{fill:#7ee7e9}.i,.j,.k,.l,.m,.n{white-space:pre}.j{fill:#686868}.k{fill:#fff}.l{fill:#00c6ff}.m{fill:#0f0}.n{fill:#a0a0a0}.o{fill:transparent}.q{animation-duration:9.282531s;animation-iteration-count:infinite;animation-name:p;animation-timing-function:steps(1,end)}.r{fill:red}.r,.s,.t,.u,.v,.w{white-space:pre}.s{fill:#e91500}.t{fill:#d42a00}.u{fill:#bf3f00}.v{fill:#a50}.w{fill:#946a00}.A,.B,.C{white-space:pre}.x{fill:#7f7f00}.x,.y,.z{white-space:pre}.y{fill:#6a9400}.z{fill:#5a0}.A{fill:#3fbf00}.B{fill:#2ad400}.C{fill:#15e900}</style><g class="e" font-family="'JetBrainsMono',Monaco, Consolas, Menlo, 'Bitstream Vera Sans Mono', 'Powerline Symbols', monospace" font-size="1.67"><defs><symbol id="1"><rect width="9" height="2.171" x="0" y="0" class="f"/><text x="0" y="1.67" class="g">SUCCESS</text><text x="10.02" y="1.67" class="h">Downloading</text><text x="22.044" y="1.67" class="h">pseudo-excel</text></symbol><symbol id="2"><rect width="9" height="2.171" x="0" y="0" class="f"/><text x="0" y="1.67" class="g">SUCCESS</text><text x="10.02" y="1.67" class="h">Downloading</text><text x="22.044" y="1.67" class="h">pseudo-photoshop</text></symbol><symbol id="3"><rect width="9" height="2.171" x="0" y="0" class="f"/><text x="0" y="1.67" class="g">SUCCESS</text><text x="10.02" y="1.67" class="h">Downloading</text><text x="22.044" y="1.67" class="h">pseudo-chrome</text></symbol><symbol id="4"><rect width="9" height="2.171" x="0" y="0" class="f"/><text x="0" y="1.67" class="g">SUCCESS</text><text x="10.02" y="1.67" class="h">Downloading</text><text x="22.044" y="1.67" class="h">pseudo-outlook</text></symbol><symbol id="5"><rect width="9" height="2.171" x="0" y="0" class="f"/><text x="0" y="1.67" class="g">SUCCESS</text><text x="10.02" y="1.67" class="h">Downloading</text><text x="22.044" y="1.67" class="h">pseudo-explorer</text></symbol><symbol id="6"><rect width="9" height="2.171" x="0" y="0" class="f"/><text x="0" y="1.67" class="g">SUCCESS</text><text x="10.02" y="1.67" class="h">Downloading</text><text x="22.044" y="1.67" class="h">pseudo-dops</text></symbol><symbol id="7"><rect width="9" height="2.171" x="0" y="0" class="f"/><text x="0" y="1.67" class="g">SUCCESS</text><text x="10.02" y="1.67" class="h">Downloading</text><text x="22.044" y="1.67" class="h">pseudo-git</text></symbol><symbol id="8"><rect width="9" height="2.171" x="0" y="0" class="f"/><text x="0" y="1.67" class="g">SUCCESS</text><text x="10.02" y="1.67" class="h">Downloading</text><text x="22.044" y="1.67" class="h">pseudo-vsc</text></symbol><symbol id="9"><rect width="9" height="2.171" x="0" y="0" class="f"/><text x="0" y="1.67" class="g">SUCCESS</text><text x="10.02" y="1.67" class="h">Downloading</text><text x="22.044" y="1.67" class="h">pseudo-intellij</text></symbol><symbol id="10"><rect width="9" height="2.171" x="0" y="0" class="f"/><text x="0" y="1.67" class="g">SUCCESS</text><text x="10.02" y="1.67" class="h">Downloading</text><text x="22.044" y="1.67" class="h">pseudo-minecraft</text></symbol><symbol id="11"><rect width="9" height="2.171" x="0" y="0" class="f"/><text x="0" y="1.67" class="g">SUCCESS</text><text x="10.02" y="1.67" class="h">Downloading</text><text x="22.044" y="1.67" class="h">pseudo-scoop</text></symbol><symbol id="12"><rect width="9" height="2.171" x="0" y="0" class="f"/><text x="0" y="1.67" class="g">SUCCESS</text><text x="10.02" y="1.67" class="h">Downloading</text><text x="22.044" y="1.67" class="h">pseudo-chocolatey</text></symbol><symbol id="13"><text x="0" y="1.67" class="i">Downloading</text><text x="12.024" y="1.67" class="i">pseudo-chocolatey</text><text x="30.06" y="1.67" class="j">[</text><text x="31.062" y="1.67" class="k">12</text><text x="33.066" y="1.67" class="j">/</text><text x="34.068" y="1.67" class="k">12</text><text x="36.072" y="1.67" class="j">]</text><text x="38.076" y="1.67" class="l">████████████████████████████████</text><text x="71.142" y="1.67" class="m">100%</text><text x="76.152" y="1.67" class="n">|</text><text x="78.156" y="1.67" class="n">4s</text></symbol><symbol id="a"><rect width="80" height="24" x="0" y="0" class="o"/></symbol></defs><rect width="80" height="52.104" class="a"/><g class="q"><svg width="1440" x="0" y="0"><svg x="0"><use xlink:href="#a"/></svg><svg x="80"><use xlink:href="#a"/><text x="0" y="1.67" class="i">Downloading</text><text x="12.024" y="1.67" class="i">stuff</text><text x="18.036" y="1.67" class="j">[</text><text x="19.038" y="1.67" class="k">0</text><text x="20.04" y="1.67" class="j">/</text><text x="21.042" y="1.67" class="k">12</text><text x="23.046" y="1.67" class="j">]</text><text x="25.05" y="1.67" class="l">█</text><text x="73.146" y="1.67" class="r">0%</text><text x="76.152" y="1.67" class="n">|</text><text x="78.156" y="1.67" class="n">0s</text></svg><svg x="160"><use xlink:href="#a"/><use y="0" xlink:href="#1"/><text x="0" y="3.841" class="i">Downloading</text><text x="12.024" y="3.841" class="i">pseudo-excel</text><text x="25.05" y="3.841" class="j">[</text><text x="26.052" y="3.841" class="k">1</text><text x="27.054" y="3.841" class="j">/</text><text x="28.056" y="3.841" class="k">12</text><text x="30.06" y="3.841" class="j">]</text><text x="32.064" y="3.841" class="l">████</text><text x="73.146" y="3.841" class="s">8%</text><text x="76.152" y="3.841" class="n">|</text><text x="78.156" y="3.841" class="n">0s</text></svg><svg x="240"><use xlink:href="#a"/><use y="0" xlink:href="#1"/><use y="2.171" xlink:href="#2"/></svg><svg x="320"><use xlink:href="#a"/><use y="0" xlink:href="#1"/><use y="2.171" xlink:href="#2"/><text x="0" y="6.012" class="i">Downloading</text><text x="12.024" y="6.012" class="i">pseudo-photoshop</text><text x="29.058" y="6.012" class="j">[</text><text x="30.06" y="6.012" class="k">2</text><text x="31.062" y="6.012" class="j">/</text><text x="32.064" y="6.012" class="k">12</text><text x="34.068" y="6.012" class="j">]</text><text x="36.072" y="6.012" class="l">██████</text><text x="72.144" y="6.012" class="t">17%</text><text x="76.152" y="6.012" class="n">|</text><text x="78.156" y="6.012" class="n">0s</text></svg><svg x="400"><use xlink:href="#a"/><use y="0" xlink:href="#1"/><use y="2.171" xlink:href="#2"/><use y="4.342" xlink:href="#3"/><text x="0" y="8.183" class="i">Downloading</text><text x="12.024" y="8.183" class="i">pseudo-chrome</text><text x="26.052" y="8.183" class="j">[</text><text x="27.054" y="8.183" class="k">3</text><text x="28.056" y="8.183" class="j">/</text><text x="29.058" y="8.183" class="k">12</text><text x="31.062" y="8.183" class="j">]</text><text x="33.066" y="8.183" class="l">██████████</text><text x="72.144" y="8.183" class="u">25%</text><text x="76.152" y="8.183" class="n">|</text><text x="78.156" y="8.183" class="n">1s</text></svg><svg x="480"><use xlink:href="#a"/><use y="0" xlink:href="#1"/><use y="2.171" xlink:href="#2"/><use y="4.342" xlink:href="#3"/><use y="6.513" xlink:href="#4"/><text x="0" y="10.354" class="i">Downloading</text><text x="12.024" y="10.354" class="i">pseudo-outlook</text><text x="27.054" y="10.354" class="j">[</text><text x="28.056" y="10.354" class="k">4</text><text x="29.058" y="10.354" class="j">/</text><text x="30.06" y="10.354" class="k">12</text><text x="32.064" y="10.354" class="j">]</text><text x="34.068" y="10.354" class="l">█████████████</text><text x="72.144" y="10.354" class="v">33%</text><text x="76.152" y="10.354" class="n">|</text><text x="78.156" y="10.354" class="n">1s</text></svg><svg x="560"><use xlink:href="#a"/><use y="0" xlink:href="#1"/><use y="2.171" xlink:href="#2"/><use y="4.342" xlink:href="#3"/><use y="6.513" xlink:href="#4"/><use y="8.684" xlink:href="#5"/><text x="0" y="12.525" class="i">Downloading</text><text x="12.024" y="12.525" class="i">pseudo-explorer</text><text x="28.056" y="12.525" class="j">[</text><text x="29.058" y="12.525" class="k">5</text><text x="30.06" y="12.525" class="j">/</text><text x="31.062" y="12.525" class="k">12</text><text x="33.066" y="12.525" class="j">]</text><text x="35.07" y="12.525" class="l">███████████████</text><text x="72.144" y="12.525" class="w">42%</text><text x="76.152" y="12.525" class="n">|</text><text x="78.156" y="12.525" class="n">1s</text></svg><svg x="640"><use xlink:href="#a"/><use y="0" xlink:href="#1"/><use y="2.171" xlink:href="#2"/><use y="4.342" xlink:href="#3"/><use y="6.513" xlink:href="#4"/><use y="8.684" xlink:href="#5"/><use y="10.855" xlink:href="#6"/><text x="0" y="14.696" class="i">Downloading</text><text x="12.024" y="14.696" class="i">pseudo-dops</text><text x="24.048" y="14.696" class="j">[</text><text x="25.05" y="14.696" class="k">6</text><text x="26.052" y="14.696" class="j">/</text><text x="27.054" y="14.696" class="k">12</text><text x="29.058" y="14.696" class="j">]</text><text x="31.062" y="14.696" class="l">████████████████████</text><text x="72.144" y="14.696" class="x">50%</text><text x="76.152" y="14.696" class="n">|</text><text x="78.156" y="14.696" class="n">2s</text></svg><svg x="720"><use xlink:href="#a"/><use y="0" xlink:href="#1"/><use y="2.171" xlink:href="#2"/><use y="4.342" xlink:href="#3"/><use y="6.513" xlink:href="#4"/><use y="8.684" xlink:href="#5"/><use y="10.855" xlink:href="#6"/><use y="13.026" xlink:href="#7"/><text x="0" y="16.867" class="i">Downloading</text><text x="12.024" y="16.867" class="i">pseudo-git</text><text x="23.046" y="16.867" class="j">[</text><text x="24.048" y="16.867" class="k">7</text><text x="25.05" y="16.867" class="j">/</text><text x="26.052" y="16.867" class="k">12</text><text x="28.056" y="16.867" class="j">]</text><text x="30.06" y="16.867" class="l">████████████████████████</text><text x="72.144" y="16.867" class="y">58%</text><text x="76.152" y="16.867" class="n">|</text><text x="78.156" y="16.867" class="n">2s</text></svg><svg x="800"><use xlink:href="#a"/><use y="0" xlink:href="#1"/><use y="2.171" xlink:href="#2"/><use y="4.342" xlink:href="#3"/><use y="6.513" xlink:href="#4"/><use y="8.684" xlink:href="#5"/><use y="10.855" xlink:href="#6"/><use y="13.026" xlink:href="#7"/><use y="15.197" xlink:href="#8"/><text x="0" y="19.038" class="i">Downloading</text><text x="12.024" y="19.038" class="i">pseudo-vsc</text><text x="23.046" y="19.038" class="j">[</text><text x="24.048" y="19.038" class="k">8</text><text x="25.05" y="19.038" class="j">/</text><text x="26.052" y="19.038" class="k">12</text><text x="28.056" y="19.038" class="j">]</text><text x="30.06" y="19.038" class="l">███████████████████████████</text><text x="72.144" y="19.038" class="z">67%</text><text x="76.152" y="19.038" class="n">|</text><text x="78.156" y="19.038" class="n">2s</text></svg><svg x="880"><use xlink:href="#a"/><use y="0" xlink:href="#1"/><use y="2.171" xlink:href="#2"/><use y="4.342" xlink:href="#3"/><use y="6.513" xlink:href="#4"/><use y="8.684" xlink:href="#5"/><use y="10.855" xlink:href="#6"/><use y="13.026" xlink:href="#7"/><use y="15.197" xlink:href="#8"/><use y="17.368" xlink:href="#9"/><text x="0" y="21.209" class="i">Downloading</text><text x="12.024" y="21.209" class="i">pseudo-intellij</text><text x="28.056" y="21.209" class="j">[</text><text x="29.058" y="21.209" class="k">9</text><text x="30.06" y="21.209" class="j">/</text><text x="31.062" y="21.209" class="k">12</text><text x="33.066" y="21.209" class="j">]</text><text x="35.07" y="21.209" class="l">███████████████████████████</text><text x="72.144" y="21.209" class="A">75%</text><text x="76.152" y="21.209" class="n">|</text><text x="78.156" y="21.209" class="n">3s</text></svg><svg x="960"><use xlink:href="#a"/><use y="0" xlink:href="#1"/><use y="2.171" xlink:href="#2"/><use y="4.342" xlink:href="#3"/><use y="6.513" xlink:href="#4"/><use y="8.684" xlink:href="#5"/><use y="10.855" xlink:href="#6"/><use y="13.026" xlink:href="#7"/><use y="15.197" xlink:href="#8"/><use y="17.368" xlink:href="#9"/><use y="19.539" xlink:href="#10"/><text x="0" y="23.38" class="i">Downloading</text><text x="12.024" y="23.38" class="i">pseudo-minecraft</text><text x="29.058" y="23.38" class="j">[</text><text x="30.06" y="23.38" class="k">10</text><text x="32.064" y="23.38" class="j">/</text><text x="33.066" y="23.38" class="k">12</text><text x="35.07" y="23.38" class="j">]</text><text x="37.074" y="23.38" class="l">████████████████████████████</text><text x="72.144" y="23.38" class="B">83%</text><text x="76.152" y="23.38" class="n">|</text><text x="78.156" y="23.38" class="n">3s</text></svg><svg x="1040"><use xlink:href="#a"/><use y="0" xlink:href="#1"/><use y="2.171" xlink:href="#2"/><use y="4.342" xlink:href="#3"/><use y="6.513" xlink:href="#4"/><use y="8.684" xlink:href="#5"/><use y="10.855" xlink:href="#6"/><use y="13.026" xlink:href="#7"/><use y="15.197" xlink:href="#8"/><use y="17.368" xlink:href="#9"/><use y="19.539" xlink:href="#10"/><use y="21.71" xlink:href="#11"/></svg><svg x="1120"><use xlink:href="#a"/><use y="0" xlink:href="#1"/><use y="2.171" xlink:href="#2"/><use y="4.342" xlink:href="#3"/><use y="6.513" xlink:href="#4"/><use y="8.684" xlink:href="#5"/><use y="10.855" xlink:href="#6"/><use y="13.026" xlink:href="#7"/><use y="15.197" xlink:href="#8"/><use y="17.368" xlink:href="#9"/><use y="19.539" xlink:href="#10"/><use y="21.71" xlink:href="#11"/><text x="0" y="25.551" class="i">Downloading</text><text x="12.024" y="25.551" class="i">pseudo-scoop</text><text x="25.05" y="25.551" class="j">[</text><text x="26.052" y="25.551" class="k">11</text><text x="28.056" y="25.551" class="j">/</text><text x="29.058" y="25.551" class="k">12</text><text x="31.062" y="25.551" class="j">]</text><text x="33.066" y="25.551" class="l">██████████████████████████████████</text><text x="72.144" y="25.551" class="C">92%</text><text x="76.152" y="25.551" class="n">|</text><text x="78.156" y="25.551" class="n">4s</text></svg><svg x="1200"><use xlink:href="#a"/><use y="0" xlink:href="#1"/><use y="2.171" xlink:href="#2"/><use y="4.342" xlink:href="#3"/><use y="6.513" xlink:href="#4"/><use y="8.684" xlink:href="#5"/><use y="10.855" xlink:href="#6"/><use y="13.026" xlink:href="#7"/><use y="15.197" xlink:href="#8"/><use y="17.368" xlink:href="#9"/><use y="19.539" xlink:href="#10"/><use y="21.71" xlink:href="#11"/><use y="23.881" xlink:href="#12"/></svg><svg x="1280"><use xlink:href="#a"/><use y="0" xlink:href="#1"/><use y="2.171" xlink:href="#2"/><use y="4.342" xlink:href="#3"/><use y="6.513" xlink:href="#4"/><use y="8.684" xlink:href="#5"/><use y="10.855" xlink:href="#6"/><use y="13.026" xlink:href="#7"/><use y="15.197" xlink:href="#8"/><use y="17.368" xlink:href="#9"/><use y="19.539" xlink:href="#10"/><use y="21.71" xlink:href="#11"/><use y="23.881" xlink:href="#12"/><use y="26.052" xlink:href="#13"/></svg><svg x="1360"><use xlink:href="#a"/><use y="0" xlink:href="#1"/><use y="2.171" xlink:href="#2"/><use y="4.342" xlink:href="#3"/><use y="6.513" xlink:href="#4"/><use y="8.684" xlink:href="#5"/><use y="10.855" xlink:href="#6"/><use y="13.026" xlink:href="#7"/><use y="15.197" xlink:href="#8"/><use y="17.368" xlink:href="#9"/><use y="19.539" xlink:href="#10"/><use y="21.71" xlink:href="#11"/><use y="23.881" xlink:href="#12"/><use y="26.052" xlink:href="#13"/><text x="0" y="32.064" class="n">Restarting</text><text x="11.022" y="32.064" class="n">animation...</text></svg></svg></g></g></svg></svg>