<svg xmlns="http://www.w3.org/2000/svg" xmlns:xlink="http://www.w3.org/1999/xlink" width="840" height="581.04"><rect width="840" height="581.04" class="a" rx="5" ry="5"/><svg x="0%" y="0%"><circle cx="20" cy="20" r="6" class="b"/><circle cx="40" cy="20" r="6" class="c"/><circle cx="60" cy="20" r="6" class="d"/></svg><svg xmlns="http://www.w3.org/2000/svg" xmlns:xlink="http://www.w3.org/1999/xlink" width="800" height="521.04" x="15" y="50" viewBox="0 0 80 52.104"><style>@keyframes h{0%{transform:translateX(0)}8%{transform:translateX(-80px)}}.e,.f,.g{font-family:&apos;Courier New&apos; Roboto,Helvetica,Arial,sans-serif,&apos;Apple Color Emoji&apos;,&apos;Segoe UI Emoji&apos;!important}.a{fill:#232323}.b{fill:#ff5f58}.c{fill:#ffbd2e}.d{fill:#18c132}.f{fill:#a0a0a0;white-space:pre}.g{fill:transparent}.i{animation-duration:5.435729s;animation-iteration-count:infinite;animation-name:h;animation-timing-function:steps(1,end)}</style><g class="e" font-family="'JetBrainsMono',Monaco, Consolas, Menlo, 'Bitstream Vera Sans Mono', 'Powerline Symbols', monospace" font-size="1.67"><defs><symbol id="1"><text x="0" y="1.67" class="f">This</text><text x="5.01" y="1.67" class="f">is</text><text x="8.016" y="1.67" class="f">a</text><text x="10.02" y="1.67" class="f">custom</text><text x="17.034" y="1.67" class="f">paragraph</text><text x="27.054" y="1.67" class="f">printer.</text><text x="36.072" y="1.67" class="f">As</text><text x="39.078" y="1.67" class="f">you</text><text x="43.086" y="1.67" class="f">can</text><text x="47.094" y="1.67" class="f">see,</text><text x="52.104" y="1.67" class="f">no</text><text x="55.11" y="1.67" class="f">words</text></symbol><symbol id="2"><text x="0" y="1.67" class="f">are</text><text x="4.008" y="1.67" class="f">separated,</text><text x="15.03" y="1.67" class="f">but</text><text x="19.038" y="1.67" class="f">the</text><text x="23.046" y="1.67" class="f">text</text><text x="28.056" y="1.67" class="f">is</text><text x="31.062" y="1.67" class="f">split</text><text x="37.074" y="1.67" class="f">at</text><text x="40.08" y="1.67" class="f">the</text><text x="44.088" y="1.67" class="f">spaces.</text><text x="52.104" y="1.67" class="f">This</text><text x="57.114" y="1.67" class="f">is</text></symbol><symbol id="3"><text x="0" y="1.67" class="f">useful</text><text x="7.014" y="1.67" class="f">for</text><text x="11.022" y="1.67" class="f">continuous</text><text x="22.044" y="1.67" class="f">text</text><text x="27.054" y="1.67" class="f">of</text><text x="30.06" y="1.67" class="f">all</text><text x="34.068" y="1.67" class="f">kinds.</text><text x="41.082" y="1.67" class="f">You</text><text x="45.09" y="1.67" class="f">can</text><text x="49.098" y="1.67" class="f">manually</text></symbol><symbol id="4"><text x="0" y="1.67" class="f">change</text><text x="7.014" y="1.67" class="f">the</text><text x="11.022" y="1.67" class="f">line</text><text x="16.032" y="1.67" class="f">width</text><text x="22.044" y="1.67" class="f">if</text><text x="25.05" y="1.67" class="f">you</text><text x="29.058" y="1.67" class="f">want</text><text x="34.068" y="1.67" class="f">to.Lorem</text><text x="43.086" y="1.67" class="f">ipsum</text><text x="49.098" y="1.67" class="f">dolor</text><text x="55.11" y="1.67" class="f">sit</text></symbol><symbol id="5"><text x="0" y="1.67" class="f">amet,</text><text x="6.012" y="1.67" class="f">consetetur</text><text x="17.034" y="1.67" class="f">sadipscing</text><text x="28.056" y="1.67" class="f">elitr,</text><text x="35.07" y="1.67" class="f">sed</text><text x="39.078" y="1.67" class="f">diam</text><text x="44.088" y="1.67" class="f">nonumy</text><text x="51.102" y="1.67" class="f">eirmod</text></symbol><symbol id="6"><text x="0" y="1.67" class="f">tempor</text><text x="7.014" y="1.67" class="f">invidunt</text><text x="16.032" y="1.67" class="f">ut</text><text x="19.038" y="1.67" class="f">labore</text><text x="26.052" y="1.67" class="f">et</text><text x="29.058" y="1.67" class="f">dolore</text><text x="36.072" y="1.67" class="f">magna</text><text x="42.084" y="1.67" class="f">aliquyam</text></symbol><symbol id="7"><text x="0" y="1.67" class="f">This</text><text x="5.01" y="1.67" class="f">text</text><text x="10.02" y="1.67" class="f">is</text><text x="13.026" y="1.67" class="f">written</text><text x="21.042" y="1.67" class="f">with</text><text x="26.052" y="1.67" class="f">the</text><text x="30.06" y="1.67" class="f">default</text><text x="38.076" y="1.67" class="f">Println()</text><text x="48.096" y="1.67" class="f">function.</text><text x="58.116" y="1.67" class="f">No</text><text x="61.122" y="1.67" class="f">intelligent</text><text x="73.146" y="1.67" class="f">splitti</text></symbol><symbol id="8"><text x="0" y="1.67" class="f">ng</text><text x="3.006" y="1.67" class="f">here.Lorem</text><text x="14.028" y="1.67" class="f">ipsum</text><text x="20.04" y="1.67" class="f">dolor</text><text x="26.052" y="1.67" class="f">sit</text><text x="30.06" y="1.67" class="f">amet,</text><text x="36.072" y="1.67" class="f">consetetur</text><text x="47.094" y="1.67" class="f">sadipscing</text><text x="58.116" y="1.67" class="f">elitr,</text><text x="65.13" y="1.67" class="f">sed</text><text x="69.138" y="1.67" class="f">diam</text><text x="74.148" y="1.67" class="f">nonumy</text></symbol><symbol id="9"><text x="1.002" y="1.67" class="f">eirmod</text><text x="8.016" y="1.67" class="f">tempor</text><text x="15.03" y="1.67" class="f">invidunt</text><text x="24.048" y="1.67" class="f">ut</text><text x="27.054" y="1.67" class="f">labore</text><text x="34.068" y="1.67" class="f">et</text><text x="37.074" y="1.67" class="f">dolore</text><text x="44.088" y="1.67" class="f">magna</text><text x="50.1" y="1.67" class="f">aliquyam</text></symbol><symbol id="a"><rect width="80" height="24" x="0" y="0" class="g"/></symbol></defs><rect width="80" height="52.104" class="a"/><g class="i"><svg width="240" x="0" y="0"><svg x="0"><use xlink:href="#a"/></svg><svg x="80"><use xlink:href="#a"/><use y="0" xlink:href="#1"/><use y="2.171" xlink:href="#2"/><use y="4.342" xlink:href="#3"/><use y="6.513" xlink:href="#4"/><use y="8.684" xlink:href="#5"/><use y="10.855" xlink:href="#6"/><use y="15.197" xlink:href="#7"/><use y="17.368" xlink:href="#8"/><use y="19.539" xlink:href="#9"/></svg><svg x="160"><use xlink:href="#a"/><use y="0" xlink:href="#1"/><use y="2.171" xlink:href="#2"/><use y="4.342" xlink:href="#3"/><use y="6.513" xlink:href="#4"/><use y="8.684" xlink:href="#5"/><use y="10.855" xlink:href="#6"/><use y="15.197" xlink:href="#7"/><use y="17.368" xlink:href="#8"/><use y="19.539" xlink:href="#9"/><text x="0" y="25.551" class="f">Restarting</text><text x="11.022" y="25.551" class="f">animation...</text></svg></svg></g></g></svg></svg>